<svg xmlns="http://www.w3.org/2000/svg" xmlns:xlink="http://www.w3.org/1999/xlink" width="500" zoomAndPan="magnify" viewBox="0 0 375 374.999991" height="500" preserveAspectRatio="xMidYMid meet" version="1.0"><path fill="#43873f" d="M 369.335938 181.074219 C 362.910156 181.074219 357.183594 173.539062 351.8125 166.296875 C 348.132812 160.703125 343.578125 155.953125 338.140625 152.042969 C 335.507812 150.550781 332.707031 149.519531 329.730469 148.949219 C 331.921875 146.996094 333.734375 144.734375 335.164062 142.171875 C 337.9375 136.125 339.476562 129.777344 339.777344 123.128906 C 340.886719 114.078125 342.054688 104.671875 347.898438 101.285156 C 348.59375 100.878906 349.179688 100.351562 349.65625 99.699219 C 350.132812 99.050781 350.460938 98.332031 350.640625 97.546875 C 350.824219 96.761719 350.847656 95.976562 350.703125 95.183594 C 350.5625 94.390625 350.269531 93.660156 349.824219 92.992188 C 349.621094 92.683594 349.386719 92.394531 349.128906 92.128906 C 348.871094 91.867188 348.589844 91.628906 348.285156 91.417969 C 347.980469 91.207031 347.660156 91.027344 347.320312 90.875 C 346.980469 90.726562 346.632812 90.609375 346.273438 90.527344 C 345.910156 90.441406 345.546875 90.394531 345.175781 90.378906 C 344.804688 90.367188 344.4375 90.386719 344.070312 90.441406 C 343.707031 90.5 343.347656 90.589844 343 90.710938 C 342.652344 90.835938 342.316406 90.992188 341.996094 91.179688 C 336.449219 94.390625 327.746094 90.769531 319.277344 87.207031 C 313.28125 84.230469 306.953125 82.402344 300.292969 81.71875 L 299.941406 81.71875 C 297.015625 81.765625 294.175781 82.273438 291.414062 83.234375 C 292.445312 80.40625 292.953125 77.484375 292.933594 74.472656 C 292.3125 67.796875 290.484375 61.46875 287.441406 55.492188 C 283.820312 47.078125 280.140625 38.375 283.527344 32.535156 C 283.90625 31.828125 284.140625 31.074219 284.230469 30.277344 C 284.320312 29.480469 284.261719 28.695312 284.054688 27.921875 C 283.890625 27.371094 283.652344 26.855469 283.339844 26.375 C 283.027344 25.894531 282.648438 25.46875 282.210938 25.097656 C 281.773438 24.730469 281.289062 24.429688 280.761719 24.203125 C 280.234375 23.976562 279.6875 23.832031 279.117188 23.765625 C 278.546875 23.699219 277.976562 23.71875 277.414062 23.820312 C 276.847656 23.921875 276.308594 24.101562 275.796875 24.363281 C 275.289062 24.625 274.824219 24.953125 274.410156 25.347656 C 273.996094 25.746094 273.648438 26.195312 273.363281 26.695312 C 270.152344 32.535156 260.746094 33.46875 251.695312 34.636719 C 245.019531 35.050781 238.632812 36.625 232.535156 39.371094 C 229.910156 40.929688 227.613281 42.875 225.640625 45.210938 C 225.035156 42.332031 223.984375 39.625 222.488281 37.089844 C 218.601562 31.648438 213.851562 27.113281 208.234375 23.480469 C 200.933594 17.992188 193.339844 12.324219 193.339844 5.550781 C 193.339844 5.164062 193.304688 4.785156 193.230469 4.410156 C 193.152344 4.035156 193.042969 3.667969 192.894531 3.3125 C 192.75 2.960938 192.570312 2.621094 192.355469 2.304688 C 192.144531 1.984375 191.902344 1.691406 191.628906 1.417969 C 191.359375 1.148438 191.0625 0.90625 190.746094 0.691406 C 190.425781 0.480469 190.089844 0.300781 189.734375 0.152344 C 189.382812 0.00390625 189.015625 -0.105469 188.640625 -0.179688 C 188.261719 -0.253906 187.882812 -0.292969 187.5 -0.292969 C 187.117188 -0.292969 186.738281 -0.253906 186.359375 -0.179688 C 185.984375 -0.105469 185.617188 0.00390625 185.265625 0.152344 C 184.910156 0.300781 184.574219 0.480469 184.253906 0.691406 C 183.9375 0.90625 183.640625 1.148438 183.371094 1.417969 C 183.097656 1.691406 182.855469 1.984375 182.644531 2.304688 C 182.429688 2.621094 182.25 2.960938 182.101562 3.3125 C 181.957031 3.667969 181.847656 4.035156 181.769531 4.410156 C 181.695312 4.785156 181.660156 5.164062 181.660156 5.550781 C 181.660156 11.972656 174.125 17.757812 166.878906 23.074219 C 161.273438 26.734375 156.519531 31.289062 152.628906 36.742188 C 151.230469 39.410156 150.296875 42.234375 149.824219 45.210938 C 147.859375 43.019531 145.601562 41.1875 143.050781 39.71875 C 136.988281 37.003906 130.640625 35.464844 124.007812 35.105469 C 114.953125 34.054688 105.550781 32.886719 102.160156 27.042969 C 101.824219 26.460938 101.402344 25.953125 100.890625 25.515625 C 100.378906 25.082031 99.808594 24.742188 99.183594 24.503906 C 98.554688 24.265625 97.90625 24.136719 97.234375 24.121094 C 96.5625 24.105469 95.90625 24.207031 95.269531 24.414062 C 94.429688 24.695312 93.695312 25.144531 93.058594 25.757812 C 92.425781 26.371094 91.953125 27.09375 91.648438 27.921875 C 91.339844 28.738281 91.222656 29.578125 91.296875 30.449219 C 91.367188 31.316406 91.621094 32.128906 92.054688 32.886719 C 95.269531 38.726562 91.589844 47.195312 88.085938 55.664062 C 85.109375 61.640625 83.277344 67.949219 82.59375 74.589844 C 82.632812 77.628906 83.136719 80.589844 84.113281 83.46875 C 81.382812 82.542969 78.582031 82.058594 75.699219 82.007812 L 75.351562 82.007812 C 68.746094 82.632812 62.496094 84.460938 56.601562 87.5 C 48.1875 91.121094 39.484375 94.800781 33.644531 91.414062 C 32.890625 90.976562 32.078125 90.726562 31.207031 90.652344 C 30.339844 90.582031 29.496094 90.699219 28.679688 91.003906 C 27.851562 91.3125 27.132812 91.785156 26.515625 92.417969 C 25.902344 93.050781 25.457031 93.789062 25.175781 94.625 C 24.957031 95.269531 24.851562 95.929688 24.863281 96.605469 C 24.875 97.285156 25 97.9375 25.242188 98.574219 C 25.480469 99.207031 25.820312 99.78125 26.261719 100.296875 C 26.699219 100.8125 27.214844 101.242188 27.804688 101.578125 C 33.351562 104.789062 34.578125 114.136719 35.746094 123.246094 C 36.160156 129.921875 37.738281 136.308594 40.480469 142.40625 C 41.933594 145.003906 43.785156 147.28125 46.027344 149.242188 C 43.148438 149.847656 40.441406 150.898438 37.910156 152.394531 C 32.425781 156.203125 27.851562 160.894531 24.183594 166.472656 C 18.691406 173.773438 13.027344 181.308594 6.25 181.308594 C 5.867188 181.308594 5.488281 181.347656 5.109375 181.421875 C 4.734375 181.496094 4.367188 181.605469 4.015625 181.753906 C 3.660156 181.898438 3.324219 182.078125 3.003906 182.292969 C 2.6875 182.507812 2.390625 182.746094 2.121094 183.019531 C 1.847656 183.289062 1.605469 183.585938 1.394531 183.90625 C 1.179688 184.222656 1 184.558594 0.851562 184.914062 C 0.707031 185.269531 0.597656 185.632812 0.519531 186.011719 C 0.445312 186.386719 0.410156 186.765625 0.410156 187.148438 C 0.410156 187.53125 0.445312 187.914062 0.519531 188.289062 C 0.597656 188.664062 0.707031 189.03125 0.851562 189.386719 C 1 189.738281 1.179688 190.074219 1.394531 190.394531 C 1.605469 190.714844 1.847656 191.007812 2.121094 191.28125 C 2.390625 191.550781 2.6875 191.792969 3.003906 192.007812 C 3.324219 192.21875 3.660156 192.398438 4.015625 192.546875 C 4.367188 192.691406 4.734375 192.804688 5.109375 192.878906 C 5.488281 192.953125 5.867188 192.992188 6.25 192.992188 C 12.675781 192.992188 18.457031 200.527344 23.773438 207.769531 C 27.449219 213.363281 32.007812 218.113281 37.441406 222.019531 C 40.015625 223.519531 42.761719 224.570312 45.675781 225.175781 C 43.488281 227.140625 41.65625 229.398438 40.1875 231.949219 C 37.460938 238.011719 35.925781 244.359375 35.574219 250.992188 C 34.519531 260.046875 33.351562 269.449219 27.511719 272.78125 C 26.816406 273.1875 26.230469 273.714844 25.753906 274.367188 C 25.273438 275.015625 24.945312 275.734375 24.765625 276.519531 C 24.558594 277.101562 24.445312 277.699219 24.425781 278.320312 C 24.410156 278.9375 24.488281 279.542969 24.660156 280.136719 C 24.835938 280.730469 25.097656 281.28125 25.445312 281.792969 C 25.796875 282.300781 26.214844 282.746094 26.707031 283.121094 C 27.195312 283.5 27.734375 283.789062 28.316406 283.996094 C 28.898438 284.203125 29.5 284.3125 30.117188 284.328125 C 30.738281 284.34375 31.34375 284.265625 31.933594 284.085938 C 32.527344 283.910156 33.078125 283.644531 33.585938 283.292969 C 39.425781 280.082031 47.898438 283.703125 56.367188 287.265625 C 62.335938 290.253906 68.644531 292.066406 75.292969 292.699219 L 75.640625 292.699219 C 78.570312 292.660156 81.410156 292.15625 84.171875 291.179688 C 83.191406 294.019531 82.707031 296.9375 82.710938 299.941406 C 83.375 306.421875 85.207031 312.554688 88.199219 318.339844 C 91.765625 326.753906 95.503906 335.398438 92.113281 341.238281 C 91.929688 341.558594 91.773438 341.894531 91.652344 342.246094 C 91.53125 342.59375 91.441406 342.953125 91.386719 343.320312 C 91.335938 343.6875 91.316406 344.058594 91.332031 344.429688 C 91.347656 344.796875 91.398438 345.164062 91.484375 345.523438 C 91.574219 345.886719 91.691406 346.234375 91.84375 346.574219 C 91.996094 346.910156 92.179688 347.230469 92.394531 347.535156 C 92.609375 347.839844 92.847656 348.117188 93.117188 348.375 C 93.382812 348.632812 93.671875 348.863281 93.984375 349.066406 C 94.953125 349.71875 96.027344 350.050781 97.195312 350.058594 C 97.644531 350.117188 98.09375 350.117188 98.539062 350.058594 C 99.324219 349.878906 100.042969 349.550781 100.691406 349.074219 C 101.34375 348.59375 101.871094 348.007812 102.277344 347.3125 C 105.492188 341.472656 114.894531 340.539062 123.949219 339.367188 C 130.632812 338.96875 137.019531 337.371094 143.109375 334.578125 C 145.65625 333.128906 147.898438 331.300781 149.824219 329.089844 C 150.429688 331.988281 151.480469 334.710938 152.980469 337.265625 C 156.894531 342.691406 161.6875 347.191406 167.347656 350.757812 C 174.648438 356.25 182.183594 361.914062 182.183594 368.691406 C 182.183594 369.074219 182.222656 369.453125 182.296875 369.832031 C 182.371094 370.207031 182.484375 370.574219 182.628906 370.925781 C 182.777344 371.28125 182.957031 371.617188 183.167969 371.9375 C 183.382812 372.253906 183.625 372.550781 183.894531 372.820312 C 184.167969 373.09375 184.460938 373.335938 184.78125 373.546875 C 185.097656 373.761719 185.4375 373.941406 185.789062 374.089844 C 186.144531 374.234375 186.511719 374.34375 186.886719 374.421875 C 187.261719 374.496094 187.640625 374.53125 188.027344 374.53125 C 188.410156 374.53125 188.789062 374.496094 189.164062 374.421875 C 189.542969 374.34375 189.90625 374.234375 190.261719 374.089844 C 190.617188 373.941406 190.953125 373.761719 191.269531 373.546875 C 191.589844 373.335938 191.886719 373.09375 192.15625 372.820312 C 192.425781 372.550781 192.667969 372.253906 192.882812 371.9375 C 193.09375 371.617188 193.277344 371.28125 193.421875 370.925781 C 193.570312 370.574219 193.679688 370.207031 193.753906 369.832031 C 193.828125 369.453125 193.867188 369.074219 193.867188 368.691406 C 193.867188 362.207031 201.34375 356.484375 208.644531 351.167969 C 214.238281 347.492188 218.988281 342.933594 222.898438 337.5 C 224.394531 334.925781 225.445312 332.179688 226.050781 329.265625 C 228.003906 331.453125 230.265625 333.265625 232.828125 334.695312 C 238.875 337.476562 245.21875 339.015625 251.867188 339.3125 C 260.921875 340.421875 270.328125 341.589844 273.65625 347.429688 C 273.917969 347.871094 274.230469 348.269531 274.597656 348.628906 C 274.960938 348.984375 275.367188 349.289062 275.816406 349.539062 C 276.261719 349.792969 276.730469 349.980469 277.226562 350.109375 C 277.722656 350.234375 278.226562 350.296875 278.738281 350.292969 C 279.378906 350.308594 280.003906 350.210938 280.609375 350 C 281.4375 349.726562 282.171875 349.289062 282.804688 348.683594 C 283.441406 348.082031 283.914062 347.371094 284.230469 346.554688 C 284.542969 345.730469 284.664062 344.875 284.59375 343.996094 C 284.523438 343.117188 284.265625 342.292969 283.820312 341.53125 C 280.609375 335.6875 284.230469 327.21875 287.792969 318.808594 C 290.78125 312.816406 292.589844 306.488281 293.222656 299.824219 C 293.242188 296.773438 292.738281 293.816406 291.707031 290.945312 C 294.425781 291.910156 297.230469 292.417969 300.117188 292.464844 L 300.46875 292.464844 C 307.078125 291.742188 313.328125 289.835938 319.21875 286.742188 C 327.628906 283.121094 336.332031 279.4375 342.171875 282.769531 C 342.492188 282.953125 342.824219 283.105469 343.167969 283.222656 C 343.515625 283.34375 343.871094 283.433594 344.234375 283.484375 C 344.597656 283.539062 344.960938 283.558594 345.328125 283.542969 C 345.695312 283.527344 346.058594 283.480469 346.414062 283.394531 C 346.773438 283.3125 347.117188 283.195312 347.453125 283.046875 C 347.789062 282.898438 348.109375 282.722656 348.410156 282.511719 C 348.710938 282.304688 348.992188 282.070312 349.25 281.808594 C 349.507812 281.546875 349.738281 281.261719 349.941406 280.957031 C 350.386719 280.289062 350.679688 279.554688 350.820312 278.765625 C 350.964844 277.972656 350.941406 277.183594 350.757812 276.402344 C 350.578125 275.617188 350.25 274.898438 349.773438 274.25 C 349.296875 273.597656 348.710938 273.070312 348.015625 272.664062 C 342.171875 269.449219 341.238281 260.046875 340.070312 250.992188 C 339.660156 244.320312 338.082031 237.933594 335.339844 231.835938 C 333.773438 229.214844 331.828125 226.914062 329.496094 224.941406 C 332.394531 224.335938 335.121094 223.285156 337.675781 221.789062 C 343.0625 217.925781 347.5625 213.214844 351.167969 207.652344 C 356.660156 200.351562 362.324219 192.757812 369.042969 192.757812 C 369.425781 192.757812 369.804688 192.71875 370.179688 192.644531 C 370.558594 192.570312 370.921875 192.460938 371.277344 192.3125 C 371.632812 192.164062 371.96875 191.984375 372.289062 191.773438 C 372.605469 191.558594 372.902344 191.316406 373.171875 191.046875 C 373.445312 190.773438 373.6875 190.480469 373.898438 190.160156 C 374.113281 189.84375 374.292969 189.503906 374.4375 189.152344 C 374.585938 188.796875 374.695312 188.429688 374.769531 188.054688 C 374.847656 187.679688 374.882812 187.300781 374.882812 186.914062 C 374.882812 186.53125 374.847656 186.152344 374.769531 185.777344 C 374.695312 185.398438 374.585938 185.035156 374.4375 184.679688 C 374.292969 184.328125 374.113281 183.988281 373.898438 183.671875 C 373.6875 183.351562 373.445312 183.058594 373.171875 182.785156 C 372.902344 182.515625 372.605469 182.273438 372.289062 182.058594 C 371.96875 181.847656 371.632812 181.667969 371.277344 181.519531 C 370.921875 181.371094 370.558594 181.261719 370.179688 181.1875 C 369.804688 181.113281 369.425781 181.074219 369.042969 181.074219 Z M 192.699219 306.660156 L 222.253906 253.621094 L 287.324219 253.621094 C 284.714844 257.527344 281.886719 261.265625 278.835938 264.839844 C 275.789062 268.410156 272.539062 271.792969 269.089844 274.980469 C 265.644531 278.167969 262.019531 281.144531 258.21875 283.90625 C 254.421875 286.667969 250.472656 289.199219 246.375 291.496094 C 242.277344 293.792969 238.0625 295.839844 233.722656 297.636719 C 229.382812 299.4375 224.953125 300.976562 220.433594 302.253906 C 215.914062 303.527344 211.335938 304.535156 206.695312 305.273438 C 202.058594 306.011719 197.390625 306.472656 192.699219 306.660156 Z M 88.257812 253.386719 L 153.328125 253.386719 L 182.886719 306.660156 C 178.1875 306.464844 173.515625 305.996094 168.875 305.25 C 164.230469 304.507812 159.648438 303.492188 155.125 302.207031 C 150.601562 300.921875 146.171875 299.375 141.828125 297.566406 C 137.488281 295.757812 133.269531 293.699219 129.171875 291.390625 C 125.074219 289.085938 121.128906 286.542969 117.328125 283.773438 C 113.53125 281 109.910156 278.011719 106.464844 274.8125 C 103.019531 271.613281 99.773438 268.222656 96.730469 264.636719 C 93.683594 261.054688 90.863281 257.304688 88.257812 253.386719 Z M 68.050781 186.914062 C 68.046875 181.789062 68.375 176.683594 69.035156 171.597656 C 69.691406 166.511719 70.671875 161.488281 71.980469 156.53125 C 73.285156 151.574219 74.90625 146.71875 76.839844 141.96875 C 78.769531 137.222656 81 132.617188 83.527344 128.152344 L 116.355469 187.03125 L 83.644531 245.792969 C 81.09375 241.332031 78.847656 236.71875 76.894531 231.964844 C 74.945312 227.207031 73.3125 222.34375 71.996094 217.375 C 70.683594 212.40625 69.691406 207.371094 69.03125 202.273438 C 68.371094 197.175781 68.042969 192.054688 68.050781 186.914062 Z M 183.0625 67.171875 L 153.328125 120.675781 L 88.085938 120.675781 C 90.6875 116.738281 93.515625 112.96875 96.566406 109.363281 C 99.617188 105.761719 102.871094 102.347656 106.328125 99.132812 C 109.785156 95.914062 113.417969 92.910156 117.226562 90.121094 C 121.039062 87.335938 125.003906 84.78125 129.117188 82.464844 C 133.230469 80.148438 137.46875 78.082031 141.828125 76.265625 C 146.183594 74.449219 150.636719 72.898438 155.179688 71.609375 C 159.722656 70.324219 164.324219 69.308594 168.988281 68.566406 C 173.652344 67.824219 178.34375 67.359375 183.0625 67.171875 Z M 287.5 120.445312 L 222.253906 120.445312 L 192.523438 67.171875 C 197.242188 67.359375 201.933594 67.824219 206.59375 68.566406 C 211.257812 69.308594 215.863281 70.324219 220.40625 71.609375 C 224.949219 72.898438 229.398438 74.449219 233.757812 76.265625 C 238.117188 78.082031 242.351562 80.148438 246.46875 82.464844 C 250.582031 84.78125 254.542969 87.335938 258.355469 90.121094 C 262.167969 92.910156 265.800781 95.914062 269.257812 99.132812 C 272.710938 102.347656 275.964844 105.761719 279.015625 109.363281 C 282.066406 112.96875 284.894531 116.738281 287.5 120.675781 Z M 215.363281 241.707031 L 160.222656 241.707031 L 129.730469 187.03125 L 160.222656 132.359375 L 215.363281 132.359375 L 245.851562 187.03125 Z M 252.511719 199.066406 L 276.34375 241.707031 L 228.738281 241.707031 Z M 166.707031 253.386719 L 208.878906 253.386719 L 187.792969 291.179688 Z M 146.847656 241.707031 L 99.242188 241.707031 L 123.074219 199.066406 Z M 123.074219 175.058594 L 99.242188 132.359375 L 146.847656 132.359375 Z M 187.792969 82.886719 L 208.878906 120.675781 L 166.707031 120.675781 Z M 228.679688 132.359375 L 276.285156 132.359375 L 252.453125 175.058594 Z M 291.9375 245.792969 L 259.230469 187.03125 L 292.054688 128.152344 C 293.324219 130.382812 294.515625 132.652344 295.636719 134.957031 C 296.753906 137.265625 297.800781 139.605469 298.769531 141.980469 C 299.738281 144.355469 300.628906 146.757812 301.441406 149.1875 C 302.253906 151.621094 302.988281 154.078125 303.644531 156.554688 C 304.300781 159.035156 304.875 161.53125 305.367188 164.046875 C 305.859375 166.566406 306.273438 169.09375 306.601562 171.636719 C 306.933594 174.179688 307.179688 176.730469 307.347656 179.289062 C 307.511719 181.847656 307.59375 184.410156 307.59375 186.972656 C 307.59375 189.539062 307.511719 192.101562 307.347656 194.660156 C 307.179688 197.21875 306.933594 199.769531 306.601562 202.3125 C 306.273438 204.855469 305.859375 207.382812 305.367188 209.898438 C 304.875 212.417969 304.300781 214.914062 303.644531 217.394531 C 302.988281 219.871094 302.253906 222.328125 301.441406 224.757812 C 300.628906 227.191406 299.738281 229.59375 298.769531 231.96875 C 297.800781 234.34375 296.753906 236.683594 295.636719 238.988281 C 294.515625 241.296875 293.324219 243.566406 292.054688 245.792969 Z M 300.175781 93.339844 C 305.285156 94.109375 310.152344 95.648438 314.777344 97.957031 C 320.261719 100.546875 325.96875 102.492188 331.890625 103.796875 C 329.929688 109.664062 328.703125 115.679688 328.210938 121.847656 C 327.929688 126.859375 326.878906 131.707031 325.058594 136.390625 C 323.597656 138.609375 321.78125 140.492188 319.613281 142.035156 C 317.449219 143.574219 315.078125 144.671875 312.5 145.328125 C 309.6875 136.925781 306.0625 128.886719 301.628906 121.214844 C 297.195312 113.546875 292.035156 106.394531 286.15625 99.765625 C 287.992188 97.882812 290.101562 96.386719 292.488281 95.28125 C 294.871094 94.171875 297.375 93.527344 300 93.339844 Z M 238.199219 49.648438 C 243.003906 47.722656 247.988281 46.589844 253.152344 46.261719 C 259.136719 45.746094 264.980469 44.539062 270.675781 42.640625 C 271.890625 48.726562 273.835938 54.566406 276.519531 60.164062 C 278.8125 64.707031 280.332031 69.496094 281.074219 74.53125 C 280.921875 77.183594 280.300781 79.71875 279.199219 82.136719 C 278.101562 84.554688 276.605469 86.691406 274.707031 88.550781 C 268.082031 82.644531 260.925781 77.46875 253.246094 73.023438 C 245.5625 68.578125 237.511719 64.953125 229.089844 62.148438 C 229.78125 59.574219 230.914062 57.210938 232.484375 55.054688 C 234.054688 52.898438 235.960938 51.097656 238.199219 49.648438 Z M 162.792969 42.933594 C 165.984375 38.871094 169.742188 35.421875 174.066406 32.59375 C 179 29.027344 183.496094 24.976562 187.558594 20.445312 C 191.660156 25.070312 196.253906 29.140625 201.34375 32.652344 C 205.605469 35.402344 209.304688 38.773438 212.441406 42.757812 C 213.628906 45.105469 214.359375 47.585938 214.632812 50.203125 C 214.902344 52.824219 214.699219 55.402344 214.019531 57.945312 C 205.34375 56.183594 196.582031 55.304688 187.734375 55.304688 C 178.882812 55.304688 170.121094 56.183594 161.449219 57.945312 C 160.757812 55.441406 160.53125 52.902344 160.761719 50.316406 C 160.992188 47.734375 161.667969 45.269531 162.792969 42.933594 Z M 98.539062 60.457031 C 101.128906 54.96875 103.078125 49.265625 104.378906 43.339844 C 110.253906 45.277344 116.269531 46.503906 122.429688 47.019531 C 127.507812 47.304688 132.414062 48.375 137.148438 50.234375 C 139.347656 51.679688 141.214844 53.472656 142.753906 55.605469 C 144.292969 57.738281 145.40625 60.074219 146.085938 62.617188 C 137.671875 65.449219 129.625 69.09375 121.941406 73.546875 C 114.261719 78.003906 107.105469 83.179688 100.46875 89.078125 C 98.578125 87.214844 97.082031 85.074219 95.984375 82.65625 C 94.886719 80.242188 94.257812 77.707031 94.101562 75.058594 C 94.8125 69.847656 96.332031 64.882812 98.65625 60.164062 Z M 43.339844 104.378906 C 49.425781 103.167969 55.269531 101.222656 60.863281 98.539062 C 65.40625 96.246094 70.199219 94.726562 75.234375 93.984375 C 77.84375 94.167969 80.339844 94.804688 82.722656 95.890625 C 85.105469 96.976562 87.222656 98.441406 89.078125 100.292969 C 83.1875 106.933594 78.03125 114.097656 73.605469 121.789062 C 69.179688 129.484375 65.574219 137.542969 62.792969 145.96875 C 60.242188 145.234375 57.910156 144.066406 55.796875 142.464844 C 53.683594 140.863281 51.925781 138.9375 50.527344 136.683594 C 48.589844 131.878906 47.460938 126.894531 47.136719 121.730469 C 46.585938 115.707031 45.359375 109.828125 43.457031 104.089844 Z M 33.292969 200.875 C 29.8125 195.925781 25.820312 191.429688 21.320312 187.382812 C 25.933594 183.269531 30 178.675781 33.527344 173.597656 C 36.28125 169.320312 39.648438 165.601562 43.632812 162.441406 C 46.003906 161.261719 48.507812 160.539062 51.144531 160.277344 C 53.78125 160.015625 56.378906 160.230469 58.9375 160.921875 C 57.214844 169.5 56.359375 178.167969 56.367188 186.914062 C 56.363281 195.90625 57.257812 204.800781 59.054688 213.609375 C 56.484375 214.339844 53.867188 214.578125 51.207031 214.324219 C 48.546875 214.074219 46.023438 213.347656 43.632812 212.148438 C 39.617188 208.914062 36.171875 205.15625 33.292969 200.875 Z M 75.46875 280.839844 C 70.355469 280.105469 65.488281 278.585938 60.863281 276.285156 C 55.386719 273.667969 49.683594 271.71875 43.75 270.445312 C 45.679688 264.570312 46.90625 258.554688 47.429688 252.394531 C 47.6875 247.382812 48.71875 242.535156 50.527344 237.851562 C 51.988281 235.609375 53.808594 233.714844 55.984375 232.164062 C 58.164062 230.609375 60.546875 229.507812 63.140625 228.855469 C 65.976562 237.253906 69.621094 245.28125 74.074219 252.941406 C 78.53125 260.605469 83.707031 267.742188 89.601562 274.359375 C 87.75 276.304688 85.601562 277.835938 83.160156 278.957031 C 80.714844 280.078125 78.152344 280.707031 75.46875 280.839844 Z M 137.382812 324.472656 C 132.582031 326.414062 127.597656 327.523438 122.429688 327.804688 C 116.457031 328.371094 110.617188 329.578125 104.90625 331.425781 C 103.683594 325.34375 101.738281 319.5 99.066406 313.902344 C 96.761719 309.382812 95.246094 304.609375 94.507812 299.589844 C 94.660156 296.894531 95.296875 294.316406 96.414062 291.855469 C 97.535156 289.398438 99.058594 287.226562 100.992188 285.339844 C 107.628906 291.203125 114.78125 296.347656 122.449219 300.773438 C 130.121094 305.199219 138.15625 308.816406 146.554688 311.625 C 145.902344 314.273438 144.78125 316.707031 143.199219 318.925781 C 141.613281 321.148438 139.675781 322.996094 137.382812 324.472656 Z M 212.851562 331.25 C 209.636719 335.324219 205.878906 338.808594 201.578125 341.707031 C 196.628906 345.078125 192.132812 348.972656 188.085938 353.386719 C 183.957031 348.941406 179.359375 345.050781 174.300781 341.707031 C 170.019531 338.933594 166.300781 335.546875 163.140625 331.542969 C 161.878906 329.113281 161.105469 326.535156 160.820312 323.8125 C 160.539062 321.089844 160.769531 318.40625 161.507812 315.769531 C 170.183594 317.503906 178.945312 318.359375 187.792969 318.339844 C 196.648438 318.359375 205.410156 317.464844 214.078125 315.652344 C 214.859375 318.238281 215.144531 320.875 214.933594 323.566406 C 214.722656 326.257812 214.027344 328.820312 212.851562 331.25 Z M 277.101562 314.078125 C 274.484375 319.554688 272.539062 325.257812 271.261719 331.191406 C 265.394531 329.234375 259.378906 328.007812 253.210938 327.511719 C 248.148438 327.191406 243.257812 326.082031 238.550781 324.183594 C 236.300781 322.699219 234.390625 320.863281 232.828125 318.664062 C 231.269531 316.46875 230.15625 314.0625 229.496094 311.449219 C 237.886719 308.609375 245.910156 304.964844 253.566406 300.519531 C 261.226562 296.078125 268.371094 290.917969 275 285.046875 C 276.949219 286.9375 278.488281 289.117188 279.617188 291.585938 C 280.746094 294.058594 281.386719 296.648438 281.542969 299.359375 C 280.808594 304.507812 279.289062 309.414062 276.984375 314.078125 Z M 332.242188 270.152344 C 326.160156 271.375 320.320312 273.320312 314.71875 275.992188 C 310.199219 278.296875 305.429688 279.8125 300.410156 280.550781 C 297.753906 280.347656 295.21875 279.683594 292.804688 278.558594 C 290.386719 277.429688 288.25 275.914062 286.390625 274.007812 C 292.269531 267.390625 297.425781 260.25 301.863281 252.585938 C 306.296875 244.925781 309.921875 236.898438 312.734375 228.503906 C 315.269531 229.199219 317.597656 230.324219 319.722656 231.871094 C 321.84375 233.421875 323.625 235.296875 325.058594 237.5 C 326.996094 242.300781 328.105469 247.285156 328.386719 252.453125 C 328.980469 258.492188 330.226562 264.390625 332.125 270.152344 Z M 342.230469 200.640625 C 339.460938 204.90625 336.074219 208.605469 332.066406 211.742188 C 329.691406 212.945312 327.179688 213.679688 324.53125 213.945312 C 321.878906 214.207031 319.269531 213.976562 316.707031 213.257812 C 318.449219 204.585938 319.320312 195.824219 319.320312 186.972656 C 319.320312 178.125 318.449219 169.363281 316.707031 160.6875 C 319.273438 159.984375 321.878906 159.765625 324.527344 160.027344 C 327.175781 160.289062 329.6875 161.015625 332.066406 162.207031 C 336.183594 165.351562 339.6875 169.070312 342.582031 173.363281 C 345.984375 178.289062 349.878906 182.785156 354.265625 186.859375 C 349.640625 190.949219 345.589844 195.542969 342.113281 200.640625 Z M 153.855469 154.789062 L 162.910156 165.363281 L 168.75 165.363281 C 172.179688 169.996094 174.828125 175.039062 176.695312 180.492188 C 176.402344 181.308594 173.949219 182.535156 171.847656 183.644531 C 168.40625 185.128906 165.253906 187.078125 162.382812 189.484375 C 161.359375 190.707031 160.5 192.03125 159.804688 193.464844 C 159.109375 194.898438 158.597656 196.394531 158.269531 197.953125 C 157.945312 199.511719 157.8125 201.089844 157.875 202.679688 C 157.941406 204.273438 158.195312 205.832031 158.644531 207.359375 C 158.875 208.1875 159.164062 208.996094 159.507812 209.785156 C 159.855469 210.574219 160.253906 211.332031 160.707031 212.066406 C 161.164062 212.796875 161.667969 213.492188 162.21875 214.152344 C 162.773438 214.808594 163.371094 215.425781 164.011719 216 C 164.652344 216.574219 165.332031 217.101562 166.046875 217.578125 C 166.761719 218.054688 167.507812 218.480469 168.285156 218.851562 C 169.0625 219.222656 169.863281 219.535156 170.683594 219.792969 C 171.503906 220.050781 172.339844 220.246094 173.1875 220.386719 C 174.351562 220.707031 175.527344 220.953125 176.71875 221.125 C 177.910156 221.292969 179.105469 221.390625 180.3125 221.410156 C 181.515625 221.429688 182.714844 221.375 183.910156 221.242188 C 185.109375 221.109375 186.292969 220.902344 187.460938 220.617188 C 188.632812 220.335938 189.78125 219.980469 190.90625 219.554688 C 192.03125 219.125 193.125 218.628906 194.1875 218.0625 C 195.25 217.496094 196.273438 216.863281 197.253906 216.167969 C 198.238281 215.472656 199.171875 214.714844 200.058594 213.902344 L 200.058594 223.890625 L 210.574219 234.8125 L 210.574219 165.597656 L 221.789062 165.597656 L 211.742188 154.789062 Z M 171.960938 194.742188 C 174.121094 193.351562 176.359375 192.105469 178.679688 191.003906 C 184.519531 188.199219 190.011719 185.164062 189.835938 180.78125 C 188.472656 175.097656 186.058594 169.898438 182.59375 165.1875 L 199.359375 165.1875 L 199.359375 199.648438 C 198.015625 201.695312 190.246094 212.03125 179.964844 211.332031 C 179.390625 211.3125 178.820312 211.253906 178.257812 211.144531 C 177.691406 211.039062 177.140625 210.886719 176.601562 210.691406 C 176.058594 210.5 175.539062 210.261719 175.035156 209.988281 C 174.53125 209.710938 174.054688 209.394531 173.597656 209.042969 C 173.144531 208.691406 172.722656 208.304688 172.328125 207.886719 C 171.9375 207.46875 171.578125 207.023438 171.257812 206.546875 C 170.933594 206.070312 170.652344 205.574219 170.40625 205.054688 C 170.164062 204.535156 169.960938 203.996094 169.800781 203.445312 C 169.542969 202.710938 169.398438 201.957031 169.363281 201.179688 C 169.328125 200.402344 169.410156 199.636719 169.601562 198.882812 C 169.792969 198.132812 170.089844 197.421875 170.492188 196.757812 C 170.894531 196.089844 171.386719 195.496094 171.960938 194.976562 Z M 208.234375 143.398438 C 208.234375 143.78125 208.199219 144.164062 208.125 144.539062 C 208.050781 144.914062 207.9375 145.28125 207.792969 145.636719 C 207.644531 145.988281 207.464844 146.324219 207.25 146.644531 C 207.039062 146.964844 206.796875 147.257812 206.523438 147.53125 C 206.253906 147.800781 205.957031 148.042969 205.640625 148.257812 C 205.320312 148.46875 204.984375 148.648438 204.628906 148.796875 C 204.277344 148.941406 203.910156 149.054688 203.535156 149.128906 C 203.160156 149.203125 202.777344 149.242188 202.394531 149.242188 C 202.011719 149.242188 201.632812 149.203125 201.253906 149.128906 C 200.878906 149.054688 200.515625 148.941406 200.160156 148.796875 C 199.804688 148.648438 199.46875 148.46875 199.148438 148.257812 C 198.832031 148.042969 198.535156 147.800781 198.265625 147.53125 C 197.992188 147.257812 197.75 146.964844 197.539062 146.644531 C 197.324219 146.324219 197.144531 145.988281 197 145.636719 C 196.851562 145.28125 196.742188 144.914062 196.664062 144.539062 C 196.589844 144.164062 196.554688 143.78125 196.554688 143.398438 C 196.554688 143.015625 196.589844 142.636719 196.664062 142.261719 C 196.742188 141.882812 196.851562 141.519531 197 141.164062 C 197.144531 140.808594 197.324219 140.472656 197.539062 140.15625 C 197.75 139.835938 197.992188 139.539062 198.265625 139.269531 C 198.535156 138.996094 198.832031 138.757812 199.148438 138.542969 C 199.46875 138.328125 199.804688 138.148438 200.160156 138.003906 C 200.515625 137.855469 200.878906 137.746094 201.253906 137.671875 C 201.632812 137.597656 202.011719 137.558594 202.394531 137.558594 C 202.777344 137.558594 203.160156 137.597656 203.535156 137.671875 C 203.910156 137.746094 204.277344 137.855469 204.628906 138.003906 C 204.984375 138.148438 205.320312 138.328125 205.640625 138.542969 C 205.957031 138.757812 206.253906 138.996094 206.523438 139.269531 C 206.796875 139.539062 207.039062 139.835938 207.25 140.15625 C 207.464844 140.472656 207.644531 140.808594 207.792969 141.164062 C 207.9375 141.519531 208.050781 141.882812 208.125 142.261719 C 208.199219 142.636719 208.234375 143.015625 208.234375 143.398438 Z M 208.234375 143.398438 " fill-opacity="1" fill-rule="nonzero"/></svg>