<svg xmlns="http://www.w3.org/2000/svg" xmlns:xlink="http://www.w3.org/1999/xlink" width="500" zoomAndPan="magnify" viewBox="0 0 375 374.999991" height="500" preserveAspectRatio="xMidYMid meet" version="1.0"><path fill="#4d2a7c" d="M 369.253906 185.90625 C 351.304688 185.90625 337.269531 162.265625 323.484375 139.34375 C 314.28125 124.058594 305.585938 109.183594 295.3125 101.390625 C 268.867188 81.011719 236.523438 98.027344 234.285156 99.199219 C 230.734375 97.351562 227.082031 95.722656 223.335938 94.3125 C 219.585938 92.898438 215.769531 91.714844 211.878906 90.757812 C 207.992188 89.804688 204.0625 89.082031 200.089844 88.59375 C 196.113281 88.101562 192.125 87.851562 188.121094 87.839844 C 184.117188 87.824219 180.128906 88.050781 176.152344 88.511719 C 172.175781 88.976562 168.238281 89.671875 164.34375 90.601562 C 160.449219 91.535156 156.625 92.691406 152.867188 94.078125 C 149.109375 95.464844 145.449219 97.070312 141.882812 98.894531 C 141.554688 98.535156 141.179688 98.226562 140.765625 97.976562 C 139.390625 97.210938 106.488281 79.585938 79.738281 100.117188 C 69.566406 107.910156 60.820312 122.53125 51.566406 138.070312 C 37.988281 160.941406 23.898438 184.578125 5.796875 184.578125 C 5.460938 184.578125 5.128906 184.613281 4.804688 184.679688 C 4.476562 184.742188 4.15625 184.839844 3.847656 184.96875 C 3.539062 185.097656 3.246094 185.253906 2.96875 185.4375 C 2.691406 185.625 2.433594 185.835938 2.199219 186.070312 C 1.964844 186.308594 1.753906 186.566406 1.566406 186.84375 C 1.382812 187.121094 1.226562 187.414062 1.097656 187.726562 C 0.96875 188.035156 0.871094 188.351562 0.808594 188.679688 C 0.742188 189.007812 0.710938 189.339844 0.710938 189.675781 C 0.710938 190.007812 0.742188 190.339844 0.808594 190.667969 C 0.871094 190.996094 0.96875 191.316406 1.097656 191.625 C 1.226562 191.933594 1.382812 192.226562 1.566406 192.503906 C 1.753906 192.78125 1.964844 193.039062 2.199219 193.277344 C 2.433594 193.511719 2.691406 193.722656 2.96875 193.910156 C 3.246094 194.097656 3.539062 194.253906 3.847656 194.378906 C 4.15625 194.507812 4.476562 194.605469 4.804688 194.671875 C 5.128906 194.734375 5.460938 194.769531 5.796875 194.769531 C 24.460938 194.769531 38.394531 218.507812 51.871094 241.535156 C 60.871094 256.816406 69.414062 271.488281 79.585938 279.234375 C 81.746094 280.875 84.027344 282.328125 86.429688 283.585938 C 88.835938 284.84375 91.328125 285.890625 93.90625 286.726562 C 96.488281 287.5625 99.121094 288.179688 101.804688 288.570312 C 104.488281 288.964844 107.183594 289.128906 109.894531 289.066406 C 115.308594 288.988281 120.644531 288.296875 125.902344 286.988281 C 131.15625 285.679688 136.195312 283.792969 141.019531 281.320312 C 141.347656 281.09375 141.652344 280.839844 141.933594 280.558594 C 145.433594 282.355469 149.023438 283.945312 152.707031 285.324219 C 156.390625 286.699219 160.140625 287.859375 163.960938 288.800781 C 167.78125 289.738281 171.640625 290.453125 175.542969 290.9375 C 179.445312 291.425781 183.363281 291.683594 187.292969 291.710938 C 191.226562 291.742188 195.148438 291.539062 199.054688 291.109375 C 202.964844 290.679688 206.835938 290.023438 210.667969 289.140625 C 214.5 288.257812 218.265625 287.152344 221.96875 285.828125 C 225.671875 284.503906 229.289062 282.96875 232.8125 281.21875 C 233.226562 281.816406 233.753906 282.292969 234.386719 282.644531 C 239.21875 285.09375 244.257812 286.972656 249.511719 288.277344 C 254.765625 289.585938 260.097656 290.289062 265.511719 290.390625 C 268.195312 290.429688 270.863281 290.25 273.515625 289.84375 C 276.167969 289.4375 278.769531 288.816406 281.320312 287.972656 C 283.867188 287.132812 286.328125 286.085938 288.703125 284.832031 C 291.078125 283.578125 293.332031 282.136719 295.464844 280.507812 C 305.636719 272.710938 314.179688 258.191406 323.230469 242.757812 C 336.65625 219.78125 350.589844 195.992188 369 195.992188 C 369.335938 195.992188 369.664062 195.957031 369.992188 195.894531 C 370.320312 195.828125 370.640625 195.730469 370.949219 195.601562 C 371.257812 195.476562 371.550781 195.320312 371.828125 195.132812 C 372.105469 194.945312 372.359375 194.734375 372.597656 194.5 C 372.832031 194.261719 373.042969 194.003906 373.230469 193.726562 C 373.414062 193.449219 373.570312 193.15625 373.699219 192.847656 C 373.828125 192.539062 373.925781 192.21875 373.988281 191.890625 C 374.054688 191.5625 374.085938 191.230469 374.085938 190.898438 C 374.085938 190.5625 374.054688 190.230469 373.988281 189.902344 C 373.925781 189.574219 373.828125 189.257812 373.699219 188.949219 C 373.570312 188.636719 373.414062 188.34375 373.230469 188.066406 C 373.042969 187.789062 372.832031 187.53125 372.597656 187.292969 C 372.359375 187.058594 372.105469 186.847656 371.828125 186.660156 C 371.550781 186.476562 371.257812 186.316406 370.949219 186.191406 C 370.640625 186.0625 370.320312 185.964844 369.992188 185.902344 C 369.664062 185.835938 369.335938 185.800781 369 185.800781 Z M 264.136719 138.730469 L 111.878906 138.730469 C 112.917969 137.171875 114.007812 135.644531 115.140625 134.148438 C 116.273438 132.65625 117.453125 131.195312 118.675781 129.777344 C 119.898438 128.355469 121.164062 126.972656 122.472656 125.628906 C 123.78125 124.285156 125.128906 122.980469 126.515625 121.722656 C 127.90625 120.460938 129.328125 119.242188 130.792969 118.070312 C 132.253906 116.898438 133.75 115.769531 135.28125 114.6875 C 136.816406 113.609375 138.378906 112.574219 139.972656 111.589844 C 141.566406 110.605469 143.191406 109.671875 144.84375 108.785156 C 146.496094 107.902344 148.171875 107.066406 149.875 106.285156 C 151.578125 105.503906 153.304688 104.773438 155.054688 104.097656 C 156.800781 103.421875 158.566406 102.800781 160.355469 102.234375 C 162.140625 101.667969 163.941406 101.15625 165.757812 100.699219 C 167.574219 100.246094 169.40625 99.84375 171.246094 99.5 C 173.089844 99.15625 174.941406 98.871094 176.800781 98.640625 C 178.660156 98.410156 180.523438 98.238281 182.394531 98.125 C 184.261719 98.007812 186.136719 97.949219 188.007812 97.949219 C 189.882812 97.949219 191.753906 98.007812 193.625 98.125 C 195.492188 98.238281 197.359375 98.410156 199.21875 98.640625 C 201.078125 98.871094 202.929688 99.15625 204.769531 99.5 C 206.613281 99.84375 208.441406 100.246094 210.257812 100.699219 C 212.074219 101.15625 213.878906 101.667969 215.664062 102.234375 C 217.449219 102.800781 219.214844 103.421875 220.964844 104.097656 C 222.710938 104.773438 224.4375 105.503906 226.140625 106.285156 C 227.84375 107.066406 229.523438 107.902344 231.175781 108.785156 C 232.824219 109.671875 234.449219 110.605469 236.042969 111.589844 C 237.640625 112.574219 239.203125 113.609375 240.734375 114.6875 C 242.265625 115.769531 243.761719 116.898438 245.226562 118.070312 C 246.6875 119.242188 248.113281 120.460938 249.5 121.722656 C 250.886719 122.980469 252.234375 124.285156 253.542969 125.628906 C 254.851562 126.972656 256.117188 128.355469 257.339844 129.777344 C 258.566406 131.195312 259.742188 132.65625 260.878906 134.148438 C 262.011719 135.644531 263.097656 137.171875 264.136719 138.730469 Z M 192.128906 281.371094 L 268.003906 145.097656 C 268.953125 146.796875 269.84375 148.523438 270.683594 150.28125 C 271.523438 152.035156 272.304688 153.816406 273.03125 155.621094 C 273.757812 157.425781 274.421875 159.253906 275.03125 161.101562 C 275.640625 162.949219 276.191406 164.816406 276.683594 166.699219 C 277.175781 168.582031 277.605469 170.480469 277.976562 172.390625 C 278.34375 174.300781 278.65625 176.222656 278.902344 178.152344 C 279.152344 180.082031 279.335938 182.019531 279.460938 183.960938 C 279.585938 185.902344 279.652344 187.847656 279.652344 189.792969 C 279.652344 191.738281 279.59375 193.683594 279.472656 195.625 C 279.347656 197.570312 279.164062 199.503906 278.921875 201.4375 C 278.675781 203.367188 278.371094 205.289062 278 207.199219 C 277.632812 209.109375 277.207031 211.007812 276.71875 212.890625 C 276.230469 214.777344 275.683594 216.644531 275.078125 218.492188 C 274.472656 220.339844 273.804688 222.167969 273.082031 223.976562 C 272.359375 225.78125 271.582031 227.5625 270.746094 229.320312 C 269.910156 231.078125 269.019531 232.804688 268.074219 234.507812 C 267.125 236.207031 266.128906 237.875 265.074219 239.511719 C 264.023438 241.148438 262.921875 242.75 261.765625 244.3125 C 260.613281 245.878906 259.410156 247.40625 258.160156 248.898438 C 256.910156 250.386719 255.613281 251.835938 254.269531 253.242188 C 252.925781 254.648438 251.539062 256.011719 250.113281 257.328125 C 248.683594 258.648438 247.210938 259.917969 245.703125 261.144531 C 244.191406 262.367188 242.644531 263.542969 241.058594 264.667969 C 239.472656 265.792969 237.855469 266.867188 236.203125 267.890625 C 234.546875 268.914062 232.863281 269.882812 231.148438 270.796875 C 229.433594 271.710938 227.691406 272.570312 225.921875 273.375 C 224.152344 274.179688 222.359375 274.925781 220.542969 275.613281 C 218.726562 276.304688 216.890625 276.9375 215.03125 277.507812 C 213.175781 278.082031 211.300781 278.59375 209.414062 279.046875 C 207.523438 279.5 205.621094 279.890625 203.707031 280.222656 C 201.792969 280.554688 199.867188 280.824219 197.9375 281.03125 C 196.003906 281.242188 194.070312 281.390625 192.128906 281.472656 Z M 96.316406 189.675781 C 96.3125 181.832031 97.300781 174.117188 99.285156 166.527344 C 101.265625 158.941406 104.175781 151.730469 108.015625 144.894531 L 183.890625 281.472656 C 182.433594 281.410156 180.980469 281.3125 179.53125 281.179688 C 178.082031 281.046875 176.632812 280.878906 175.191406 280.679688 C 173.75 280.476562 172.3125 280.242188 170.878906 279.96875 C 169.449219 279.699219 168.023438 279.394531 166.609375 279.054688 C 165.191406 278.71875 163.785156 278.34375 162.382812 277.9375 C 160.984375 277.53125 159.597656 277.09375 158.21875 276.621094 C 156.839844 276.148438 155.472656 275.644531 154.121094 275.105469 C 152.765625 274.566406 151.425781 274 150.097656 273.398438 C 148.773438 272.792969 147.460938 272.160156 146.164062 271.496094 C 144.867188 270.832031 143.585938 270.136719 142.324219 269.410156 C 141.058594 268.6875 139.8125 267.929688 138.585938 267.144531 C 137.359375 266.359375 136.148438 265.546875 134.960938 264.703125 C 133.773438 263.859375 132.605469 262.988281 131.457031 262.089844 C 130.308594 261.191406 129.183594 260.265625 128.082031 259.3125 C 126.976562 258.359375 125.898438 257.378906 124.84375 256.375 C 123.785156 255.371094 122.753906 254.339844 121.746094 253.289062 C 120.738281 252.234375 119.757812 251.15625 118.800781 250.054688 C 117.84375 248.957031 116.914062 247.832031 116.011719 246.6875 C 115.109375 245.542969 114.234375 244.375 113.386719 243.1875 C 112.539062 242.003906 111.722656 240.796875 110.933594 239.570312 C 110.144531 238.34375 109.382812 237.097656 108.652344 235.835938 C 107.921875 234.574219 107.222656 233.292969 106.554688 232 C 105.882812 230.703125 105.246094 229.390625 104.640625 228.066406 C 104.03125 226.738281 103.457031 225.398438 102.914062 224.042969 C 102.371094 222.691406 101.863281 221.324219 101.382812 219.945312 C 100.90625 218.566406 100.460938 217.179688 100.050781 215.777344 C 99.636719 214.378906 99.257812 212.972656 98.914062 211.554688 C 98.570312 210.136719 98.257812 208.710938 97.984375 207.277344 C 97.707031 205.84375 97.464844 204.40625 97.257812 202.960938 C 97.046875 201.519531 96.875 200.070312 96.734375 198.617188 C 96.597656 197.164062 96.492188 195.710938 96.421875 194.253906 C 96.351562 192.796875 96.316406 191.335938 96.316406 189.878906 Z M 121.746094 148.917969 L 253.96875 148.917969 L 187.855469 267.921875 Z M 86.144531 271.183594 C 77.550781 264.664062 69.566406 250.804688 61.023438 236.441406 C 50.496094 218.40625 38.953125 198.640625 23.695312 189.625 C 37.988281 180.808594 49.480469 161.707031 60.515625 143.265625 C 69.210938 128.644531 77.449219 114.789062 85.941406 108.214844 C 102.367188 95.632812 122.710938 101.441406 131.710938 104.90625 C 129.972656 106.058594 128.269531 107.265625 126.601562 108.523438 C 124.9375 109.78125 123.308594 111.089844 121.722656 112.449219 C 120.136719 113.808594 118.59375 115.214844 117.097656 116.667969 C 115.597656 118.121094 114.144531 119.621094 112.734375 121.164062 C 111.328125 122.707031 109.96875 124.292969 108.660156 125.917969 C 107.351562 127.546875 106.089844 129.210938 104.882812 130.917969 C 103.675781 132.621094 102.523438 134.363281 101.421875 136.136719 C 100.320312 137.914062 99.273438 139.722656 98.285156 141.5625 C 97.296875 143.402344 96.363281 145.273438 95.488281 147.171875 C 94.613281 149.070312 93.796875 150.992188 93.042969 152.941406 C 92.285156 154.886719 91.589844 156.859375 90.953125 158.847656 C 90.320312 160.839844 89.746094 162.847656 89.234375 164.875 C 88.71875 166.902344 88.269531 168.941406 87.882812 170.996094 C 87.496094 173.050781 87.175781 175.113281 86.914062 177.1875 C 86.65625 179.261719 86.457031 181.34375 86.328125 183.429688 C 86.195312 185.515625 86.125 187.605469 86.121094 189.695312 C 86.117188 191.785156 86.179688 193.875 86.304688 195.960938 C 86.429688 198.046875 86.617188 200.128906 86.871094 202.203125 C 87.121094 204.277344 87.4375 206.34375 87.816406 208.398438 C 88.195312 210.453125 88.636719 212.496094 89.144531 214.523438 C 89.648438 216.554688 90.214844 218.5625 90.84375 220.558594 C 91.472656 222.550781 92.160156 224.523438 92.910156 226.472656 C 93.660156 228.425781 94.46875 230.351562 95.335938 232.25 C 96.203125 234.152344 97.128906 236.023438 98.113281 237.867188 C 99.09375 239.714844 100.132812 241.523438 101.226562 243.304688 C 102.324219 245.085938 103.46875 246.828125 104.671875 248.539062 C 105.875 250.246094 107.125 251.917969 108.429688 253.550781 C 109.734375 255.183594 111.085938 256.773438 112.488281 258.320312 C 113.890625 259.871094 115.339844 261.375 116.832031 262.832031 C 118.328125 264.292969 119.863281 265.703125 121.445312 267.066406 C 123.027344 268.433594 124.648438 269.746094 126.308594 271.011719 C 127.972656 272.277344 129.671875 273.488281 131.40625 274.648438 C 122.457031 278.164062 102.367188 283.664062 86.09375 271.234375 Z M 314.484375 237.714844 C 305.992188 252.234375 297.957031 265.9375 289.363281 272.507812 C 272.53125 285.398438 251.527344 278.976562 243.136719 275.515625 C 244.890625 274.382812 246.613281 273.195312 248.296875 271.957031 C 249.980469 270.71875 251.621094 269.425781 253.226562 268.085938 C 254.832031 266.746094 256.390625 265.359375 257.910156 263.921875 C 259.429688 262.484375 260.902344 261 262.328125 259.472656 C 263.757812 257.945312 265.136719 256.375 266.46875 254.761719 C 267.796875 253.148438 269.078125 251.496094 270.308594 249.804688 C 271.539062 248.113281 272.714844 246.386719 273.835938 244.621094 C 274.960938 242.855469 276.027344 241.058594 277.039062 239.226562 C 278.050781 237.398438 279.007812 235.539062 279.90625 233.648438 C 280.804688 231.757812 281.640625 229.84375 282.421875 227.902344 C 283.203125 225.960938 283.921875 224 284.582031 222.011719 C 285.242188 220.027344 285.839844 218.023438 286.375 216 C 286.910156 213.976562 287.386719 211.941406 287.796875 209.890625 C 288.207031 207.835938 288.554688 205.773438 288.839844 203.703125 C 289.121094 201.628906 289.34375 199.546875 289.5 197.460938 C 289.65625 195.375 289.746094 193.285156 289.773438 191.191406 C 289.800781 189.101562 289.765625 187.007812 289.664062 184.917969 C 289.5625 182.828125 289.398438 180.742188 289.167969 178.664062 C 288.9375 176.585938 288.644531 174.511719 288.289062 172.453125 C 287.933594 170.390625 287.511719 168.339844 287.03125 166.304688 C 286.546875 164.269531 286.003906 162.25 285.394531 160.246094 C 284.789062 158.246094 284.121094 156.261719 283.390625 154.300781 C 282.664062 152.339844 281.875 150.402344 281.027344 148.492188 C 280.179688 146.578125 279.273438 144.695312 278.308594 142.835938 C 277.34375 140.980469 276.324219 139.15625 275.25 137.363281 C 274.171875 135.570312 273.042969 133.808594 271.859375 132.085938 C 270.675781 130.363281 269.4375 128.675781 268.152344 127.03125 C 266.863281 125.382812 265.523438 123.777344 264.136719 122.210938 C 262.75 120.644531 261.316406 119.125 259.835938 117.648438 C 258.355469 116.171875 256.832031 114.742188 255.265625 113.359375 C 253.695312 111.976562 252.085938 110.644531 250.4375 109.363281 C 248.785156 108.078125 247.097656 106.847656 245.371094 105.667969 C 254.882812 102.203125 273.800781 97.722656 289.3125 109.539062 C 297.957031 116.164062 306.195312 129.917969 314.738281 144.640625 C 325.773438 163.183594 337.0625 182.1875 351.660156 191 C 336.554688 200.015625 324.960938 219.78125 314.433594 237.765625 Z M 171.480469 175.765625 C 171.480469 175.765625 191.261719 161.960938 204.6875 172.300781 C 218.113281 182.644531 199.960938 196.09375 199.960938 196.09375 C 200.972656 196.359375 201.953125 196.710938 202.902344 197.152344 C 203.851562 197.59375 204.753906 198.117188 205.609375 198.71875 C 206.464844 199.320312 207.261719 199.992188 208 200.734375 C 208.738281 201.476562 209.402344 202.28125 210 203.144531 C 210.59375 204.003906 211.105469 204.914062 211.539062 205.867188 C 211.972656 206.820312 212.320312 207.804688 212.578125 208.820312 C 212.835938 209.835938 213.003906 210.867188 213.082031 211.914062 C 213.15625 212.957031 213.140625 214 213.027344 215.042969 C 212.996094 215.730469 212.925781 216.410156 212.820312 217.089844 C 212.714844 217.765625 212.578125 218.4375 212.402344 219.101562 C 212.230469 219.765625 212.019531 220.417969 211.78125 221.058594 C 211.539062 221.699219 211.265625 222.328125 210.957031 222.941406 C 210.652344 223.554688 210.3125 224.152344 209.945312 224.730469 C 209.578125 225.308594 209.179688 225.867188 208.753906 226.402344 C 208.328125 226.941406 207.878906 227.457031 207.398438 227.945312 C 206.921875 228.4375 206.417969 228.902344 205.890625 229.339844 C 205.363281 229.777344 204.816406 230.1875 204.246094 230.566406 C 203.675781 230.949219 203.089844 231.300781 202.484375 231.621094 C 201.878906 231.941406 201.257812 232.230469 200.621094 232.484375 C 199.988281 232.742188 199.339844 232.964844 198.683594 233.152344 C 198.023438 233.339844 197.359375 233.496094 196.683594 233.617188 C 196.007812 233.734375 195.332031 233.820312 194.648438 233.871094 C 193.964844 233.917969 193.28125 233.933594 192.597656 233.910156 C 191.910156 233.890625 191.230469 233.832031 190.550781 233.742188 C 182.566406 233.128906 161.664062 228.644531 163.292969 196.960938 C 163.292969 196.960938 168.378906 224.367188 190.398438 221.769531 C 212.417969 219.171875 203.824219 198.335938 189.179688 203.582031 C 189.179688 203.582031 185.414062 202.105469 183.328125 191.761719 C 183.328125 191.761719 203.113281 192.527344 201.230469 182.03125 C 199.960938 175.054688 179.71875 181.523438 178.195312 185.496094 Z M 179.3125 154.320312 C 180.007812 155.304688 180.808594 156.183594 181.726562 156.964844 C 182.640625 157.746094 183.636719 158.402344 184.71875 158.933594 C 185.796875 159.460938 186.925781 159.847656 188.101562 160.09375 C 189.28125 160.339844 190.46875 160.4375 191.671875 160.382812 C 192.828125 160.46875 193.980469 160.394531 195.117188 160.160156 C 196.257812 159.929688 197.34375 159.542969 198.375 159.007812 C 199.40625 158.472656 200.347656 157.808594 201.195312 157.011719 C 202.042969 156.214844 202.765625 155.316406 203.367188 154.320312 C 203.367188 155.082031 203.292969 155.835938 203.140625 156.582031 C 202.992188 157.332031 202.765625 158.054688 202.472656 158.757812 C 202.175781 159.460938 201.8125 160.125 201.382812 160.757812 C 200.957031 161.386719 200.46875 161.964844 199.921875 162.5 C 199.378906 163.03125 198.785156 163.503906 198.144531 163.914062 C 197.507812 164.328125 196.832031 164.675781 196.125 164.953125 C 195.414062 165.230469 194.683594 165.433594 193.9375 165.566406 C 193.1875 165.695312 192.429688 165.75 191.671875 165.730469 C 190.894531 165.742188 190.125 165.679688 189.363281 165.546875 C 188.601562 165.410156 187.859375 165.203125 187.132812 164.925781 C 186.410156 164.648438 185.71875 164.308594 185.058594 163.898438 C 184.402344 163.488281 183.789062 163.023438 183.21875 162.496094 C 182.648438 161.96875 182.132812 161.394531 181.671875 160.769531 C 181.210938 160.144531 180.816406 159.484375 180.480469 158.785156 C 180.148438 158.082031 179.882812 157.359375 179.683594 156.605469 C 179.488281 155.855469 179.363281 155.09375 179.3125 154.320312 Z M 195.636719 153.65625 C 195.640625 153.921875 195.617188 154.1875 195.570312 154.449219 C 195.519531 154.707031 195.445312 154.960938 195.347656 155.210938 C 195.25 155.457031 195.125 155.691406 194.980469 155.914062 C 194.835938 156.132812 194.671875 156.339844 194.484375 156.53125 C 194.296875 156.71875 194.09375 156.886719 193.875 157.039062 C 193.65625 157.1875 193.425781 157.3125 193.179688 157.417969 C 192.9375 157.519531 192.683594 157.597656 192.425781 157.652344 C 192.164062 157.703125 191.902344 157.730469 191.636719 157.734375 C 191.371094 157.734375 191.109375 157.707031 190.847656 157.65625 C 190.585938 157.605469 190.335938 157.53125 190.089844 157.429688 C 189.84375 157.328125 189.613281 157.203125 189.390625 157.054688 C 189.171875 156.910156 188.964844 156.742188 188.777344 156.554688 C 188.589844 156.367188 188.425781 156.160156 188.277344 155.941406 C 188.128906 155.71875 188.003906 155.484375 187.90625 155.242188 C 187.804688 154.996094 187.726562 154.742188 187.675781 154.480469 C 187.625 154.21875 187.601562 153.957031 187.601562 153.691406 C 187.601562 153.425781 187.628906 153.164062 187.683594 152.902344 C 187.738281 152.640625 187.816406 152.390625 187.917969 152.144531 C 188.019531 151.898438 188.148438 151.667969 188.296875 151.449219 C 188.445312 151.226562 188.613281 151.023438 188.800781 150.839844 C 188.992188 150.652344 189.195312 150.484375 189.417969 150.339844 C 189.640625 150.195312 189.875 150.074219 190.121094 149.972656 C 190.367188 149.875 190.621094 149.800781 190.882812 149.75 C 191.140625 149.703125 191.40625 149.679688 191.671875 149.683594 C 191.929688 149.683594 192.1875 149.710938 192.445312 149.761719 C 192.699219 149.8125 192.949219 149.886719 193.1875 149.984375 C 193.429688 150.085938 193.65625 150.207031 193.875 150.351562 C 194.089844 150.5 194.289062 150.664062 194.476562 150.847656 C 194.660156 151.03125 194.824219 151.234375 194.96875 151.449219 C 195.113281 151.667969 195.234375 151.894531 195.335938 152.136719 C 195.433594 152.378906 195.507812 152.625 195.5625 152.882812 C 195.613281 153.136719 195.636719 153.394531 195.636719 153.65625 Z M 195.636719 153.65625 " fill-opacity="1" fill-rule="nonzero"/></svg>