<svg xmlns="http://www.w3.org/2000/svg" xmlns:xlink="http://www.w3.org/1999/xlink" width="500" zoomAndPan="magnify" viewBox="0 0 375 374.999991" height="500" preserveAspectRatio="xMidYMid meet" version="1.0"><defs><clipPath id="92fc9bf999"><path d="M 8.203125 0 L 366.703125 0 L 366.703125 375 L 8.203125 375 Z M 8.203125 0 " clip-rule="nonzero"/></clipPath></defs><g clip-path="url(#92fc9bf999)"><path fill="#e2d531" d="M 341.769531 181.957031 C 345.769531 175.703125 348.523438 168.941406 350.023438 161.671875 C 352.90625 151.363281 355.84375 140.667969 362.824219 138.394531 C 363.203125 138.269531 363.5625 138.105469 363.90625 137.902344 C 364.25 137.699219 364.566406 137.464844 364.859375 137.191406 C 365.152344 136.921875 365.410156 136.621094 365.640625 136.292969 C 365.867188 135.96875 366.058594 135.621094 366.210938 135.25 C 366.363281 134.882812 366.472656 134.503906 366.542969 134.109375 C 366.613281 133.71875 366.644531 133.324219 366.628906 132.925781 C 366.613281 132.527344 366.554688 132.132812 366.457031 131.746094 C 366.355469 131.363281 366.21875 130.992188 366.039062 130.636719 C 365.738281 130.046875 365.347656 129.527344 364.867188 129.078125 C 364.382812 128.625 363.835938 128.273438 363.226562 128.019531 C 362.617188 127.765625 361.980469 127.625 361.320312 127.597656 C 360.660156 127.574219 360.015625 127.660156 359.390625 127.863281 C 352.738281 129.96875 343.984375 123.152344 335.5625 116.777344 C 330.011719 111.765625 323.75 107.902344 316.777344 105.195312 C 313.136719 104.1875 309.441406 103.949219 305.695312 104.476562 C 307.714844 100.796875 308.804688 96.863281 308.964844 92.667969 C 308.535156 85.265625 306.777344 78.191406 303.703125 71.441406 C 299.988281 61.410156 296.113281 50.992188 300.378906 45.117188 C 300.769531 44.582031 301.058594 43.996094 301.238281 43.359375 C 301.421875 42.71875 301.488281 42.070312 301.4375 41.410156 C 301.386719 40.75 301.222656 40.117188 300.945312 39.515625 C 300.667969 38.914062 300.292969 38.378906 299.824219 37.910156 C 299.246094 37.332031 298.578125 36.90625 297.8125 36.625 C 297.046875 36.34375 296.257812 36.234375 295.445312 36.304688 C 294.636719 36.367188 293.882812 36.597656 293.175781 36.996094 C 292.46875 37.390625 291.878906 37.917969 291.402344 38.574219 C 287.300781 44.117188 276.21875 43.785156 265.523438 43.453125 C 258.035156 42.652344 250.648438 43.203125 243.363281 45.117188 C 239.804688 46.40625 236.683594 48.382812 233.996094 51.046875 C 233.4375 46.890625 231.996094 43.066406 229.675781 39.574219 C 225.015625 33.839844 219.472656 29.148438 213.050781 25.496094 C 204.1875 19.34375 194.933594 13.46875 194.933594 5.875 C 194.933594 5.511719 194.898438 5.152344 194.828125 4.792969 C 194.757812 4.4375 194.652344 4.089844 194.511719 3.753906 C 194.371094 3.417969 194.203125 3.097656 194 2.796875 C 193.796875 2.492188 193.566406 2.214844 193.308594 1.957031 C 193.054688 1.699219 192.773438 1.46875 192.472656 1.265625 C 192.167969 1.066406 191.847656 0.894531 191.511719 0.753906 C 191.175781 0.617188 190.832031 0.511719 190.472656 0.4375 C 190.117188 0.367188 189.757812 0.332031 189.390625 0.332031 C 189.027344 0.332031 188.667969 0.367188 188.3125 0.4375 C 187.953125 0.511719 187.609375 0.617188 187.273438 0.753906 C 186.9375 0.894531 186.617188 1.066406 186.3125 1.265625 C 186.011719 1.46875 185.730469 1.699219 185.472656 1.957031 C 185.21875 2.214844 184.988281 2.492188 184.785156 2.796875 C 184.582031 3.097656 184.414062 3.417969 184.273438 3.753906 C 184.132812 4.089844 184.027344 4.4375 183.957031 4.792969 C 183.886719 5.152344 183.851562 5.511719 183.851562 5.875 C 183.851562 12.859375 174.652344 19.066406 165.734375 25.050781 C 159.332031 28.816406 153.789062 33.582031 149.109375 39.351562 C 146.996094 42.492188 145.628906 45.925781 145.007812 49.660156 C 142.125 46.597656 138.707031 44.34375 134.757812 42.898438 C 127.550781 40.945312 120.238281 40.371094 112.816406 41.179688 C 102.066406 41.625 90.984375 42.066406 86.71875 36.191406 C 86.503906 35.898438 86.261719 35.628906 85.996094 35.378906 C 85.726562 35.132812 85.4375 34.914062 85.125 34.726562 C 84.816406 34.535156 84.488281 34.378906 84.144531 34.253906 C 83.804688 34.128906 83.453125 34.035156 83.09375 33.980469 C 82.734375 33.921875 82.371094 33.902344 82.007812 33.917969 C 81.644531 33.933594 81.285156 33.984375 80.929688 34.066406 C 80.574219 34.152344 80.234375 34.273438 79.902344 34.425781 C 79.570312 34.578125 79.257812 34.761719 78.964844 34.976562 C 78.671875 35.191406 78.398438 35.433594 78.152344 35.703125 C 77.90625 35.96875 77.6875 36.257812 77.496094 36.570312 C 77.304688 36.878906 77.148438 37.207031 77.023438 37.550781 C 76.898438 37.890625 76.804688 38.242188 76.75 38.601562 C 76.691406 38.960938 76.671875 39.324219 76.683594 39.6875 C 76.699219 40.050781 76.75 40.410156 76.835938 40.765625 C 76.921875 41.121094 77.039062 41.460938 77.191406 41.792969 C 77.34375 42.125 77.527344 42.4375 77.742188 42.730469 C 81.84375 48.273438 77.742188 58.804688 74.363281 68.890625 C 71.332031 75.707031 69.59375 82.839844 69.152344 90.285156 C 69.3125 94.058594 70.21875 97.644531 71.867188 101.039062 C 67.761719 100.28125 63.699219 100.464844 59.679688 101.59375 C 52.75 104.292969 46.5625 108.171875 41.117188 113.230469 C 32.695312 119.882812 24.050781 126.753906 17.070312 124.316406 C 16.441406 124.113281 15.796875 124.023438 15.136719 124.050781 C 14.476562 124.078125 13.84375 124.21875 13.234375 124.472656 C 12.621094 124.726562 12.078125 125.078125 11.59375 125.53125 C 11.109375 125.980469 10.71875 126.5 10.417969 127.085938 C 10.078125 127.824219 9.90625 128.601562 9.90625 129.414062 C 9.90625 130.230469 10.078125 131.003906 10.417969 131.742188 C 10.730469 132.480469 11.183594 133.121094 11.773438 133.660156 C 12.363281 134.203125 13.039062 134.597656 13.800781 134.847656 C 20.449219 137.007812 23.496094 147.707031 26.433594 158.015625 C 27.988281 165.328125 30.796875 172.128906 34.855469 178.410156 C 37.199219 181.363281 40.046875 183.707031 43.386719 185.449219 C 39.59375 187.25 36.398438 189.800781 33.800781 193.097656 C 29.703125 199.441406 26.894531 206.316406 25.378906 213.714844 C 22.5 224.023438 19.507812 234.722656 12.582031 236.992188 C 11.933594 237.203125 11.347656 237.523438 10.816406 237.949219 C 10.289062 238.378906 9.851562 238.886719 9.511719 239.472656 C 9.167969 240.0625 8.941406 240.691406 8.832031 241.359375 C 8.71875 242.03125 8.734375 242.699219 8.867188 243.367188 C 9.023438 244.148438 9.332031 244.863281 9.796875 245.511719 C 10.261719 246.160156 10.839844 246.683594 11.527344 247.082031 C 12.207031 247.480469 12.9375 247.722656 13.71875 247.808594 C 14.5 247.894531 15.265625 247.820312 16.015625 247.578125 C 22.664062 245.417969 31.417969 252.234375 39.84375 258.664062 C 45.394531 263.679688 51.652344 267.539062 58.625 270.25 C 61 270.925781 63.417969 271.257812 65.882812 271.246094 C 67.167969 271.222656 68.441406 271.113281 69.707031 270.914062 C 67.683594 274.609375 66.59375 278.5625 66.4375 282.773438 C 66.960938 290.195312 68.804688 297.273438 71.980469 304 C 75.691406 314.03125 79.570312 324.453125 75.304688 330.382812 C 75 330.796875 74.761719 331.242188 74.582031 331.722656 C 74.40625 332.203125 74.296875 332.699219 74.253906 333.210938 C 74.214844 333.722656 74.242188 334.226562 74.34375 334.730469 C 74.441406 335.234375 74.609375 335.710938 74.839844 336.167969 C 75.074219 336.625 75.363281 337.042969 75.710938 337.417969 C 76.058594 337.792969 76.453125 338.117188 76.890625 338.382812 C 77.324219 338.648438 77.789062 338.851562 78.285156 338.992188 C 78.777344 339.128906 79.28125 339.195312 79.792969 339.195312 L 80.234375 339.195312 C 81.042969 339.132812 81.800781 338.898438 82.507812 338.503906 C 83.214844 338.105469 83.804688 337.578125 84.28125 336.921875 C 88.324219 331.378906 99.460938 331.65625 110.15625 332.046875 C 117.644531 332.847656 125.035156 332.292969 132.320312 330.382812 C 135.867188 329.078125 138.988281 327.101562 141.683594 324.453125 C 142.246094 328.609375 143.6875 332.433594 146.007812 335.925781 C 150.652344 341.675781 156.195312 346.367188 162.628906 350.003906 C 171.550781 355.988281 180.804688 362.085938 180.804688 369.402344 C 180.804688 369.765625 180.839844 370.125 180.910156 370.484375 C 180.980469 370.839844 181.085938 371.1875 181.226562 371.523438 C 181.363281 371.859375 181.535156 372.179688 181.738281 372.480469 C 181.941406 372.785156 182.167969 373.0625 182.425781 373.320312 C 182.683594 373.578125 182.964844 373.808594 183.265625 374.011719 C 183.570312 374.210938 183.886719 374.382812 184.222656 374.523438 C 184.5625 374.660156 184.90625 374.765625 185.265625 374.835938 C 185.621094 374.910156 185.980469 374.945312 186.34375 374.945312 C 186.707031 374.945312 187.070312 374.910156 187.425781 374.835938 C 187.78125 374.765625 188.128906 374.660156 188.464844 374.523438 C 188.800781 374.382812 189.121094 374.210938 189.421875 374.011719 C 189.726562 373.808594 190.003906 373.578125 190.261719 373.320312 C 190.519531 373.0625 190.75 372.785156 190.953125 372.480469 C 191.152344 372.179688 191.324219 371.859375 191.464844 371.523438 C 191.601562 371.1875 191.707031 370.839844 191.78125 370.484375 C 191.851562 370.125 191.886719 369.765625 191.886719 369.402344 C 191.886719 362.417969 201.082031 356.210938 210.003906 350.226562 C 216.394531 346.445312 221.9375 341.679688 226.628906 335.925781 C 228.738281 332.785156 230.105469 329.351562 230.726562 325.617188 C 233.601562 328.664062 237 330.917969 240.921875 332.378906 C 248.101562 334.28125 255.378906 334.796875 262.753906 333.929688 C 273.449219 333.488281 284.53125 333.042969 288.851562 338.917969 C 289.289062 339.519531 289.824219 340.007812 290.457031 340.394531 C 291.09375 340.777344 291.777344 341.027344 292.507812 341.136719 L 293.339844 341.136719 C 293.582031 341.113281 293.820312 341.078125 294.054688 341.027344 C 294.289062 340.976562 294.519531 340.910156 294.746094 340.828125 C 294.972656 340.746094 295.191406 340.648438 295.40625 340.539062 C 295.621094 340.425781 295.828125 340.304688 296.023438 340.167969 C 296.222656 340.027344 296.410156 339.878906 296.589844 339.71875 C 296.765625 339.554688 296.933594 339.382812 297.089844 339.199219 C 297.246094 339.015625 297.390625 338.820312 297.519531 338.621094 C 297.652344 338.417969 297.765625 338.207031 297.871094 337.988281 C 297.972656 337.769531 298.0625 337.546875 298.136719 337.320312 C 298.210938 337.089844 298.269531 336.855469 298.3125 336.621094 C 298.355469 336.382812 298.386719 336.144531 298.398438 335.902344 C 298.410156 335.664062 298.40625 335.421875 298.386719 335.183594 C 298.371094 334.941406 298.335938 334.703125 298.285156 334.46875 C 298.234375 334.230469 298.171875 334 298.089844 333.773438 C 298.011719 333.546875 297.917969 333.324219 297.808594 333.109375 C 297.699219 332.894531 297.578125 332.6875 297.441406 332.488281 C 293.339844 326.945312 297.109375 316.472656 300.820312 306.382812 C 303.917969 299.601562 305.710938 292.488281 306.195312 285.046875 C 306.132812 281.144531 305.226562 277.449219 303.480469 273.960938 C 305.128906 274.25 306.792969 274.398438 308.46875 274.40625 C 310.933594 274.417969 313.355469 274.085938 315.726562 273.40625 C 322.632812 270.726562 328.820312 266.882812 334.289062 261.878906 C 342.710938 255.171875 351.355469 248.300781 358.335938 250.792969 C 359.066406 251.027344 359.808594 251.101562 360.570312 251.027344 C 361.332031 250.949219 362.046875 250.722656 362.714844 250.351562 C 363.382812 249.964844 363.953125 249.464844 364.425781 248.847656 C 364.894531 248.234375 365.230469 247.550781 365.429688 246.804688 C 365.511719 246.46875 365.5625 246.125 365.582031 245.78125 C 365.601562 245.433594 365.585938 245.089844 365.542969 244.746094 C 365.496094 244.402344 365.417969 244.066406 365.308594 243.734375 C 365.203125 243.40625 365.0625 243.089844 364.894531 242.789062 C 364.726562 242.484375 364.53125 242.199219 364.308594 241.933594 C 364.089844 241.667969 363.84375 241.421875 363.578125 241.203125 C 363.308594 240.980469 363.023438 240.789062 362.722656 240.621094 C 362.417969 240.453125 362.101562 240.316406 361.773438 240.207031 C 355.121094 238.046875 352.074219 227.40625 349.082031 217.097656 C 347.554688 209.78125 344.765625 202.980469 340.714844 196.699219 C 338.386719 193.703125 335.542969 191.320312 332.183594 189.550781 C 335.972656 187.769531 339.167969 185.238281 341.769531 181.957031 Z M 190.722656 301.671875 L 284.917969 132.519531 C 287.320312 136.730469 289.445312 141.082031 291.285156 145.566406 C 293.128906 150.054688 294.671875 154.640625 295.921875 159.324219 C 297.167969 164.011719 298.109375 168.757812 298.746094 173.566406 C 299.378906 178.375 299.703125 183.203125 299.714844 188.054688 C 299.714844 189.867188 299.671875 191.675781 299.585938 193.488281 C 299.5 195.296875 299.371094 197.105469 299.199219 198.910156 C 299.023438 200.714844 298.808594 202.511719 298.550781 204.304688 C 298.292969 206.101562 297.992188 207.886719 297.648438 209.664062 C 297.304688 211.445312 296.917969 213.214844 296.488281 214.976562 C 296.0625 216.738281 295.589844 218.484375 295.078125 220.222656 C 294.566406 221.960938 294.011719 223.6875 293.417969 225.398438 C 292.824219 227.113281 292.1875 228.808594 291.511719 230.488281 C 290.835938 232.171875 290.121094 233.835938 289.367188 235.484375 C 288.613281 237.128906 287.816406 238.757812 286.984375 240.367188 C 286.152344 241.976562 285.28125 243.566406 284.371094 245.132812 C 283.460938 246.699219 282.515625 248.246094 281.53125 249.769531 C 280.550781 251.289062 279.53125 252.789062 278.476562 254.261719 C 277.421875 255.734375 276.332031 257.183594 275.207031 258.605469 C 274.085938 260.027344 272.925781 261.417969 271.738281 262.785156 C 270.546875 264.152344 269.324219 265.488281 268.070312 266.796875 C 266.816406 268.105469 265.53125 269.382812 264.214844 270.628906 C 262.898438 271.875 261.554688 273.085938 260.183594 274.269531 C 258.808594 275.453125 257.40625 276.601562 255.980469 277.714844 C 254.550781 278.828125 253.097656 279.910156 251.617188 280.953125 C 250.136719 282 248.632812 283.007812 247.105469 283.984375 C 245.574219 284.957031 244.023438 285.890625 242.453125 286.792969 C 240.878906 287.691406 239.285156 288.550781 237.671875 289.375 C 236.058594 290.199219 234.421875 290.980469 232.773438 291.726562 C 231.121094 292.46875 229.453125 293.175781 227.765625 293.839844 C 226.082031 294.503906 224.378906 295.128906 222.664062 295.714844 C 220.949219 296.296875 219.222656 296.839844 217.480469 297.339844 C 215.738281 297.839844 213.988281 298.300781 212.222656 298.71875 C 210.460938 299.132812 208.6875 299.507812 206.90625 299.839844 C 205.125 300.171875 203.339844 300.464844 201.542969 300.710938 C 199.75 300.957031 197.949219 301.160156 196.144531 301.320312 C 194.339844 301.480469 192.53125 301.597656 190.722656 301.671875 Z M 72.476562 188.054688 C 72.476562 183.1875 72.785156 178.339844 73.410156 173.511719 C 74.035156 168.6875 74.972656 163.921875 76.214844 159.214844 C 77.460938 154.511719 79 149.90625 80.84375 145.398438 C 82.683594 140.894531 84.808594 136.527344 87.21875 132.296875 L 181.46875 301.671875 C 179.660156 301.597656 177.851562 301.480469 176.046875 301.320312 C 174.242188 301.160156 172.441406 300.957031 170.648438 300.710938 C 168.851562 300.464844 167.0625 300.171875 165.285156 299.839844 C 163.503906 299.507812 161.730469 299.132812 159.96875 298.71875 C 158.203125 298.300781 156.453125 297.839844 154.710938 297.339844 C 152.96875 296.839844 151.242188 296.296875 149.527344 295.714844 C 147.8125 295.128906 146.109375 294.503906 144.425781 293.839844 C 142.738281 293.175781 141.070312 292.46875 139.417969 291.726562 C 137.765625 290.980469 136.132812 290.199219 134.519531 289.375 C 132.90625 288.550781 131.3125 287.691406 129.738281 286.792969 C 128.167969 285.890625 126.617188 284.957031 125.085938 283.984375 C 123.558594 283.007812 122.054688 282 120.574219 280.953125 C 119.09375 279.910156 117.640625 278.828125 116.210938 277.714844 C 114.785156 276.601562 113.382812 275.453125 112.007812 274.269531 C 110.636719 273.085938 109.292969 271.875 107.976562 270.628906 C 106.660156 269.382812 105.375 268.105469 104.121094 266.796875 C 102.867188 265.488281 101.644531 264.152344 100.453125 262.785156 C 99.261719 261.421875 98.105469 260.027344 96.984375 258.605469 C 95.859375 257.183594 94.769531 255.734375 93.714844 254.261719 C 92.660156 252.789062 91.640625 251.289062 90.660156 249.769531 C 89.675781 248.246094 88.730469 246.699219 87.820312 245.132812 C 86.910156 243.566406 86.039062 241.976562 85.207031 240.367188 C 84.375 238.757812 83.578125 237.128906 82.824219 235.484375 C 82.070312 233.835938 81.355469 232.171875 80.679688 230.488281 C 80.003906 228.808594 79.367188 227.113281 78.773438 225.398438 C 78.179688 223.6875 77.625 221.964844 77.113281 220.222656 C 76.601562 218.484375 76.128906 216.738281 75.703125 214.976562 C 75.273438 213.214844 74.886719 211.445312 74.542969 209.664062 C 74.199219 207.886719 73.898438 206.101562 73.640625 204.304688 C 73.382812 202.511719 73.167969 200.714844 72.992188 198.910156 C 72.820312 197.105469 72.691406 195.296875 72.605469 193.488281 C 72.519531 191.675781 72.476562 189.867188 72.476562 188.054688 Z M 186.066406 74.433594 C 190.738281 74.429688 195.394531 74.710938 200.03125 75.277344 C 204.667969 75.847656 209.25 76.699219 213.78125 77.832031 C 218.3125 78.964844 222.757812 80.375 227.117188 82.058594 C 231.472656 83.742188 235.710938 85.6875 239.832031 87.894531 C 243.949219 90.097656 247.914062 92.550781 251.730469 95.246094 C 255.546875 97.941406 259.179688 100.863281 262.636719 104.007812 C 266.089844 107.152344 269.339844 110.5 272.378906 114.042969 C 275.421875 117.589844 278.234375 121.308594 280.816406 125.203125 L 91.539062 125.203125 C 94.117188 121.316406 96.921875 117.601562 99.957031 114.0625 C 102.992188 110.523438 106.230469 107.183594 109.679688 104.039062 C 113.125 100.898438 116.75 97.980469 120.554688 95.289062 C 124.363281 92.59375 128.320312 90.144531 132.425781 87.9375 C 136.535156 85.730469 140.761719 83.785156 145.109375 82.101562 C 149.457031 80.417969 153.890625 79.003906 158.410156 77.867188 C 162.933594 76.730469 167.507812 75.871094 172.132812 75.296875 C 176.761719 74.722656 181.40625 74.4375 186.066406 74.433594 Z M 102.121094 136.289062 L 270.070312 136.289062 L 186.066406 286.984375 Z M 247.574219 55.3125 C 253.46875 54.035156 259.414062 53.699219 265.414062 54.316406 C 272.855469 54.878906 280.242188 54.472656 287.578125 53.097656 C 288.433594 60.777344 290.390625 68.167969 293.453125 75.265625 C 295.898438 80.667969 297.414062 86.324219 297.996094 92.226562 C 297.605469 102.8125 286.082031 109.296875 285.972656 109.351562 C 285.195312 109.765625 284.570312 110.335938 284.085938 111.070312 C 280.808594 106.929688 277.285156 103.011719 273.511719 99.316406 C 269.742188 95.625 265.753906 92.179688 261.546875 88.988281 C 257.34375 85.792969 252.953125 82.878906 248.378906 80.238281 C 243.808594 77.601562 239.085938 75.257812 234.21875 73.214844 C 234.378906 72.894531 234.507812 72.5625 234.605469 72.21875 C 234.605469 72.21875 237.378906 58.972656 247.574219 55.3125 Z M 158.140625 45.558594 C 162.152344 41.132812 166.753906 37.4375 171.9375 34.472656 C 178.382812 30.492188 184.164062 25.707031 189.28125 20.121094 C 194.480469 25.78125 200.390625 30.566406 207.011719 34.472656 C 212.15625 37.433594 216.699219 41.128906 220.644531 45.558594 C 226.574219 54.316406 221.03125 66.34375 220.976562 66.453125 C 220.714844 67.015625 220.570312 67.609375 220.53125 68.226562 C 209.277344 64.976562 197.789062 63.351562 186.066406 63.351562 C 176.539062 63.335938 167.136719 64.425781 157.863281 66.621094 C 157.863281 66.621094 152.210938 54.316406 158.140625 45.558594 Z M 84.777344 72.828125 C 87.601562 65.871094 89.449219 58.667969 90.320312 51.210938 C 97.832031 52.71875 105.40625 53.125 113.039062 52.429688 C 118.941406 51.785156 124.796875 52.082031 130.601562 53.316406 C 140.578125 56.976562 143.125 69.945312 143.125 69.945312 C 143.203125 70.199219 143.3125 70.441406 143.457031 70.667969 C 138.441406 72.492188 133.558594 74.628906 128.816406 77.082031 C 124.074219 79.535156 119.507812 82.28125 115.117188 85.320312 C 110.730469 88.359375 106.550781 91.667969 102.585938 95.246094 C 98.621094 98.820312 94.902344 102.636719 91.429688 106.691406 C 89.90625 105.832031 88.503906 104.808594 87.214844 103.628906 C 85.929688 102.449219 84.789062 101.136719 83.800781 99.695312 C 82.8125 98.253906 82 96.722656 81.359375 95.097656 C 80.71875 93.46875 80.269531 91.792969 80.015625 90.066406 C 80.667969 84.0625 82.257812 78.316406 84.777344 72.828125 Z M 37.015625 155.296875 C 35.28125 147.960938 32.585938 140.996094 28.925781 134.402344 C 35.933594 131.214844 42.324219 127.078125 48.097656 121.988281 C 52.496094 118.015625 57.410156 114.835938 62.835938 112.457031 C 72.867188 109.519531 82.285156 118 82.730469 118.496094 C 79.726562 122.960938 77.027344 127.601562 74.625 132.414062 C 72.226562 137.230469 70.144531 142.179688 68.386719 147.261719 C 66.628906 152.347656 65.207031 157.523438 64.121094 162.792969 C 63.035156 168.0625 62.292969 173.378906 61.894531 178.742188 C 60.199219 178.914062 58.507812 178.894531 56.820312 178.675781 C 55.132812 178.457031 53.488281 178.050781 51.894531 177.457031 C 50.300781 176.859375 48.792969 176.089844 47.375 175.148438 C 45.957031 174.203125 44.664062 173.113281 43.5 171.871094 C 40.441406 166.699219 38.277344 161.175781 37.015625 155.296875 Z M 61.730469 259.773438 C 56.214844 257.347656 51.210938 254.132812 46.710938 250.128906 C 41.019531 245.1875 34.757812 241.125 27.929688 237.9375 C 31.710938 231.265625 34.445312 224.191406 36.128906 216.707031 C 37.308594 210.824219 39.394531 205.28125 42.390625 200.082031 C 43.625 198.816406 44.988281 197.707031 46.480469 196.757812 C 47.96875 195.804688 49.546875 195.03125 51.214844 194.441406 C 52.878906 193.851562 54.589844 193.457031 56.347656 193.257812 C 58.105469 193.058594 59.863281 193.058594 61.617188 193.265625 C 61.84375 198.652344 62.417969 204 63.339844 209.3125 C 64.265625 214.625 65.53125 219.855469 67.140625 225 C 68.75 230.148438 70.6875 235.167969 72.953125 240.058594 C 75.21875 244.953125 77.792969 249.675781 80.679688 254.230469 C 79.410156 255.386719 78.027344 256.386719 76.53125 257.226562 C 75.035156 258.066406 73.464844 258.726562 71.820312 259.207031 C 70.171875 259.6875 68.492188 259.972656 66.777344 260.070312 C 65.066406 260.164062 63.363281 260.066406 61.671875 259.773438 Z M 128.21875 320.074219 C 122.347656 321.386719 116.417969 321.71875 110.433594 321.070312 C 102.988281 320.5 95.601562 320.925781 88.269531 322.347656 C 87.417969 314.664062 85.457031 307.273438 82.398438 300.175781 C 79.945312 294.773438 78.429688 289.121094 77.851562 283.21875 C 78.132812 281.476562 78.601562 279.792969 79.265625 278.160156 C 79.925781 276.53125 80.765625 274.992188 81.777344 273.550781 C 82.792969 272.113281 83.953125 270.804688 85.265625 269.628906 C 86.574219 268.453125 88.003906 267.441406 89.542969 266.589844 C 92.914062 270.769531 96.539062 274.714844 100.421875 278.421875 C 104.300781 282.132812 108.402344 285.578125 112.726562 288.757812 C 117.050781 291.9375 121.5625 294.828125 126.261719 297.425781 C 130.960938 300.023438 135.804688 302.308594 140.796875 304.277344 C 140.414062 305.996094 139.835938 307.648438 139.074219 309.230469 C 138.308594 310.816406 137.371094 312.292969 136.265625 313.664062 C 135.164062 315.03125 133.917969 316.257812 132.53125 317.339844 C 131.140625 318.425781 129.652344 319.335938 128.054688 320.074219 Z M 217.429688 329.828125 C 213.417969 334.253906 208.820312 337.949219 203.632812 340.914062 C 197.191406 344.8125 191.410156 349.523438 186.289062 355.046875 C 181.089844 349.382812 175.179688 344.597656 168.558594 340.691406 C 163.402344 337.75 158.859375 334.054688 154.925781 329.605469 C 149 320.851562 154.539062 308.824219 154.59375 308.710938 C 154.652344 308.601562 154.59375 308.710938 154.59375 308.710938 C 164.949219 311.429688 175.476562 312.777344 186.179688 312.757812 C 196.839844 312.765625 207.328125 311.433594 217.652344 308.769531 C 217.652344 308.769531 223.191406 321.070312 217.261719 329.828125 Z M 290.792969 302.558594 C 287.9375 309.527344 286.089844 316.75 285.25 324.230469 C 277.738281 322.707031 270.167969 322.285156 262.53125 322.957031 C 256.628906 323.65625 250.773438 323.363281 244.96875 322.070312 C 234.996094 318.46875 232.445312 305.441406 232.390625 305.441406 C 232.300781 305.03125 232.152344 304.644531 231.945312 304.277344 C 236.851562 302.339844 241.613281 300.101562 246.238281 297.566406 C 250.863281 295.03125 255.308594 292.214844 259.578125 289.121094 C 263.847656 286.027344 267.910156 282.679688 271.761719 279.078125 C 275.609375 275.472656 279.222656 271.644531 282.589844 267.585938 C 282.863281 267.859375 283.15625 268.097656 283.476562 268.308594 C 283.476562 268.308594 295.167969 274.902344 295.558594 285.433594 C 294.789062 291.394531 293.148438 297.105469 290.625 302.558594 Z M 346.535156 240.984375 C 339.546875 244.175781 333.175781 248.3125 327.417969 253.398438 C 323 257.328125 318.085938 260.488281 312.679688 262.875 C 302.484375 265.8125 292.785156 256.78125 292.675781 256.726562 C 292.148438 256.195312 291.539062 255.789062 290.847656 255.503906 C 293.691406 251.105469 296.25 246.539062 298.519531 241.816406 C 300.785156 237.089844 302.746094 232.242188 304.402344 227.265625 C 306.054688 222.292969 307.390625 217.234375 308.40625 212.09375 C 309.417969 206.949219 310.105469 201.761719 310.460938 196.535156 C 311.035156 196.617188 311.609375 196.617188 312.179688 196.535156 C 312.179688 196.535156 325.476562 194.925781 332.015625 203.296875 C 335.0625 208.488281 337.203125 214.03125 338.445312 219.921875 C 340.148438 227.324219 342.847656 234.34375 346.535156 240.984375 Z M 313.289062 181.902344 C 312.390625 181.785156 311.523438 181.898438 310.683594 182.234375 C 310.445312 176.992188 309.875 171.78125 308.976562 166.613281 C 308.074219 161.441406 306.851562 156.347656 305.304688 151.328125 C 303.757812 146.3125 301.898438 141.414062 299.730469 136.636719 C 297.5625 131.855469 295.097656 127.230469 292.34375 122.765625 C 292.859375 122.503906 293.335938 122.1875 293.785156 121.824219 C 293.785156 121.824219 303.648438 112.734375 313.785156 115.671875 C 319.3125 118.074219 324.316406 121.289062 328.804688 125.3125 C 334.421875 130.195312 340.59375 134.242188 347.308594 137.453125 C 343.527344 144.121094 340.792969 151.199219 339.109375 158.679688 C 337.941406 164.570312 335.855469 170.109375 332.847656 175.308594 C 326.53125 183.453125 313.34375 181.902344 313.234375 181.902344 Z M 155.425781 172.921875 L 217.871094 172.921875 L 223.414062 182.566406 L 198.3125 182.566406 C 198.3125 182.566406 209.394531 196.644531 201.695312 205.902344 C 193.992188 215.15625 186.566406 207.953125 183.742188 214.65625 C 180.914062 221.363281 189.28125 232.890625 190.277344 242.371094 C 190.609375 250.523438 189.964844 258.59375 188.339844 266.589844 C 188.035156 261.761719 187.140625 257.042969 185.660156 252.4375 C 184.175781 247.832031 182.152344 243.476562 179.585938 239.375 C 171.441406 227.351562 160.578125 213.105469 165.621094 203.628906 C 170.664062 194.152344 186.289062 201.246094 189.390625 197.089844 C 192.496094 192.929688 185.679688 182.511719 185.679688 182.511719 L 161.632812 182.511719 Z M 170 149.3125 C 171.167969 150.960938 172.519531 152.441406 174.0625 153.746094 C 175.601562 155.054688 177.277344 156.152344 179.09375 157.039062 C 180.910156 157.925781 182.804688 158.574219 184.785156 158.980469 C 186.761719 159.390625 188.761719 159.546875 190.777344 159.457031 C 191.746094 159.523438 192.714844 159.527344 193.683594 159.464844 C 194.652344 159.398438 195.613281 159.269531 196.566406 159.074219 C 197.515625 158.878906 198.449219 158.621094 199.367188 158.296875 C 200.28125 157.972656 201.171875 157.589844 202.035156 157.144531 C 202.898438 156.699219 203.726562 156.195312 204.523438 155.636719 C 205.316406 155.078125 206.070312 154.46875 206.78125 153.808594 C 207.492188 153.144531 208.152344 152.4375 208.769531 151.683594 C 209.382812 150.933594 209.941406 150.140625 210.449219 149.3125 C 210.457031 149.957031 210.429688 150.597656 210.375 151.242188 C 210.316406 151.882812 210.226562 152.519531 210.105469 153.152344 C 209.984375 153.78125 209.832031 154.40625 209.648438 155.023438 C 209.464844 155.640625 209.246094 156.246094 209.003906 156.84375 C 208.757812 157.4375 208.480469 158.019531 208.175781 158.585938 C 207.871094 159.152344 207.539062 159.703125 207.179688 160.238281 C 206.820312 160.769531 206.433594 161.285156 206.023438 161.78125 C 205.609375 162.273438 205.175781 162.746094 204.714844 163.199219 C 204.257812 163.648438 203.773438 164.074219 203.273438 164.476562 C 202.769531 164.878906 202.246094 165.253906 201.707031 165.605469 C 201.167969 165.953125 200.609375 166.277344 200.035156 166.570312 C 199.464844 166.863281 198.875 167.125 198.277344 167.359375 C 197.675781 167.59375 197.066406 167.796875 196.449219 167.96875 C 195.828125 168.140625 195.199219 168.28125 194.566406 168.390625 C 193.929688 168.5 193.292969 168.574219 192.652344 168.621094 C 192.007812 168.664062 191.367188 168.675781 190.722656 168.65625 C 190.070312 168.664062 189.417969 168.644531 188.765625 168.589844 C 188.117188 168.539062 187.46875 168.457031 186.828125 168.339844 C 186.183594 168.226562 185.546875 168.082031 184.917969 167.90625 C 184.289062 167.730469 183.671875 167.523438 183.0625 167.289062 C 182.453125 167.054688 181.855469 166.792969 181.273438 166.5 C 180.6875 166.207031 180.117188 165.886719 179.566406 165.542969 C 179.011719 165.195312 178.476562 164.824219 177.957031 164.425781 C 177.441406 164.027344 176.945312 163.605469 176.464844 163.160156 C 175.988281 162.714844 175.535156 162.246094 175.101562 161.757812 C 174.667969 161.269531 174.261719 160.757812 173.875 160.230469 C 173.492188 159.703125 173.132812 159.15625 172.804688 158.59375 C 172.472656 158.03125 172.167969 157.453125 171.890625 156.863281 C 171.613281 156.269531 171.367188 155.667969 171.148438 155.050781 C 170.929688 154.4375 170.742188 153.8125 170.582031 153.179688 C 170.425781 152.546875 170.296875 151.90625 170.199219 151.257812 C 170.101562 150.613281 170.035156 149.964844 170 149.3125 Z M 197.703125 148.203125 C 197.707031 148.648438 197.667969 149.089844 197.582031 149.527344 C 197.5 149.964844 197.375 150.390625 197.207031 150.804688 C 197.039062 151.21875 196.832031 151.609375 196.585938 151.980469 C 196.34375 152.355469 196.0625 152.699219 195.75 153.015625 C 195.4375 153.332031 195.09375 153.613281 194.726562 153.863281 C 194.355469 154.113281 193.96875 154.324219 193.554688 154.496094 C 193.144531 154.667969 192.722656 154.796875 192.285156 154.886719 C 191.847656 154.976562 191.40625 155.019531 190.960938 155.019531 C 190.515625 155.023438 190.074219 154.980469 189.640625 154.894531 C 189.203125 154.808594 188.777344 154.679688 188.367188 154.511719 C 187.953125 154.339844 187.5625 154.132812 187.191406 153.882812 C 186.820312 153.636719 186.480469 153.355469 186.164062 153.039062 C 185.847656 152.726562 185.566406 152.382812 185.320312 152.011719 C 185.074219 151.640625 184.863281 151.25 184.695312 150.839844 C 184.523438 150.425781 184.398438 150.003906 184.3125 149.566406 C 184.226562 149.128906 184.183594 148.6875 184.183594 148.242188 C 184.183594 147.796875 184.230469 147.355469 184.320312 146.917969 C 184.40625 146.480469 184.539062 146.058594 184.710938 145.644531 C 184.882812 145.234375 185.09375 144.84375 185.339844 144.476562 C 185.589844 144.105469 185.875 143.765625 186.191406 143.453125 C 186.507812 143.140625 186.851562 142.859375 187.222656 142.613281 C 187.59375 142.371094 187.988281 142.164062 188.398438 141.996094 C 188.8125 141.828125 189.238281 141.703125 189.675781 141.617188 C 190.113281 141.535156 190.554688 141.496094 191 141.496094 C 191.441406 141.496094 191.875 141.539062 192.308594 141.625 C 192.738281 141.710938 193.160156 141.839844 193.566406 142.007812 C 193.972656 142.175781 194.359375 142.382812 194.722656 142.628906 C 195.089844 142.871094 195.429688 143.152344 195.738281 143.460938 C 196.050781 143.773438 196.328125 144.113281 196.574219 144.476562 C 196.820312 144.84375 197.023438 145.230469 197.195312 145.636719 C 197.363281 146.042969 197.488281 146.464844 197.574219 146.894531 C 197.660156 147.328125 197.703125 147.765625 197.703125 148.203125 Z M 197.703125 148.203125 " fill-opacity="1" fill-rule="nonzero"/></g></svg>