<svg xmlns="http://www.w3.org/2000/svg" xmlns:xlink="http://www.w3.org/1999/xlink" width="500" zoomAndPan="magnify" viewBox="0 0 375 374.999991" height="500" preserveAspectRatio="xMidYMid meet" version="1.0"><defs><clipPath id="597b7c5cf7"><path d="M 3.28125 5 L 370 5 L 370 375 L 3.28125 375 Z M 3.28125 5 " clip-rule="nonzero"/></clipPath></defs><g clip-path="url(#597b7c5cf7)"><path fill="#ba2827" d="M 133.367188 146.125 L 123.269531 132.785156 L 239.765625 132.785156 L 249.210938 148.195312 C 249.210938 148.195312 225.914062 138.742188 226.109375 161.144531 C 226.109375 161.144531 265.714844 175.652344 240.539062 220.847656 C 230.121094 239.625 212.96875 247.589844 209.667969 260.410156 C 209.667969 260.410156 205.332031 252.445312 220.800781 232.308594 C 231.996094 217.738281 245.976562 194.558594 225.136719 178.433594 C 207.015625 164.511719 187.40625 193.070312 187.40625 193.070312 C 187.40625 193.070312 170.96875 172.671875 152.328125 182.578125 C 122.945312 198.25 149.15625 231.660156 163.976562 241.632812 L 146.699219 252.769531 C 146.699219 252.769531 115.050781 223.632812 122.363281 194.492188 C 128.835938 169.886719 153.6875 155.640625 182.097656 171.570312 C 182.097656 171.570312 190.058594 158.621094 213.617188 159.269531 C 212.8125 154.707031 213.027344 150.199219 214.265625 145.734375 Z M 219.378906 107.273438 C 218.839844 107.25 218.308594 107.28125 217.777344 107.367188 C 217.25 107.453125 216.734375 107.585938 216.230469 107.773438 C 215.726562 107.957031 215.246094 108.191406 214.789062 108.472656 C 214.332031 108.753906 213.910156 109.074219 213.515625 109.441406 C 213.121094 109.804688 212.769531 110.203125 212.453125 110.640625 C 212.140625 111.074219 211.871094 111.535156 211.648438 112.023438 C 211.421875 112.511719 211.25 113.015625 211.125 113.535156 C 211 114.058594 210.929688 114.585938 210.910156 115.125 C 210.890625 115.660156 210.921875 116.191406 211.007812 116.722656 C 211.09375 117.25 211.230469 117.769531 211.414062 118.269531 C 211.601562 118.773438 211.835938 119.253906 212.117188 119.710938 C 212.398438 120.167969 212.722656 120.589844 213.089844 120.984375 C 213.453125 121.375 213.855469 121.730469 214.289062 122.042969 C 214.722656 122.355469 215.1875 122.625 215.671875 122.847656 C 216.160156 123.070312 216.667969 123.242188 217.1875 123.367188 C 217.710938 123.488281 218.238281 123.558594 218.773438 123.578125 C 219.3125 123.597656 219.84375 123.5625 220.371094 123.476562 C 220.902344 123.390625 221.417969 123.253906 221.917969 123.066406 C 222.421875 122.875 222.898438 122.640625 223.355469 122.359375 C 223.8125 122.074219 224.234375 121.75 224.628906 121.386719 C 225.019531 121.019531 225.371094 120.617188 225.683594 120.179688 C 225.996094 119.746094 226.261719 119.285156 226.484375 118.792969 C 226.707031 118.304688 226.878906 117.800781 227 117.277344 C 227.121094 116.753906 227.191406 116.226562 227.207031 115.691406 C 227.210938 115.167969 227.167969 114.648438 227.070312 114.132812 C 226.972656 113.617188 226.828125 113.117188 226.636719 112.632812 C 226.441406 112.144531 226.207031 111.683594 225.921875 111.242188 C 225.640625 110.800781 225.316406 110.394531 224.953125 110.015625 C 224.589844 109.636719 224.195312 109.296875 223.769531 108.996094 C 223.339844 108.695312 222.886719 108.441406 222.410156 108.226562 C 221.929688 108.015625 221.4375 107.847656 220.925781 107.730469 C 220.417969 107.613281 219.898438 107.546875 219.378906 107.53125 Z M 147.734375 200.191406 L 225.007812 200.191406 L 186.175781 269.539062 Z M 203.003906 213.140625 L 169.804688 213.140625 L 186.371094 242.863281 Z M 357.421875 279.449219 C 348.554688 305.347656 338.460938 333.96875 349.851562 345.300781 C 350.480469 345.933594 350.957031 346.667969 351.285156 347.5 C 351.613281 348.335938 351.757812 349.199219 351.726562 350.089844 C 351.699219 350.988281 351.492188 351.839844 351.109375 352.652344 C 350.726562 353.460938 350.199219 354.164062 349.527344 354.753906 C 349.230469 355.039062 348.90625 355.292969 348.558594 355.515625 C 348.214844 355.738281 347.847656 355.925781 347.464844 356.078125 C 347.082031 356.230469 346.691406 356.347656 346.285156 356.425781 C 345.882812 356.503906 345.472656 356.542969 345.0625 356.542969 C 344.648438 356.542969 344.242188 356.503906 343.835938 356.425781 C 343.433594 356.347656 343.039062 356.230469 342.65625 356.078125 C 342.273438 355.925781 341.910156 355.738281 341.5625 355.515625 C 341.214844 355.292969 340.894531 355.039062 340.59375 354.753906 C 329.789062 343.875 300.859375 353.78125 275.292969 362.460938 C 257.5625 368.546875 240.734375 374.242188 227.789062 374.242188 L 226.171875 374.242188 C 224.050781 374.128906 221.945312 373.867188 219.855469 373.457031 C 217.769531 373.046875 215.71875 372.492188 213.710938 371.796875 C 211.699219 371.101562 209.75 370.269531 207.855469 369.304688 C 205.960938 368.335938 204.140625 367.242188 202.398438 366.019531 C 200.660156 364.796875 199.011719 363.460938 197.453125 362.011719 C 195.898438 360.558594 194.453125 359.007812 193.113281 357.351562 C 191.773438 355.699219 190.554688 353.960938 189.460938 352.136719 C 188.363281 350.3125 187.398438 348.421875 186.566406 346.464844 C 185.726562 348.425781 184.761719 350.316406 183.660156 352.144531 C 182.558594 353.96875 181.339844 355.710938 179.996094 357.363281 C 178.65625 359.019531 177.207031 360.574219 175.648438 362.027344 C 174.089844 363.480469 172.4375 364.820312 170.695312 366.046875 C 168.953125 367.269531 167.132812 368.367188 165.234375 369.335938 C 163.339844 370.308594 161.382812 371.140625 159.371094 371.839844 C 157.359375 372.539062 155.308594 373.097656 153.21875 373.507812 C 151.128906 373.921875 149.019531 374.1875 146.890625 374.308594 L 145.339844 374.308594 C 132.394531 374.308594 115.761719 368.546875 98.222656 362.460938 C 72.722656 353.523438 43.796875 343.488281 32.46875 354.820312 C 32.167969 355.121094 31.839844 355.390625 31.484375 355.628906 C 31.128906 355.867188 30.753906 356.066406 30.359375 356.230469 C 29.964844 356.394531 29.558594 356.519531 29.140625 356.601562 C 28.722656 356.6875 28.300781 356.726562 27.871094 356.726562 C 27.445312 356.726562 27.023438 356.6875 26.605469 356.601562 C 26.183594 356.519531 25.777344 356.398438 25.382812 356.234375 C 24.988281 356.070312 24.613281 355.871094 24.261719 355.632812 C 23.90625 355.394531 23.578125 355.125 23.273438 354.824219 C 22.972656 354.519531 22.703125 354.191406 22.464844 353.835938 C 22.230469 353.480469 22.027344 353.105469 21.863281 352.710938 C 21.703125 352.316406 21.578125 351.910156 21.496094 351.492188 C 21.414062 351.074219 21.371094 350.648438 21.371094 350.222656 C 21.371094 349.796875 21.414062 349.371094 21.496094 348.953125 C 21.582031 348.535156 21.703125 348.128906 21.867188 347.734375 C 22.03125 347.339844 22.230469 346.964844 22.46875 346.609375 C 22.707031 346.253906 22.976562 345.925781 23.28125 345.625 C 34.152344 334.746094 24.25 305.800781 15.511719 280.289062 C 9.042969 261.769531 3.28125 244.289062 3.800781 231.078125 C 3.949219 228.78125 4.265625 226.507812 4.75 224.257812 C 5.234375 222.007812 5.878906 219.804688 6.6875 217.652344 C 7.496094 215.496094 8.457031 213.414062 9.570312 211.398438 C 10.6875 209.386719 11.941406 207.464844 13.339844 205.636719 C 14.738281 203.808594 16.261719 202.09375 17.910156 200.492188 C 19.558594 198.886719 21.320312 197.414062 23.1875 196.070312 C 25.054688 194.726562 27.007812 193.523438 29.050781 192.46875 C 31.09375 191.414062 33.207031 190.511719 35.382812 189.765625 C 33.207031 189.015625 31.09375 188.109375 29.050781 187.050781 C 27.007812 185.992188 25.054688 184.785156 23.1875 183.4375 C 21.320312 182.089844 19.5625 180.613281 17.914062 179.007812 C 16.261719 177.402344 14.738281 175.683594 13.34375 173.851562 C 11.945312 172.019531 10.691406 170.097656 9.574219 168.082031 C 8.460938 166.070312 7.5 163.984375 6.691406 161.828125 C 5.882812 159.671875 5.234375 157.464844 4.75 155.214844 C 4.265625 152.964844 3.949219 150.6875 3.800781 148.390625 C 3.28125 135.441406 9.234375 117.761719 15.511719 99.242188 C 24.25 73.730469 34.152344 44.789062 23.28125 33.910156 C 22.988281 33.621094 22.726562 33.308594 22.496094 32.972656 C 22.265625 32.636719 22.066406 32.28125 21.902344 31.90625 C 21.738281 31.53125 21.609375 31.144531 21.519531 30.746094 C 21.425781 30.347656 21.375 29.945312 21.359375 29.539062 C 21.34375 29.128906 21.367188 28.722656 21.429688 28.320312 C 21.492188 27.914062 21.589844 27.519531 21.726562 27.136719 C 21.863281 26.75 22.035156 26.382812 22.242188 26.027344 C 22.449219 25.675781 22.6875 25.34375 22.957031 25.039062 C 23.554688 24.355469 24.265625 23.824219 25.085938 23.441406 C 25.910156 23.058594 26.773438 22.855469 27.679688 22.835938 C 28.578125 22.769531 29.449219 22.902344 30.289062 23.230469 C 31.128906 23.558594 31.855469 24.054688 32.46875 24.714844 C 43.796875 36.046875 72.722656 26.007812 98.222656 17.074219 C 116.539062 10.597656 133.820312 4.769531 146.890625 5.222656 C 148.847656 5.300781 150.789062 5.507812 152.71875 5.84375 C 154.648438 6.175781 156.546875 6.632812 158.417969 7.214844 C 160.285156 7.800781 162.109375 8.5 163.886719 9.324219 C 165.660156 10.144531 167.378906 11.078125 169.03125 12.125 C 170.6875 13.171875 172.265625 14.324219 173.769531 15.578125 C 175.273438 16.832031 176.6875 18.179688 178.015625 19.617188 C 179.339844 21.058594 180.570312 22.578125 181.695312 24.179688 C 182.824219 25.78125 183.84375 27.449219 184.753906 29.183594 C 186.398438 25.695312 188.507812 22.515625 191.085938 19.648438 C 193.664062 16.78125 196.601562 14.347656 199.898438 12.347656 C 219.832031 0.757812 247.984375 9.949219 275.230469 18.820312 C 299.953125 26.914062 325.515625 35.269531 338.007812 24.777344 C 338.304688 24.476562 338.632812 24.207031 338.984375 23.972656 C 339.339844 23.734375 339.710938 23.535156 340.101562 23.371094 C 340.496094 23.207031 340.898438 23.082031 341.316406 23 C 341.730469 22.914062 342.152344 22.871094 342.578125 22.871094 C 343.003906 22.871094 343.421875 22.910156 343.839844 22.992188 C 344.257812 23.074219 344.660156 23.195312 345.054688 23.355469 C 345.449219 23.515625 345.820312 23.714844 346.175781 23.949219 C 346.53125 24.183594 346.859375 24.453125 347.160156 24.753906 C 347.460938 25.050781 347.730469 25.378906 347.96875 25.730469 C 348.203125 26.082031 348.40625 26.457031 348.570312 26.847656 C 348.734375 27.238281 348.859375 27.644531 348.941406 28.058594 C 349.027344 28.476562 349.070312 28.898438 349.070312 29.324219 C 349.074219 29.746094 349.035156 30.167969 348.953125 30.585938 C 348.871094 31.003906 348.75 31.410156 348.589844 31.800781 C 348.429688 32.195312 348.230469 32.570312 347.996094 32.925781 C 347.761719 33.277344 347.496094 33.605469 347.195312 33.910156 C 337.164062 46.210938 345.320312 71.59375 353.214844 96.199219 C 362.082031 123.71875 371.273438 152.210938 359.6875 172.285156 C 358.449219 174.273438 357.054688 176.140625 355.496094 177.894531 C 353.941406 179.644531 352.25 181.25 350.417969 182.710938 C 348.589844 184.171875 346.648438 185.46875 344.597656 186.597656 C 342.546875 187.726562 340.414062 188.675781 338.199219 189.441406 C 340.367188 190.195312 342.46875 191.101562 344.503906 192.164062 C 346.539062 193.226562 348.484375 194.433594 350.339844 195.78125 C 352.195312 197.128906 353.945312 198.605469 355.585938 200.207031 C 357.226562 201.8125 358.742188 203.53125 360.128906 205.355469 C 361.519531 207.183594 362.765625 209.101562 363.871094 211.113281 C 364.980469 213.125 365.933594 215.207031 366.734375 217.355469 C 367.535156 219.507812 368.175781 221.707031 368.652344 223.949219 C 369.132812 226.195312 369.445312 228.464844 369.589844 230.753906 C 369.589844 243.898438 363.828125 261.1875 357.421875 279.449219 Z M 193.488281 42.132812 C 195.691406 42.257812 197.886719 42.429688 200.078125 42.652344 C 202.269531 42.875 204.457031 43.148438 206.636719 43.472656 C 208.816406 43.796875 210.988281 44.167969 213.152344 44.589844 C 215.316406 45.011719 217.46875 45.480469 219.609375 46 C 221.75 46.519531 223.878906 47.085938 225.996094 47.699219 C 228.113281 48.316406 230.214844 48.980469 232.300781 49.691406 C 234.386719 50.402344 236.453125 51.160156 238.507812 51.964844 C 240.558594 52.769531 242.589844 53.621094 244.601562 54.515625 C 246.617188 55.414062 248.609375 56.355469 250.578125 57.34375 C 252.550781 58.332031 254.496094 59.363281 256.417969 60.4375 C 258.34375 61.515625 260.242188 62.632812 262.113281 63.796875 C 263.988281 64.957031 265.832031 66.160156 267.652344 67.40625 C 269.46875 68.652344 271.257812 69.941406 273.019531 71.265625 C 274.777344 72.59375 276.507812 73.960938 278.207031 75.367188 C 279.902344 76.769531 281.570312 78.214844 283.199219 79.695312 C 284.832031 81.175781 286.433594 82.691406 287.996094 84.246094 C 289.558594 85.800781 291.085938 87.386719 292.578125 89.011719 C 294.070312 90.632812 295.523438 92.289062 296.941406 93.980469 C 298.359375 95.667969 299.734375 97.386719 301.074219 99.140625 C 302.414062 100.890625 303.710938 102.671875 304.96875 104.480469 C 306.226562 106.292969 307.445312 108.128906 308.617188 109.996094 C 309.792969 111.859375 310.925781 113.753906 312.015625 115.667969 C 313.101562 117.585938 314.148438 119.527344 315.148438 121.492188 C 316.148438 123.457031 317.105469 125.441406 318.015625 127.449219 C 318.929688 129.457031 319.792969 131.484375 320.613281 133.53125 C 321.429688 135.578125 322.203125 137.644531 322.929688 139.722656 C 323.652344 141.804688 324.332031 143.902344 324.960938 146.015625 C 325.59375 148.128906 326.175781 150.253906 326.707031 152.394531 C 327.242188 154.535156 327.726562 156.683594 328.164062 158.84375 C 328.601562 161.007812 328.988281 163.175781 329.324219 165.355469 C 329.664062 167.535156 329.953125 169.71875 330.191406 171.910156 C 330.429688 174.101562 330.617188 176.300781 330.757812 178.5 C 332.59375 178.035156 334.367188 177.402344 336.085938 176.601562 C 337.800781 175.800781 339.425781 174.847656 340.960938 173.738281 C 342.496094 172.628906 343.910156 171.386719 345.210938 170.011719 C 346.507812 168.632812 347.667969 167.144531 348.683594 165.550781 C 357.488281 150.460938 349.269531 124.753906 341.242188 99.957031 C 334.769531 79.492188 327.847656 58.515625 330.5625 41.679688 C 313.542969 44.59375 292.25 37.664062 271.539062 30.867188 C 247.011719 22.835938 221.640625 14.546875 206.820312 23.289062 C 205.148438 24.347656 203.59375 25.558594 202.160156 26.921875 C 200.726562 28.285156 199.4375 29.773438 198.292969 31.390625 C 197.148438 33.007812 196.171875 34.71875 195.363281 36.527344 C 194.558594 38.332031 193.933594 40.203125 193.488281 42.132812 Z M 270.375 289.417969 L 99.90625 289.417969 C 101.382812 290.664062 102.882812 291.875 104.414062 293.054688 C 105.941406 294.230469 107.496094 295.375 109.074219 296.484375 C 110.652344 297.597656 112.257812 298.671875 113.882812 299.710938 C 115.507812 300.75 117.15625 301.753906 118.824219 302.722656 C 120.496094 303.691406 122.1875 304.621094 123.898438 305.515625 C 125.605469 306.410156 127.335938 307.265625 129.085938 308.085938 C 130.832031 308.902344 132.597656 309.683594 134.378906 310.421875 C 136.160156 311.164062 137.960938 311.867188 139.773438 312.527344 C 141.585938 313.191406 143.410156 313.8125 145.25 314.394531 C 147.089844 314.976562 148.941406 315.519531 150.808594 316.019531 C 152.671875 316.519531 154.542969 316.980469 156.429688 317.398438 C 158.3125 317.820312 160.203125 318.195312 162.105469 318.53125 C 164.003906 318.867188 165.910156 319.164062 167.824219 319.417969 C 169.738281 319.667969 171.65625 319.878906 173.578125 320.046875 C 175.5 320.21875 177.425781 320.34375 179.355469 320.429688 C 181.28125 320.511719 183.210938 320.554688 185.140625 320.554688 C 187.070312 320.554688 189 320.511719 190.929688 320.429688 C 192.855469 320.34375 194.78125 320.21875 196.703125 320.046875 C 198.625 319.878906 200.542969 319.667969 202.457031 319.417969 C 204.371094 319.164062 206.277344 318.867188 208.175781 318.53125 C 210.078125 318.195312 211.96875 317.820312 213.855469 317.398438 C 215.738281 316.980469 217.613281 316.519531 219.476562 316.019531 C 221.339844 315.519531 223.191406 314.976562 225.03125 314.394531 C 226.871094 313.8125 228.699219 313.191406 230.511719 312.527344 C 232.324219 311.867188 234.121094 311.164062 235.902344 310.421875 C 237.683594 309.683594 239.449219 308.902344 241.199219 308.085938 C 242.945312 307.265625 244.675781 306.410156 246.386719 305.515625 C 248.097656 304.621094 249.785156 303.691406 251.457031 302.722656 C 253.125 301.753906 254.773438 300.75 256.398438 299.710938 C 258.027344 298.671875 259.628906 297.597656 261.207031 296.484375 C 262.785156 295.375 264.339844 294.230469 265.867188 293.054688 C 267.398438 291.875 268.898438 290.664062 270.375 289.417969 Z M 99.90625 86.226562 L 270.375 86.226562 C 268.898438 84.984375 267.398438 83.773438 265.867188 82.59375 C 264.339844 81.417969 262.785156 80.273438 261.207031 79.160156 C 259.628906 78.050781 258.027344 76.976562 256.398438 75.9375 C 254.773438 74.894531 253.125 73.890625 251.457031 72.925781 C 249.785156 71.957031 248.097656 71.023438 246.386719 70.132812 C 244.675781 69.238281 242.945312 68.382812 241.199219 67.5625 C 239.449219 66.746094 237.683594 65.964844 235.902344 65.222656 C 234.121094 64.484375 232.324219 63.78125 230.511719 63.121094 C 228.699219 62.457031 226.871094 61.835938 225.03125 61.253906 C 223.191406 60.671875 221.339844 60.128906 219.476562 59.628906 C 217.613281 59.128906 215.738281 58.667969 213.855469 58.246094 C 211.96875 57.828125 210.078125 57.449219 208.175781 57.113281 C 206.277344 56.777344 204.371094 56.484375 202.457031 56.230469 C 200.542969 55.980469 198.625 55.769531 196.703125 55.597656 C 194.78125 55.429688 192.855469 55.304688 190.929688 55.21875 C 189 55.136719 187.070312 55.09375 185.140625 55.09375 C 183.210938 55.09375 181.28125 55.136719 179.355469 55.21875 C 177.425781 55.304688 175.5 55.429688 173.578125 55.597656 C 171.65625 55.769531 169.738281 55.980469 167.824219 56.230469 C 165.910156 56.484375 164.003906 56.777344 162.105469 57.113281 C 160.203125 57.449219 158.3125 57.828125 156.429688 58.246094 C 154.542969 58.667969 152.671875 59.128906 150.808594 59.628906 C 148.941406 60.128906 147.089844 60.671875 145.25 61.253906 C 143.410156 61.835938 141.585938 62.457031 139.773438 63.121094 C 137.960938 63.78125 136.160156 64.484375 134.378906 65.222656 C 132.597656 65.964844 130.832031 66.746094 129.085938 67.5625 C 127.335938 68.382812 125.605469 69.238281 123.898438 70.132812 C 122.1875 71.023438 120.496094 71.957031 118.824219 72.925781 C 117.15625 73.890625 115.507812 74.894531 113.882812 75.9375 C 112.257812 76.976562 110.652344 78.050781 109.074219 79.160156 C 107.496094 80.273438 105.941406 81.417969 104.414062 82.59375 C 102.882812 83.773438 101.382812 84.984375 99.90625 86.226562 Z M 96.542969 276.46875 L 273.742188 276.46875 L 273.742188 99.179688 L 96.542969 99.179688 Z M 83.597656 102.546875 C 82.355469 104.023438 81.144531 105.527344 79.964844 107.054688 C 78.789062 108.585938 77.644531 110.140625 76.535156 111.71875 C 75.425781 113.296875 74.351562 114.902344 73.3125 116.527344 C 72.269531 118.15625 71.265625 119.804688 70.300781 121.476562 C 69.332031 123.144531 68.402344 124.835938 67.507812 126.546875 C 66.613281 128.257812 65.757812 129.988281 64.941406 131.738281 C 64.125 133.488281 63.34375 135.253906 62.605469 137.035156 C 61.863281 138.820312 61.164062 140.617188 60.5 142.429688 C 59.839844 144.246094 59.21875 146.074219 58.636719 147.914062 C 58.054688 149.753906 57.511719 151.609375 57.011719 153.472656 C 56.511719 155.335938 56.050781 157.210938 55.632812 159.097656 C 55.210938 160.980469 54.835938 162.875 54.5 164.777344 C 54.164062 166.675781 53.867188 168.585938 53.617188 170.5 C 53.363281 172.414062 53.152344 174.332031 52.984375 176.253906 C 52.816406 178.179688 52.6875 180.105469 52.605469 182.035156 C 52.519531 183.964844 52.476562 185.894531 52.476562 187.824219 C 52.476562 189.753906 52.519531 191.683594 52.605469 193.613281 C 52.6875 195.542969 52.816406 197.46875 52.984375 199.390625 C 53.152344 201.316406 53.363281 203.234375 53.617188 205.148438 C 53.867188 207.0625 54.164062 208.96875 54.5 210.871094 C 54.835938 212.773438 55.210938 214.667969 55.632812 216.550781 C 56.050781 218.4375 56.511719 220.3125 57.011719 222.175781 C 57.511719 224.039062 58.054688 225.894531 58.636719 227.734375 C 59.21875 229.574219 59.839844 231.402344 60.5 233.214844 C 61.164062 235.03125 61.863281 236.828125 62.605469 238.609375 C 63.34375 240.394531 64.125 242.160156 64.941406 243.910156 C 65.757812 245.65625 66.613281 247.386719 67.507812 249.097656 C 68.402344 250.8125 69.332031 252.5 70.300781 254.171875 C 71.265625 255.84375 72.269531 257.492188 73.3125 259.117188 C 74.351562 260.746094 75.425781 262.347656 76.535156 263.929688 C 77.644531 265.507812 78.789062 267.0625 79.964844 268.59375 C 81.144531 270.121094 82.355469 271.625 83.597656 273.101562 Z M 286.683594 273.101562 C 287.929688 271.625 289.140625 270.121094 290.316406 268.59375 C 291.496094 267.0625 292.636719 265.507812 293.746094 263.929688 C 294.855469 262.347656 295.933594 260.746094 296.972656 259.117188 C 298.011719 257.492188 299.015625 255.84375 299.980469 254.171875 C 300.949219 252.5 301.878906 250.8125 302.773438 249.097656 C 303.667969 247.386719 304.523438 245.65625 305.339844 243.910156 C 306.15625 242.160156 306.9375 240.394531 307.679688 238.609375 C 308.417969 236.828125 309.121094 235.03125 309.78125 233.214844 C 310.445312 231.402344 311.066406 229.574219 311.648438 227.734375 C 312.230469 225.894531 312.769531 224.039062 313.269531 222.175781 C 313.773438 220.3125 314.230469 218.4375 314.652344 216.550781 C 315.070312 214.667969 315.449219 212.773438 315.785156 210.871094 C 316.121094 208.96875 316.414062 207.0625 316.667969 205.148438 C 316.917969 203.234375 317.128906 201.316406 317.296875 199.390625 C 317.46875 197.46875 317.59375 195.542969 317.679688 193.613281 C 317.761719 191.683594 317.804688 189.753906 317.804688 187.824219 C 317.804688 185.894531 317.761719 183.964844 317.679688 182.035156 C 317.59375 180.105469 317.46875 178.179688 317.296875 176.253906 C 317.128906 174.332031 316.917969 172.414062 316.667969 170.5 C 316.414062 168.585938 316.121094 166.675781 315.785156 164.777344 C 315.449219 162.875 315.070312 160.980469 314.652344 159.097656 C 314.230469 157.210938 313.773438 155.335938 313.269531 153.472656 C 312.769531 151.609375 312.230469 149.753906 311.648438 147.914062 C 311.066406 146.074219 310.445312 144.246094 309.78125 142.429688 C 309.121094 140.617188 308.417969 138.820312 307.679688 137.035156 C 306.9375 135.253906 306.15625 133.488281 305.339844 131.738281 C 304.523438 129.988281 303.667969 128.257812 302.773438 126.546875 C 301.878906 124.835938 300.949219 123.144531 299.980469 121.476562 C 299.015625 119.804688 298.011719 118.15625 296.972656 116.527344 C 295.933594 114.902344 294.855469 113.296875 293.746094 111.71875 C 292.636719 110.140625 291.496094 108.585938 290.316406 107.054688 C 289.140625 105.527344 287.929688 104.023438 286.683594 102.546875 Z M 39.910156 177.269531 C 40.070312 175.085938 40.273438 172.910156 40.527344 170.738281 C 40.78125 168.566406 41.085938 166.402344 41.4375 164.242188 C 41.789062 162.082031 42.1875 159.933594 42.636719 157.792969 C 43.085938 155.652344 43.582031 153.523438 44.125 151.40625 C 44.667969 149.285156 45.257812 147.183594 45.898438 145.089844 C 46.535156 143 47.222656 140.921875 47.953125 138.863281 C 48.6875 136.800781 49.464844 134.757812 50.289062 132.730469 C 51.113281 130.707031 51.980469 128.699219 52.894531 126.714844 C 53.808594 124.726562 54.769531 122.761719 55.769531 120.816406 C 56.773438 118.875 57.820312 116.953125 58.90625 115.058594 C 59.996094 113.160156 61.128906 111.289062 62.300781 109.445312 C 63.472656 107.597656 64.6875 105.78125 65.941406 103.992188 C 67.195312 102.199219 68.492188 100.4375 69.824219 98.707031 C 71.160156 96.972656 72.53125 95.269531 73.941406 93.601562 C 75.351562 91.929688 76.800781 90.289062 78.285156 88.683594 C 79.769531 87.078125 81.289062 85.507812 82.84375 83.972656 C 84.398438 82.433594 85.988281 80.933594 87.609375 79.464844 C 89.230469 78 90.886719 76.570312 92.574219 75.179688 C 94.257812 73.789062 95.976562 72.4375 97.722656 71.121094 C 99.472656 69.808594 101.246094 68.535156 103.050781 67.300781 C 104.855469 66.066406 106.6875 64.875 108.546875 63.722656 C 110.40625 62.570312 112.289062 61.460938 114.195312 60.394531 C 116.105469 59.328125 118.035156 58.304688 119.992188 57.324219 C 121.945312 56.34375 123.921875 55.410156 125.917969 54.519531 C 127.914062 53.628906 129.929688 52.78125 131.964844 51.984375 C 133.996094 51.183594 136.046875 50.429688 138.117188 49.722656 C 140.183594 49.011719 142.269531 48.351562 144.367188 47.738281 C 146.464844 47.125 148.574219 46.558594 150.699219 46.039062 C 152.824219 45.519531 154.957031 45.046875 157.101562 44.625 C 159.246094 44.203125 161.398438 43.828125 163.5625 43.503906 C 165.722656 43.175781 167.890625 42.898438 170.0625 42.671875 C 172.238281 42.441406 174.417969 42.261719 176.597656 42.132812 C 176.113281 40.476562 175.507812 38.863281 174.78125 37.296875 C 174.054688 35.730469 173.210938 34.230469 172.257812 32.792969 C 171.304688 31.351562 170.246094 29.996094 169.085938 28.714844 C 167.925781 27.4375 166.675781 26.253906 165.335938 25.164062 C 164 24.074219 162.585938 23.089844 161.097656 22.214844 C 159.609375 21.339844 158.066406 20.582031 156.464844 19.941406 C 154.863281 19.296875 153.222656 18.78125 151.539062 18.386719 C 149.859375 17.992188 148.160156 17.726562 146.4375 17.589844 C 135.695312 17.203125 118.867188 23.03125 102.496094 28.730469 C 80.425781 36.433594 57.839844 44.269531 40.558594 41.679688 C 42.890625 58.707031 35.253906 81.113281 27.617188 102.933594 C 21.921875 119.511719 16.09375 136.605469 16.546875 147.417969 C 16.65625 149.097656 16.890625 150.757812 17.25 152.398438 C 17.609375 154.042969 18.085938 155.648438 18.6875 157.222656 C 19.285156 158.792969 20 160.308594 20.828125 161.773438 C 21.652344 163.238281 22.585938 164.632812 23.621094 165.953125 C 24.65625 167.277344 25.785156 168.519531 27.007812 169.671875 C 28.230469 170.828125 29.53125 171.882812 30.914062 172.84375 C 32.292969 173.800781 33.738281 174.652344 35.246094 175.394531 C 36.753906 176.136719 38.308594 176.761719 39.910156 177.269531 Z M 177.632812 333.515625 C 175.472656 333.402344 173.316406 333.238281 171.164062 333.03125 C 169.011719 332.820312 166.863281 332.5625 164.722656 332.257812 C 162.582031 331.953125 160.449219 331.601562 158.320312 331.199219 C 156.195312 330.800781 154.082031 330.351562 151.972656 329.859375 C 149.867188 329.363281 147.773438 328.824219 145.691406 328.234375 C 143.609375 327.648438 141.542969 327.011719 139.488281 326.332031 C 137.4375 325.652344 135.398438 324.929688 133.378906 324.15625 C 131.355469 323.386719 129.351562 322.570312 127.367188 321.710938 C 125.382812 320.851562 123.417969 319.949219 121.472656 319 C 119.527344 318.054688 117.605469 317.0625 115.703125 316.03125 C 113.804688 314.996094 111.925781 313.921875 110.074219 312.804688 C 108.222656 311.6875 106.394531 310.53125 104.59375 309.332031 C 102.792969 308.136719 101.019531 306.898438 99.273438 305.621094 C 97.523438 304.34375 95.808594 303.027344 94.121094 301.675781 C 92.433594 300.320312 90.777344 298.929688 89.148438 297.503906 C 87.523438 296.074219 85.929688 294.613281 84.371094 293.113281 C 82.808594 291.617188 81.28125 290.082031 79.789062 288.515625 C 78.296875 286.949219 76.839844 285.351562 75.417969 283.71875 C 73.996094 282.089844 72.613281 280.425781 71.265625 278.734375 C 69.917969 277.039062 68.609375 275.320312 67.335938 273.566406 C 66.066406 271.816406 64.835938 270.039062 63.644531 268.230469 C 62.453125 266.425781 61.300781 264.59375 60.191406 262.734375 C 59.082031 260.878906 58.011719 258.996094 56.984375 257.09375 C 55.960938 255.1875 54.976562 253.261719 54.035156 251.3125 C 53.09375 249.363281 52.199219 247.394531 51.34375 245.40625 C 50.492188 243.417969 49.683594 241.410156 48.917969 239.386719 C 48.15625 237.359375 47.4375 235.320312 46.765625 233.261719 C 46.089844 231.207031 45.464844 229.136719 44.882812 227.050781 C 44.300781 224.964844 43.769531 222.871094 43.28125 220.761719 C 42.792969 218.652344 42.351562 216.535156 41.960938 214.40625 C 41.566406 212.277344 41.21875 210.140625 40.921875 208 C 40.625 205.855469 40.375 203.707031 40.171875 201.550781 C 38.570312 202.054688 37.015625 202.675781 35.507812 203.410156 C 34.003906 204.148438 32.558594 204.992188 31.175781 205.945312 C 29.796875 206.898438 28.492188 207.949219 27.269531 209.097656 C 26.046875 210.246094 24.914062 211.480469 23.875 212.796875 C 22.839844 214.117188 21.902344 215.503906 21.070312 216.960938 C 20.242188 218.417969 19.523438 219.929688 18.917969 221.496094 C 18.3125 223.0625 17.828125 224.664062 17.464844 226.304688 C 17.101562 227.941406 16.859375 229.597656 16.742188 231.273438 C 16.289062 242.019531 22.113281 259.179688 27.808594 275.757812 C 35.253906 297.578125 42.890625 319.980469 40.753906 337.011719 C 58.035156 334.355469 80.621094 342.191406 102.6875 349.960938 C 119.0625 355.660156 135.890625 361.550781 146.632812 361.097656 C 167.859375 360.191406 175.433594 340.3125 177.632812 333.515625 Z M 356.644531 231.273438 C 355.871094 211.328125 338.394531 203.234375 330.433594 200.578125 C 330.246094 202.71875 330.007812 204.847656 329.722656 206.976562 C 329.441406 209.101562 329.109375 211.222656 328.730469 213.332031 C 328.355469 215.445312 327.929688 217.546875 327.460938 219.640625 C 326.988281 221.734375 326.472656 223.816406 325.910156 225.886719 C 325.347656 227.957031 324.742188 230.015625 324.089844 232.058594 C 323.4375 234.101562 322.738281 236.128906 321.996094 238.144531 C 321.253906 240.15625 320.46875 242.152344 319.636719 244.128906 C 318.804688 246.105469 317.933594 248.066406 317.015625 250.003906 C 316.097656 251.945312 315.140625 253.863281 314.136719 255.761719 C 313.136719 257.65625 312.09375 259.53125 311.007812 261.382812 C 309.925781 263.234375 308.800781 265.0625 307.636719 266.863281 C 306.472656 268.664062 305.269531 270.4375 304.023438 272.1875 C 302.78125 273.933594 301.5 275.65625 300.183594 277.347656 C 298.863281 279.039062 297.507812 280.699219 296.113281 282.332031 C 294.722656 283.964844 293.296875 285.5625 291.832031 287.132812 C 290.371094 288.703125 288.875 290.238281 287.34375 291.742188 C 285.8125 293.242188 284.25 294.710938 282.652344 296.144531 C 281.058594 297.578125 279.433594 298.976562 277.773438 300.339844 C 276.117188 301.699219 274.433594 303.023438 272.714844 304.3125 C 271 305.601562 269.257812 306.847656 267.488281 308.058594 C 265.71875 309.269531 263.921875 310.441406 262.097656 311.570312 C 260.277344 312.703125 258.429688 313.792969 256.558594 314.84375 C 254.6875 315.890625 252.796875 316.898438 250.882812 317.867188 C 248.96875 318.832031 247.03125 319.753906 245.078125 320.636719 C 243.121094 321.515625 241.148438 322.351562 239.15625 323.148438 C 237.164062 323.941406 235.152344 324.6875 233.128906 325.394531 C 231.101562 326.097656 229.0625 326.757812 227.007812 327.371094 C 224.953125 327.988281 222.886719 328.554688 220.804688 329.078125 C 218.726562 329.601562 216.636719 330.078125 214.535156 330.511719 C 212.433594 330.941406 210.324219 331.324219 208.207031 331.664062 C 206.089844 332 203.964844 332.292969 201.835938 332.535156 C 199.707031 332.78125 197.570312 332.976562 195.429688 333.125 C 197.371094 339.601562 205.007812 360.191406 226.691406 361.035156 C 237.238281 361.035156 254.585938 355.59375 271.152344 349.960938 C 292.960938 342.515625 315.355469 334.875 332.3125 337.011719 C 329.65625 319.722656 337.554688 297.125 345.253906 275.042969 C 350.886719 258.855469 356.644531 241.957031 356.644531 231.273438 Z M 356.644531 231.273438 " fill-opacity="1" fill-rule="nonzero"/></g></svg>