<svg xmlns="http://www.w3.org/2000/svg" xmlns:xlink="http://www.w3.org/1999/xlink" width="500" zoomAndPan="magnify" viewBox="0 0 375 374.999991" height="500" preserveAspectRatio="xMidYMid meet" version="1.0"><defs><clipPath id="300ee59071"><path d="M 17 1.632812 L 358.21875 1.632812 L 358.21875 373.632812 L 17 373.632812 Z M 17 1.632812 " clip-rule="nonzero"/></clipPath></defs><g clip-path="url(#300ee59071)"><path fill="#893e97" d="M 352.945312 181.445312 C 349.953125 181.445312 344.628906 168.871094 342.347656 163.492188 C 341.433594 161.3125 340.523438 159.183594 339.609375 157.207031 C 341.414062 155.015625 342.910156 152.628906 344.09375 150.050781 C 345.28125 147.472656 346.117188 144.785156 346.605469 141.992188 C 347.214844 135.492188 346.84375 129.054688 345.492188 122.667969 C 344.578125 116.835938 342.550781 103.246094 345.035156 101.773438 C 345.660156 101.414062 346.183594 100.945312 346.609375 100.359375 C 347.03125 99.777344 347.320312 99.132812 347.46875 98.425781 C 347.621094 97.707031 347.617188 96.992188 347.457031 96.273438 C 347.300781 95.558594 347 94.90625 346.554688 94.320312 C 346.15625 93.863281 345.691406 93.484375 345.164062 93.183594 C 344.636719 92.878906 344.074219 92.671875 343.476562 92.558594 C 342.878906 92.441406 342.28125 92.425781 341.679688 92.511719 C 341.078125 92.597656 340.503906 92.777344 339.964844 93.050781 C 337.429688 94.269531 326.425781 85.546875 322.269531 82.25 C 317.363281 77.875 311.921875 74.324219 305.941406 71.597656 C 299.824219 69.582031 293.570312 68.972656 287.179688 69.773438 L 283.476562 64.703125 C 279.625 59.628906 271.613281 49.183594 273.335938 46.394531 C 273.675781 45.773438 273.878906 45.109375 273.9375 44.402344 C 274 43.695312 273.917969 43.007812 273.691406 42.335938 C 273.554688 41.855469 273.351562 41.40625 273.082031 40.988281 C 272.808594 40.566406 272.484375 40.195312 272.105469 39.875 C 271.726562 39.550781 271.308594 39.289062 270.851562 39.085938 C 270.394531 38.886719 269.917969 38.757812 269.421875 38.699219 C 268.925781 38.636719 268.433594 38.652344 267.941406 38.738281 C 267.449219 38.824219 266.980469 38.980469 266.535156 39.203125 C 266.089844 39.429688 265.6875 39.710938 265.324219 40.054688 C 264.964844 40.398438 264.660156 40.789062 264.414062 41.222656 C 262.890625 43.859375 249.199219 42.132812 243.570312 41.222656 L 237.03125 40.816406 C 236.144531 37.828125 234.839844 35.035156 233.109375 32.441406 C 231.382812 29.847656 229.308594 27.566406 226.890625 25.601562 C 221.550781 21.835938 215.773438 18.960938 209.546875 16.980469 C 204.074219 14.796875 191.242188 9.777344 191.242188 6.835938 C 191.242188 6.503906 191.210938 6.171875 191.144531 5.847656 C 191.082031 5.519531 190.984375 5.203125 190.859375 4.894531 C 190.730469 4.589844 190.574219 4.296875 190.390625 4.019531 C 190.203125 3.742188 189.992188 3.484375 189.757812 3.25 C 189.523438 3.015625 189.265625 2.804688 188.992188 2.621094 C 188.714844 2.433594 188.421875 2.277344 188.113281 2.152344 C 187.804688 2.023438 187.488281 1.925781 187.164062 1.863281 C 186.835938 1.796875 186.507812 1.765625 186.171875 1.765625 C 185.515625 1.808594 184.882812 1.964844 184.28125 2.234375 C 183.683594 2.507812 183.148438 2.875 182.679688 3.34375 C 182.214844 3.808594 181.84375 4.34375 181.574219 4.945312 C 181.300781 5.546875 181.144531 6.175781 181.101562 6.835938 C 180.847656 9.625 168.273438 14.644531 162.898438 16.980469 C 156.664062 19.0625 150.867188 22.003906 145.507812 25.804688 C 142.871094 28.132812 140.5625 30.75 138.589844 33.664062 C 136.613281 36.574219 135.03125 39.683594 133.84375 42.996094 L 128.773438 43.605469 C 122.488281 44.414062 109.40625 46.140625 107.78125 43.351562 C 107.417969 42.71875 106.9375 42.191406 106.347656 41.765625 C 105.753906 41.34375 105.101562 41.058594 104.386719 40.917969 C 103.671875 40.777344 102.960938 40.792969 102.253906 40.960938 C 101.546875 41.128906 100.902344 41.4375 100.328125 41.878906 C 99.839844 42.253906 99.4375 42.699219 99.109375 43.222656 C 98.785156 43.742188 98.5625 44.300781 98.441406 44.902344 C 98.320312 45.503906 98.308594 46.109375 98.40625 46.714844 C 98.503906 47.320312 98.707031 47.890625 99.011719 48.421875 C 100.480469 51.058594 92.265625 61.964844 88.867188 66.578125 C 87.90625 67.949219 86.890625 69.214844 85.929688 70.535156 C 82.703125 69.523438 79.40625 69.078125 76.03125 69.199219 C 72.65625 69.320312 69.394531 70.003906 66.253906 71.242188 C 60.34375 73.984375 54.96875 77.535156 50.128906 81.894531 C 45.515625 85.597656 34.917969 94.167969 32.230469 92.695312 C 31.691406 92.386719 31.117188 92.183594 30.503906 92.085938 C 29.890625 91.988281 29.28125 92.003906 28.675781 92.128906 C 28.066406 92.253906 27.503906 92.484375 26.980469 92.820312 C 26.457031 93.152344 26.007812 93.566406 25.640625 94.066406 C 25.421875 94.351562 25.238281 94.660156 25.085938 94.984375 C 24.933594 95.3125 24.820312 95.652344 24.738281 96 C 24.660156 96.351562 24.617188 96.707031 24.613281 97.066406 C 24.609375 97.429688 24.644531 97.785156 24.714844 98.136719 C 24.789062 98.488281 24.898438 98.832031 25.042969 99.160156 C 25.1875 99.488281 25.363281 99.800781 25.574219 100.089844 C 25.785156 100.382812 26.023438 100.648438 26.289062 100.890625 C 26.558594 101.132812 26.847656 101.339844 27.160156 101.519531 C 29.492188 102.839844 27.464844 116.734375 26.703125 122.261719 C 25.390625 128.5625 25.019531 134.921875 25.589844 141.332031 C 26.351562 144.933594 27.558594 148.378906 29.207031 151.671875 C 30.855469 154.960938 32.894531 157.988281 35.324219 160.753906 L 32.839844 166.535156 C 30.40625 172.367188 25.335938 184.589844 22.140625 184.589844 C 21.808594 184.589844 21.476562 184.625 21.152344 184.6875 C 20.824219 184.753906 20.507812 184.851562 20.199219 184.976562 C 19.890625 185.105469 19.601562 185.261719 19.324219 185.445312 C 19.046875 185.632812 18.789062 185.839844 18.554688 186.078125 C 18.320312 186.3125 18.109375 186.566406 17.925781 186.84375 C 17.738281 187.121094 17.582031 187.414062 17.457031 187.722656 C 17.328125 188.03125 17.230469 188.347656 17.167969 188.671875 C 17.101562 189 17.070312 189.328125 17.070312 189.664062 C 17.070312 189.996094 17.101562 190.324219 17.167969 190.652344 C 17.230469 190.980469 17.328125 191.296875 17.457031 191.601562 C 17.582031 191.910156 17.738281 192.203125 17.925781 192.480469 C 18.109375 192.757812 18.320312 193.011719 18.554688 193.25 C 18.789062 193.484375 19.046875 193.695312 19.324219 193.878906 C 19.601562 194.066406 19.890625 194.222656 20.199219 194.347656 C 20.507812 194.476562 20.824219 194.570312 21.152344 194.636719 C 21.476562 194.703125 21.808594 194.734375 22.140625 194.734375 C 25.132812 194.734375 30.457031 207.3125 32.738281 212.6875 L 34.054688 215.832031 C 31.691406 218.109375 29.753906 220.710938 28.246094 223.625 C 26.734375 226.542969 25.730469 229.625 25.234375 232.871094 C 24.617188 239.375 25.007812 245.8125 26.398438 252.195312 C 27.261719 258.027344 29.289062 271.667969 26.804688 273.089844 C 26.527344 273.25 26.265625 273.433594 26.023438 273.644531 C 25.78125 273.855469 25.558594 274.089844 25.359375 274.339844 C 25.160156 274.59375 24.988281 274.863281 24.839844 275.148438 C 24.691406 275.433594 24.574219 275.734375 24.480469 276.042969 C 24.390625 276.351562 24.328125 276.664062 24.296875 276.984375 C 24.265625 277.304688 24.265625 277.625 24.296875 277.945312 C 24.324219 278.265625 24.382812 278.582031 24.472656 278.890625 C 24.5625 279.199219 24.679688 279.496094 24.828125 279.78125 C 25.136719 280.402344 25.554688 280.9375 26.082031 281.386719 C 26.613281 281.835938 27.207031 282.164062 27.871094 282.371094 C 28.539062 282.574219 29.222656 282.636719 29.921875 282.554688 C 30.617188 282.476562 31.269531 282.261719 31.875 281.914062 C 34.207031 280.542969 45.414062 289.367188 49.621094 292.664062 C 54.511719 297.050781 59.933594 300.617188 65.898438 303.363281 C 70.246094 304.789062 74.710938 305.5 79.285156 305.496094 C 81.6875 305.492188 84.070312 305.273438 86.433594 304.835938 C 87.957031 306.964844 89.644531 309.148438 91.503906 311.378906 C 95.359375 316.449219 103.371094 326.949219 101.648438 329.6875 C 101.296875 330.292969 101.082031 330.945312 101.003906 331.640625 C 100.925781 332.339844 100.988281 333.023438 101.191406 333.691406 C 101.347656 334.234375 101.589844 334.738281 101.917969 335.203125 C 102.242188 335.664062 102.636719 336.0625 103.097656 336.390625 C 103.554688 336.722656 104.058594 336.96875 104.597656 337.132812 C 105.140625 337.296875 105.695312 337.367188 106.261719 337.34375 C 107.171875 337.347656 108.019531 337.121094 108.808594 336.667969 C 109.597656 336.214844 110.21875 335.597656 110.671875 334.808594 C 112.144531 332.222656 125.882812 333.894531 131.511719 334.808594 L 135.113281 335.214844 C 136.058594 338.035156 137.371094 340.671875 139.050781 343.128906 C 140.730469 345.582031 142.714844 347.761719 145 349.667969 C 150.335938 353.445312 156.117188 356.335938 162.339844 358.339844 C 167.816406 360.46875 180.59375 365.542969 180.59375 368.484375 C 180.59375 368.816406 180.628906 369.144531 180.691406 369.472656 C 180.757812 369.796875 180.855469 370.117188 180.980469 370.421875 C 181.109375 370.730469 181.265625 371.023438 181.449219 371.300781 C 181.636719 371.578125 181.84375 371.832031 182.082031 372.070312 C 182.316406 372.304688 182.574219 372.515625 182.847656 372.699219 C 183.125 372.882812 183.417969 373.039062 183.726562 373.167969 C 184.035156 373.296875 184.351562 373.390625 184.675781 373.457031 C 185.003906 373.523438 185.332031 373.554688 185.667969 373.554688 C 186 373.554688 186.328125 373.523438 186.65625 373.457031 C 186.980469 373.390625 187.300781 373.296875 187.605469 373.167969 C 187.914062 373.039062 188.207031 372.882812 188.484375 372.699219 C 188.761719 372.515625 189.015625 372.304688 189.25 372.070312 C 189.488281 371.832031 189.699219 371.578125 189.882812 371.300781 C 190.066406 371.023438 190.222656 370.730469 190.351562 370.421875 C 190.476562 370.117188 190.574219 369.796875 190.640625 369.472656 C 190.703125 369.144531 190.738281 368.816406 190.738281 368.484375 C 190.738281 365.792969 203.921875 360.519531 208.941406 358.339844 C 215.179688 356.292969 220.976562 353.371094 226.332031 349.566406 C 231.1875 345.242188 234.835938 340.070312 237.285156 334.046875 C 240.175781 334.046875 243.21875 333.488281 246.359375 333.03125 C 252.648438 332.222656 265.730469 330.546875 267.351562 333.335938 C 267.8125 334.117188 268.4375 334.726562 269.226562 335.171875 C 270.015625 335.613281 270.859375 335.832031 271.765625 335.824219 C 271.984375 335.820312 272.207031 335.804688 272.425781 335.773438 C 272.644531 335.746094 272.859375 335.699219 273.074219 335.644531 C 273.285156 335.585938 273.492188 335.511719 273.699219 335.425781 C 273.902344 335.339844 274.097656 335.242188 274.289062 335.132812 C 274.480469 335.019531 274.664062 334.898438 274.835938 334.761719 C 275.011719 334.625 275.175781 334.480469 275.332031 334.324219 C 275.488281 334.167969 275.632812 334 275.765625 333.824219 C 275.902344 333.648438 276.023438 333.464844 276.132812 333.273438 C 276.242188 333.082031 276.339844 332.882812 276.425781 332.679688 C 276.507812 332.476562 276.578125 332.265625 276.636719 332.050781 C 276.691406 331.839844 276.734375 331.621094 276.761719 331.402344 C 276.792969 331.183594 276.804688 330.964844 276.804688 330.742188 C 276.804688 330.523438 276.789062 330.300781 276.761719 330.082031 C 276.730469 329.863281 276.6875 329.648438 276.632812 329.433594 C 276.574219 329.222656 276.503906 329.011719 276.417969 328.808594 C 276.332031 328.605469 276.234375 328.40625 276.125 328.214844 C 274.65625 325.628906 282.871094 314.726562 286.265625 310.058594 L 289.511719 305.699219 C 291.023438 305.960938 292.542969 306.09375 294.074219 306.105469 C 298.039062 306.050781 301.890625 305.375 305.636719 304.074219 C 311.566406 301.34375 316.957031 297.792969 321.8125 293.425781 C 326.375 289.773438 337.023438 281.203125 339.660156 282.621094 C 340.199219 282.933594 340.773438 283.136719 341.386719 283.234375 C 342 283.332031 342.609375 283.316406 343.214844 283.191406 C 343.824219 283.0625 344.386719 282.835938 344.910156 282.5 C 345.433594 282.167969 345.882812 281.75 346.25 281.253906 C 346.6875 280.671875 346.984375 280.03125 347.144531 279.324219 C 347.300781 278.617188 347.308594 277.90625 347.164062 277.195312 C 347.023438 276.480469 346.738281 275.828125 346.3125 275.234375 C 345.890625 274.640625 345.359375 274.164062 344.730469 273.796875 C 342.449219 272.480469 344.476562 258.585938 345.238281 253.054688 C 346.578125 246.636719 346.929688 240.160156 346.300781 233.632812 C 345.054688 227.640625 342.636719 222.164062 339.050781 217.199219 C 340.117188 214.816406 341.179688 212.128906 342.296875 209.746094 C 344.730469 203.863281 349.800781 191.691406 352.996094 191.691406 C 353.328125 191.691406 353.65625 191.660156 353.984375 191.59375 C 354.3125 191.527344 354.628906 191.433594 354.9375 191.304688 C 355.242188 191.179688 355.535156 191.023438 355.8125 190.835938 C 356.089844 190.652344 356.34375 190.441406 356.582031 190.207031 C 356.816406 189.96875 357.027344 189.714844 357.210938 189.4375 C 357.394531 189.160156 357.550781 188.867188 357.679688 188.5625 C 357.808594 188.253906 357.902344 187.9375 357.96875 187.609375 C 358.035156 187.28125 358.066406 186.953125 358.066406 186.621094 C 358.066406 186.285156 358.035156 185.957031 357.96875 185.628906 C 357.902344 185.304688 357.808594 184.988281 357.679688 184.679688 C 357.550781 184.371094 357.394531 184.078125 357.210938 183.800781 C 357.027344 183.523438 356.816406 183.269531 356.582031 183.035156 C 356.34375 182.796875 356.089844 182.589844 355.8125 182.402344 C 355.535156 182.21875 355.242188 182.0625 354.9375 181.933594 C 354.628906 181.808594 354.3125 181.710938 353.984375 181.644531 C 353.65625 181.582031 353.328125 181.546875 352.996094 181.546875 Z M 302.695312 81.082031 C 307.503906 83.53125 311.933594 86.539062 315.980469 90.109375 C 321.480469 94.980469 327.5625 98.953125 334.234375 102.027344 C 333.511719 109.460938 333.917969 116.832031 335.449219 124.140625 C 336.542969 129.359375 336.949219 134.636719 336.667969 139.960938 C 336.167969 142.589844 335.304688 145.089844 334.082031 147.46875 L 333.167969 146.300781 C 331.832031 144.867188 330.339844 143.609375 328.703125 142.527344 C 327.0625 141.449219 325.320312 140.578125 323.46875 139.917969 C 321.621094 139.253906 319.722656 138.820312 317.769531 138.613281 C 315.816406 138.40625 313.871094 138.433594 311.921875 138.695312 C 311.621094 129.363281 312.226562 120.589844 316.589844 118.054688 C 317.191406 117.699219 317.703125 117.242188 318.117188 116.675781 C 318.53125 116.113281 318.816406 115.488281 318.972656 114.808594 C 319.085938 114.328125 319.128906 113.839844 319.101562 113.34375 C 319.074219 112.851562 318.976562 112.371094 318.808594 111.90625 C 318.640625 111.4375 318.410156 111.007812 318.113281 110.609375 C 317.820312 110.210938 317.472656 109.863281 317.078125 109.570312 C 316.683594 109.273438 316.25 109.039062 315.785156 108.867188 C 315.320312 108.699219 314.84375 108.597656 314.347656 108.566406 C 313.855469 108.535156 313.367188 108.578125 312.886719 108.691406 C 312.402344 108.804688 311.949219 108.984375 311.519531 109.230469 C 307.207031 111.714844 298.941406 107.503906 290.730469 102.382812 C 291.773438 100.832031 292.632812 99.179688 293.304688 97.433594 C 293.976562 95.6875 294.445312 93.886719 294.710938 92.03125 C 294.972656 90.179688 295.027344 88.320312 294.867188 86.453125 C 294.707031 84.585938 294.34375 82.765625 293.769531 80.980469 C 293.769531 80.472656 293.265625 79.917969 293.0625 79.359375 C 296.359375 79.441406 299.570312 80.015625 302.695312 81.082031 Z M 302.390625 149.648438 C 303.363281 156.902344 303.246094 164.136719 302.035156 171.355469 C 301.734375 172.121094 301.375 172.855469 300.957031 173.566406 C 300.539062 174.277344 300.074219 174.949219 299.550781 175.585938 C 299.03125 176.226562 298.46875 176.820312 297.855469 177.371094 C 297.246094 177.921875 296.597656 178.421875 295.90625 178.875 C 295.21875 179.324219 294.5 179.722656 293.753906 180.0625 C 293.003906 180.402344 292.234375 180.683594 291.441406 180.90625 C 290.648438 181.128906 289.84375 181.289062 289.027344 181.390625 C 288.210938 181.488281 287.394531 181.523438 286.570312 181.496094 C 286.371094 177.59375 285.945312 173.714844 285.296875 169.863281 C 284.648438 166.007812 283.78125 162.203125 282.695312 158.449219 C 281.605469 154.695312 280.304688 151.015625 278.792969 147.414062 C 277.277344 143.808594 275.5625 140.304688 273.644531 136.902344 C 271.726562 133.496094 269.617188 130.210938 267.320312 127.050781 C 265.023438 123.890625 262.550781 120.871094 259.90625 117.996094 C 257.257812 115.121094 254.457031 112.40625 251.496094 109.855469 C 248.535156 107.304688 245.4375 104.929688 242.203125 102.738281 C 242.605469 102.070312 243.054688 101.433594 243.550781 100.832031 C 244.046875 100.226562 244.585938 99.667969 245.164062 99.144531 C 245.746094 98.621094 246.359375 98.148438 247.011719 97.71875 C 247.664062 97.285156 248.34375 96.90625 249.050781 96.578125 C 249.757812 96.25 250.488281 95.976562 251.238281 95.757812 C 251.984375 95.539062 252.746094 95.375 253.519531 95.269531 C 254.292969 95.164062 255.070312 95.117188 255.851562 95.128906 C 256.628906 95.140625 257.40625 95.207031 258.175781 95.332031 C 265.132812 97.914062 271.554688 101.464844 277.445312 105.984375 C 285.410156 111.988281 294.132812 116.554688 303.609375 119.675781 C 301.375 129.59375 300.96875 139.582031 302.390625 149.648438 Z M 303.507812 255.339844 C 293.820312 258.351562 284.980469 262.984375 276.988281 269.234375 C 271.171875 273.695312 264.835938 277.210938 257.972656 279.78125 C 257.148438 279.90625 256.320312 279.960938 255.488281 279.957031 C 254.65625 279.949219 253.828125 279.878906 253.003906 279.746094 C 252.183594 279.613281 251.375 279.417969 250.585938 279.160156 C 249.792969 278.898438 249.027344 278.582031 248.28125 278.203125 C 247.539062 277.828125 246.832031 277.394531 246.15625 276.910156 C 245.480469 276.421875 244.84375 275.886719 244.25 275.300781 C 243.660156 274.71875 243.113281 274.089844 242.617188 273.421875 C 242.121094 272.753906 241.679688 272.050781 241.289062 271.3125 C 244.53125 269.171875 247.636719 266.847656 250.609375 264.347656 C 253.582031 261.847656 256.402344 259.183594 259.070312 256.359375 C 261.738281 253.535156 264.234375 250.566406 266.5625 247.457031 C 268.886719 244.34375 271.027344 241.109375 272.980469 237.75 C 274.9375 234.394531 276.691406 230.9375 278.25 227.375 C 279.808594 223.816406 281.15625 220.179688 282.292969 216.464844 C 283.433594 212.75 284.355469 208.984375 285.0625 205.164062 C 285.769531 201.34375 286.253906 197.496094 286.519531 193.617188 C 287.332031 193.601562 288.140625 193.644531 288.945312 193.75 C 289.753906 193.859375 290.546875 194.023438 291.324219 194.25 C 292.105469 194.480469 292.863281 194.765625 293.601562 195.105469 C 294.335938 195.449219 295.042969 195.847656 295.71875 196.296875 C 296.394531 196.75 297.035156 197.25 297.632812 197.796875 C 298.234375 198.34375 298.789062 198.933594 299.300781 199.566406 C 299.808594 200.199219 300.265625 200.867188 300.675781 201.570312 C 301.082031 202.273438 301.433594 203.003906 301.730469 203.761719 C 302.957031 211.074219 303.109375 218.414062 302.1875 225.773438 C 300.957031 235.703125 301.398438 245.558594 303.507812 255.339844 Z M 210.765625 307.523438 C 201.5625 311.375 193.261719 316.648438 185.867188 323.347656 C 178.386719 316.472656 169.933594 311.128906 160.515625 307.320312 C 153.742188 304.53125 147.523438 300.8125 141.855469 296.164062 C 141.347656 295.53125 140.890625 294.863281 140.484375 294.164062 C 140.078125 293.460938 139.726562 292.734375 139.429688 291.980469 C 139.132812 291.222656 138.898438 290.449219 138.71875 289.660156 C 138.539062 288.867188 138.421875 288.066406 138.367188 287.257812 C 138.3125 286.449219 138.316406 285.640625 138.382812 284.832031 C 138.449219 284.023438 138.578125 283.226562 138.765625 282.4375 C 138.953125 281.648438 139.199219 280.878906 139.507812 280.128906 C 139.8125 279.375 140.171875 278.652344 140.589844 277.957031 C 144.078125 279.691406 147.652344 281.21875 151.320312 282.539062 C 154.984375 283.855469 158.714844 284.957031 162.507812 285.84375 C 166.304688 286.726562 170.136719 287.386719 174.007812 287.824219 C 177.878906 288.261719 181.761719 288.472656 185.65625 288.457031 C 189.554688 288.441406 193.433594 288.199219 197.300781 287.730469 C 201.171875 287.265625 204.996094 286.574219 208.785156 285.660156 C 212.570312 284.746094 216.292969 283.617188 219.949219 282.269531 C 223.601562 280.921875 227.167969 279.363281 230.640625 277.601562 C 231.074219 278.304688 231.449219 279.039062 231.769531 279.800781 C 232.089844 280.5625 232.351562 281.34375 232.554688 282.144531 C 232.753906 282.945312 232.894531 283.757812 232.972656 284.578125 C 233.050781 285.402344 233.066406 286.226562 233.019531 287.050781 C 232.972656 287.875 232.863281 288.691406 232.691406 289.5 C 232.519531 290.308594 232.289062 291.097656 231.996094 291.871094 C 231.703125 292.644531 231.355469 293.390625 230.949219 294.109375 C 230.542969 294.828125 230.085938 295.511719 229.578125 296.164062 C 223.84375 300.839844 217.574219 304.625 210.765625 307.523438 Z M 68.332031 255.339844 C 70.507812 245.4375 70.910156 235.460938 69.550781 225.417969 C 68.5625 218.148438 68.664062 210.898438 69.855469 203.660156 C 70.125 202.933594 70.449219 202.230469 70.824219 201.554688 C 71.203125 200.878906 71.625 200.230469 72.097656 199.617188 C 72.570312 199 73.085938 198.425781 73.640625 197.886719 C 74.199219 197.351562 74.792969 196.855469 75.425781 196.40625 C 76.058594 195.957031 76.71875 195.558594 77.410156 195.207031 C 78.101562 194.855469 78.8125 194.558594 79.546875 194.3125 C 80.28125 194.066406 81.03125 193.878906 81.796875 193.746094 C 82.558594 193.613281 83.328125 193.535156 84.101562 193.515625 C 84.355469 197.429688 84.828125 201.316406 85.53125 205.175781 C 86.234375 209.03125 87.15625 212.835938 88.296875 216.589844 C 89.441406 220.339844 90.796875 224.011719 92.363281 227.605469 C 93.933594 231.199219 95.703125 234.691406 97.679688 238.078125 C 99.652344 241.46875 101.8125 244.730469 104.167969 247.867188 C 106.519531 251.003906 109.042969 253.996094 111.742188 256.839844 C 114.441406 259.683594 117.292969 262.363281 120.304688 264.878906 C 123.3125 267.390625 126.457031 269.722656 129.738281 271.871094 C 129.339844 272.5625 128.894531 273.222656 128.394531 273.84375 C 127.898438 274.46875 127.355469 275.050781 126.769531 275.59375 C 126.1875 276.136719 125.5625 276.628906 124.902344 277.078125 C 124.242188 277.523438 123.550781 277.917969 122.828125 278.261719 C 122.109375 278.605469 121.367188 278.890625 120.601562 279.121094 C 119.839844 279.351562 119.0625 279.519531 118.269531 279.632812 C 117.480469 279.742188 116.6875 279.796875 115.890625 279.785156 C 115.09375 279.777344 114.300781 279.710938 113.511719 279.578125 C 106.578125 276.976562 100.15625 273.445312 94.242188 268.980469 C 86.382812 262.960938 77.746094 258.414062 68.332031 255.339844 Z M 68.332031 119.523438 C 77.992188 116.457031 86.832031 111.824219 94.851562 105.628906 C 100.636719 101.136719 106.960938 97.605469 113.816406 95.027344 C 114.566406 94.902344 115.324219 94.828125 116.082031 94.8125 C 116.84375 94.796875 117.601562 94.835938 118.359375 94.929688 C 119.113281 95.023438 119.859375 95.175781 120.589844 95.378906 C 121.324219 95.582031 122.039062 95.839844 122.734375 96.148438 C 123.429688 96.460938 124.097656 96.816406 124.742188 97.226562 C 125.382812 97.632812 125.992188 98.085938 126.570312 98.585938 C 127.144531 99.082031 127.683594 99.621094 128.179688 100.199219 C 128.675781 100.773438 129.128906 101.382812 129.535156 102.027344 C 126.230469 104.195312 123.066406 106.546875 120.039062 109.082031 C 117.011719 111.617188 114.140625 114.320312 111.429688 117.191406 C 108.71875 120.0625 106.179688 123.082031 103.820312 126.25 C 101.460938 129.417969 99.296875 132.714844 97.320312 136.132812 C 95.347656 139.554688 93.578125 143.078125 92.015625 146.707031 C 90.453125 150.335938 89.105469 154.042969 87.976562 157.828125 C 86.84375 161.613281 85.941406 165.449219 85.257812 169.339844 C 84.578125 173.230469 84.125 177.148438 83.898438 181.09375 C 83.136719 181.0625 82.375 180.980469 81.625 180.839844 C 80.871094 180.699219 80.132812 180.503906 79.410156 180.257812 C 78.6875 180.007812 77.984375 179.707031 77.308594 179.351562 C 76.628906 179 75.980469 178.597656 75.359375 178.148438 C 74.738281 177.699219 74.15625 177.207031 73.609375 176.671875 C 73.0625 176.136719 72.558594 175.566406 72.097656 174.957031 C 71.632812 174.34375 71.21875 173.703125 70.851562 173.035156 C 70.484375 172.363281 70.167969 171.667969 69.90625 170.949219 C 68.738281 163.589844 68.652344 156.21875 69.652344 148.835938 C 70.886719 139 70.480469 129.226562 68.433594 119.523438 Z M 142.210938 78.953125 C 147.960938 74.265625 154.265625 70.515625 161.125 67.695312 C 170.335938 63.855469 178.652344 58.597656 186.070312 51.921875 C 193.566406 58.777344 202.015625 64.121094 211.425781 67.949219 C 218.191406 70.75 224.410156 74.46875 230.085938 79.105469 C 230.582031 79.714844 231.03125 80.355469 231.429688 81.03125 C 231.832031 81.707031 232.179688 82.410156 232.472656 83.136719 C 232.769531 83.863281 233.007812 84.609375 233.191406 85.375 C 233.375 86.136719 233.5 86.910156 233.566406 87.695312 C 233.632812 88.476562 233.644531 89.261719 233.59375 90.042969 C 233.542969 90.828125 233.433594 91.605469 233.269531 92.371094 C 233.101562 93.140625 232.878906 93.890625 232.601562 94.625 C 232.324219 95.359375 231.992188 96.070312 231.605469 96.753906 C 228.097656 94.929688 224.496094 93.320312 220.796875 91.921875 C 217.101562 90.523438 213.335938 89.351562 209.5 88.398438 C 205.660156 87.445312 201.78125 86.722656 197.859375 86.226562 C 193.941406 85.734375 190.003906 85.472656 186.050781 85.445312 C 182.097656 85.414062 178.15625 85.621094 174.226562 86.058594 C 170.300781 86.496094 166.410156 87.160156 162.5625 88.058594 C 158.710938 88.953125 154.929688 90.074219 151.210938 91.417969 C 147.492188 92.761719 143.867188 94.320312 140.335938 96.09375 C 139.980469 95.414062 139.675781 94.714844 139.425781 93.992188 C 139.175781 93.269531 138.976562 92.53125 138.835938 91.777344 C 138.691406 91.027344 138.605469 90.265625 138.578125 89.5 C 138.546875 88.738281 138.574219 87.972656 138.65625 87.210938 C 138.738281 86.453125 138.878906 85.699219 139.074219 84.960938 C 139.265625 84.21875 139.515625 83.496094 139.816406 82.792969 C 140.117188 82.089844 140.46875 81.410156 140.871094 80.757812 C 141.269531 80.105469 141.71875 79.488281 142.210938 78.902344 Z M 185.3125 278.3125 C 183.816406 278.3125 182.324219 278.273438 180.832031 278.203125 C 179.339844 278.128906 177.851562 278.019531 176.367188 277.871094 C 174.878906 277.726562 173.398438 277.542969 171.917969 277.324219 C 170.441406 277.105469 168.96875 276.847656 167.503906 276.558594 C 166.039062 276.265625 164.582031 275.9375 163.132812 275.578125 C 161.683594 275.214844 160.246094 274.816406 158.816406 274.382812 C 157.386719 273.949219 155.96875 273.480469 154.5625 272.976562 C 153.15625 272.472656 151.761719 271.933594 150.382812 271.363281 C 149.003906 270.792969 147.636719 270.1875 146.289062 269.546875 C 144.9375 268.910156 143.605469 268.238281 142.285156 267.53125 C 140.96875 266.828125 139.671875 266.09375 138.390625 265.324219 C 137.109375 264.554688 135.847656 263.757812 134.605469 262.925781 C 133.363281 262.097656 132.140625 261.238281 130.941406 260.347656 C 129.742188 259.457031 128.566406 258.539062 127.410156 257.589844 C 126.253906 256.644531 125.125 255.667969 124.019531 254.664062 C 122.910156 253.660156 121.828125 252.632812 120.773438 251.574219 C 119.71875 250.519531 118.6875 249.4375 117.683594 248.328125 C 116.679688 247.222656 115.707031 246.09375 114.757812 244.9375 C 113.8125 243.78125 112.890625 242.605469 112.003906 241.40625 C 111.113281 240.203125 110.253906 238.984375 109.421875 237.742188 C 108.59375 236.5 107.792969 235.238281 107.027344 233.957031 C 106.257812 232.675781 105.523438 231.375 104.816406 230.058594 C 104.113281 228.738281 103.441406 227.40625 102.804688 226.054688 C 102.164062 224.703125 101.558594 223.339844 100.988281 221.960938 C 100.417969 220.578125 99.878906 219.1875 99.375 217.777344 C 98.871094 216.371094 98.40625 214.953125 97.972656 213.523438 C 97.539062 212.09375 97.140625 210.65625 96.777344 209.207031 C 96.414062 207.757812 96.085938 206.300781 95.792969 204.835938 C 95.503906 203.371094 95.246094 201.898438 95.027344 200.421875 C 94.808594 198.941406 94.625 197.460938 94.480469 195.972656 C 94.332031 194.488281 94.222656 192.996094 94.152344 191.503906 C 94.078125 190.011719 94.039062 188.519531 94.039062 187.027344 C 94.039062 185.53125 94.078125 184.039062 94.152344 182.546875 C 94.222656 181.054688 94.332031 179.566406 94.480469 178.078125 C 94.625 176.589844 94.808594 175.109375 95.027344 173.632812 C 95.246094 172.152344 95.503906 170.683594 95.792969 169.214844 C 96.085938 167.75 96.414062 166.292969 96.777344 164.84375 C 97.140625 163.394531 97.539062 161.957031 97.972656 160.527344 C 98.40625 159.097656 98.871094 157.679688 99.375 156.273438 C 99.878906 154.867188 100.417969 153.472656 100.988281 152.089844 C 101.558594 150.710938 102.164062 149.347656 102.804688 147.996094 C 103.441406 146.644531 104.113281 145.3125 104.816406 143.992188 C 105.523438 142.675781 106.257812 141.375 107.027344 140.09375 C 107.792969 138.8125 108.59375 137.550781 109.421875 136.308594 C 110.253906 135.066406 111.113281 133.847656 112.003906 132.644531 C 112.890625 131.445312 113.8125 130.269531 114.757812 129.113281 C 115.707031 127.960938 116.679688 126.828125 117.683594 125.722656 C 118.6875 124.613281 119.71875 123.53125 120.773438 122.476562 C 121.828125 121.421875 122.910156 120.390625 124.019531 119.386719 C 125.125 118.382812 126.253906 117.40625 127.410156 116.460938 C 128.566406 115.511719 129.742188 114.59375 130.941406 113.703125 C 132.140625 112.8125 133.363281 111.953125 134.605469 111.125 C 135.847656 110.292969 137.109375 109.496094 138.390625 108.726562 C 139.671875 107.957031 140.96875 107.222656 142.285156 106.519531 C 143.605469 105.8125 144.9375 105.140625 146.289062 104.503906 C 147.636719 103.863281 149.003906 103.257812 150.382812 102.6875 C 151.761719 102.117188 153.15625 101.578125 154.5625 101.074219 C 155.96875 100.570312 157.386719 100.105469 158.816406 99.671875 C 160.246094 99.234375 161.683594 98.839844 163.132812 98.476562 C 164.582031 98.113281 166.039062 97.785156 167.503906 97.492188 C 168.96875 97.203125 170.441406 96.945312 171.917969 96.726562 C 173.398438 96.507812 174.878906 96.324219 176.367188 96.179688 C 177.851562 96.03125 179.339844 95.921875 180.832031 95.847656 C 182.324219 95.777344 183.816406 95.738281 185.3125 95.738281 C 186.804688 95.738281 188.296875 95.777344 189.789062 95.847656 C 191.28125 95.921875 192.769531 96.03125 194.257812 96.179688 C 195.742188 96.324219 197.226562 96.507812 198.703125 96.726562 C 200.179688 96.945312 201.652344 97.203125 203.117188 97.492188 C 204.582031 97.785156 206.039062 98.113281 207.488281 98.476562 C 208.9375 98.839844 210.375 99.234375 211.804688 99.671875 C 213.234375 100.105469 214.652344 100.570312 216.058594 101.074219 C 217.464844 101.578125 218.859375 102.117188 220.238281 102.6875 C 221.617188 103.257812 222.984375 103.863281 224.335938 104.503906 C 225.683594 105.140625 227.019531 105.8125 228.335938 106.519531 C 229.652344 107.222656 230.953125 107.957031 232.234375 108.726562 C 233.515625 109.496094 234.777344 110.292969 236.019531 111.125 C 237.261719 111.953125 238.480469 112.8125 239.679688 113.703125 C 240.878906 114.59375 242.058594 115.511719 243.210938 116.460938 C 244.367188 117.40625 245.496094 118.382812 246.605469 119.386719 C 247.710938 120.390625 248.792969 121.421875 249.847656 122.476562 C 250.90625 123.53125 251.933594 124.613281 252.9375 125.722656 C 253.941406 126.828125 254.917969 127.960938 255.863281 129.113281 C 256.8125 130.269531 257.730469 131.445312 258.621094 132.644531 C 259.511719 133.847656 260.371094 135.066406 261.199219 136.308594 C 262.03125 137.550781 262.828125 138.8125 263.597656 140.09375 C 264.363281 141.375 265.101562 142.675781 265.804688 143.992188 C 266.507812 145.3125 267.179688 146.644531 267.820312 147.996094 C 268.457031 149.347656 269.0625 150.710938 269.632812 152.089844 C 270.207031 153.472656 270.742188 154.867188 271.246094 156.273438 C 271.75 157.679688 272.21875 159.097656 272.652344 160.527344 C 273.085938 161.957031 273.484375 163.394531 273.847656 164.84375 C 274.210938 166.292969 274.535156 167.75 274.828125 169.214844 C 275.121094 170.683594 275.375 172.152344 275.59375 173.632812 C 275.8125 175.109375 275.996094 176.589844 276.140625 178.078125 C 276.289062 179.566406 276.398438 181.054688 276.472656 182.546875 C 276.546875 184.039062 276.582031 185.53125 276.582031 187.027344 C 276.578125 188.519531 276.535156 190.011719 276.460938 191.5 C 276.382812 192.992188 276.269531 194.480469 276.121094 195.964844 C 275.96875 197.449219 275.785156 198.929688 275.5625 200.40625 C 275.339844 201.882812 275.082031 203.355469 274.785156 204.816406 C 274.492188 206.28125 274.164062 207.734375 273.796875 209.183594 C 273.429688 210.632812 273.03125 212.070312 272.59375 213.496094 C 272.160156 214.925781 271.6875 216.339844 271.183594 217.746094 C 270.679688 219.148438 270.140625 220.542969 269.566406 221.921875 C 268.992188 223.296875 268.386719 224.664062 267.746094 226.011719 C 267.109375 227.359375 266.433594 228.691406 265.730469 230.007812 C 265.023438 231.324219 264.289062 232.621094 263.519531 233.902344 C 262.75 235.179688 261.953125 236.441406 261.121094 237.683594 C 260.292969 238.921875 259.433594 240.140625 258.542969 241.339844 C 257.652344 242.539062 256.734375 243.714844 255.785156 244.871094 C 254.839844 246.023438 253.863281 247.152344 252.863281 248.257812 C 251.859375 249.363281 250.832031 250.445312 249.773438 251.5 C 248.71875 252.554688 247.640625 253.585938 246.535156 254.589844 C 245.429688 255.589844 244.296875 256.566406 243.144531 257.515625 C 241.992188 258.460938 240.816406 259.378906 239.617188 260.269531 C 238.417969 261.160156 237.199219 262.019531 235.957031 262.851562 C 234.71875 263.679688 233.457031 264.480469 232.179688 265.25 C 230.898438 266.015625 229.601562 266.753906 228.285156 267.457031 C 226.96875 268.164062 225.636719 268.835938 224.289062 269.476562 C 222.941406 270.117188 221.578125 270.722656 220.199219 271.296875 C 218.820312 271.867188 217.429688 272.40625 216.027344 272.914062 C 214.621094 273.417969 213.207031 273.890625 211.777344 274.324219 C 210.351562 274.761719 208.914062 275.160156 207.464844 275.527344 C 206.019531 275.890625 204.5625 276.222656 203.101562 276.515625 C 201.636719 276.808594 200.167969 277.070312 198.691406 277.292969 C 197.214844 277.511719 195.734375 277.699219 194.25 277.847656 C 192.765625 278 191.277344 278.113281 189.785156 278.191406 C 188.296875 278.265625 186.804688 278.308594 185.3125 278.3125 Z M 263.90625 52.480469 C 266.800781 59.261719 270.65625 65.449219 275.464844 71.042969 C 278.941406 75.042969 281.816406 79.4375 284.085938 84.226562 C 284.449219 85.296875 284.683594 86.390625 284.792969 87.515625 C 284.898438 88.640625 284.878906 89.757812 284.722656 90.878906 C 284.570312 91.996094 284.289062 93.082031 283.878906 94.132812 C 283.472656 95.1875 282.949219 96.179688 282.3125 97.109375 C 275.65625 92.042969 268.351562 88.207031 260.40625 85.597656 C 258.996094 85.257812 257.566406 85.054688 256.117188 84.988281 C 254.667969 84.917969 253.222656 84.988281 251.789062 85.191406 C 250.351562 85.394531 248.945312 85.730469 247.574219 86.199219 C 246.199219 86.667969 244.882812 87.261719 243.621094 87.980469 C 243.640625 86.515625 243.519531 85.066406 243.257812 83.625 C 242.996094 82.183594 242.601562 80.78125 242.074219 79.417969 C 241.542969 78.054688 240.886719 76.753906 240.109375 75.515625 C 239.328125 74.277344 238.4375 73.121094 237.4375 72.054688 C 231.214844 66.519531 224.253906 62.175781 216.546875 59.023438 C 216.992188 58.007812 217.550781 57.058594 218.214844 56.175781 C 218.882812 55.289062 219.636719 54.488281 220.484375 53.777344 C 221.335938 53.066406 222.25 52.457031 223.238281 51.957031 C 224.226562 51.457031 225.257812 51.070312 226.332031 50.804688 C 231.675781 50.402344 236.980469 50.671875 242.253906 51.617188 C 249.429688 52.960938 256.644531 53.246094 263.90625 52.480469 Z M 152.351562 33.003906 C 156.871094 30.050781 161.6875 27.71875 166.804688 26.007812 C 173.75 23.660156 180.222656 20.378906 186.222656 16.167969 C 192.28125 20.558594 198.855469 23.9375 205.949219 26.3125 C 211.03125 27.96875 215.8125 30.25 220.296875 33.15625 C 222.84375 35.300781 224.871094 37.851562 226.382812 40.816406 C 225.671875 40.816406 224.914062 40.816406 224.253906 41.070312 C 222.453125 41.5 220.726562 42.128906 219.070312 42.953125 C 217.414062 43.773438 215.867188 44.773438 214.4375 45.945312 C 213.007812 47.117188 211.722656 48.433594 210.589844 49.898438 C 209.457031 51.359375 208.5 52.929688 207.722656 54.609375 C 199.152344 50.148438 191.394531 45.074219 191.394531 39.851562 C 191.394531 39.519531 191.363281 39.1875 191.296875 38.863281 C 191.234375 38.535156 191.136719 38.21875 191.011719 37.910156 C 190.882812 37.601562 190.726562 37.3125 190.542969 37.035156 C 190.355469 36.757812 190.144531 36.5 189.910156 36.265625 C 189.675781 36.03125 189.417969 35.820312 189.140625 35.636719 C 188.867188 35.449219 188.574219 35.292969 188.265625 35.167969 C 187.957031 35.039062 187.640625 34.941406 187.316406 34.878906 C 186.988281 34.8125 186.660156 34.78125 186.324219 34.78125 C 185.992188 34.78125 185.664062 34.8125 185.335938 34.878906 C 185.007812 34.941406 184.691406 35.039062 184.386719 35.167969 C 184.078125 35.292969 183.785156 35.449219 183.507812 35.636719 C 183.230469 35.820312 182.976562 36.03125 182.738281 36.265625 C 182.503906 36.5 182.292969 36.757812 182.109375 37.035156 C 181.925781 37.3125 181.769531 37.601562 181.640625 37.910156 C 181.511719 38.21875 181.417969 38.535156 181.351562 38.863281 C 181.289062 39.1875 181.253906 39.519531 181.253906 39.851562 C 181.253906 44.921875 173.191406 49.996094 164.472656 54.660156 C 163.613281 53.109375 162.601562 51.664062 161.433594 50.328125 C 160.269531 48.988281 158.976562 47.789062 157.554688 46.726562 C 156.132812 45.664062 154.617188 44.765625 153.007812 44.023438 C 151.394531 43.285156 149.722656 42.722656 147.992188 42.335938 C 147.027344 42.285156 146.066406 42.285156 145.101562 42.335938 C 146.925781 38.765625 149.339844 35.652344 152.351562 33.003906 Z M 108.289062 54.050781 C 115.613281 54.921875 122.898438 54.667969 130.144531 53.289062 C 135.34375 52.296875 140.582031 51.992188 145.863281 52.378906 C 147.839844 52.8125 149.660156 53.609375 151.324219 54.769531 C 152.984375 55.929688 154.359375 57.363281 155.445312 59.074219 C 147.972656 62.285156 141.210938 66.613281 135.164062 72.054688 C 134.140625 73.113281 133.222656 74.261719 132.417969 75.496094 C 131.609375 76.730469 130.925781 78.027344 130.367188 79.390625 C 129.808594 80.753906 129.378906 82.15625 129.085938 83.601562 C 128.792969 85.046875 128.636719 86.507812 128.621094 87.980469 C 127.375 87.21875 126.066406 86.582031 124.695312 86.070312 C 123.324219 85.558594 121.921875 85.179688 120.480469 84.9375 C 119.035156 84.695312 117.585938 84.589844 116.125 84.625 C 114.660156 84.65625 113.214844 84.828125 111.789062 85.140625 C 103.699219 87.863281 96.28125 91.835938 89.527344 97.058594 C 88.503906 95.347656 87.867188 93.503906 87.617188 91.527344 C 87.371094 89.550781 87.535156 87.605469 88.109375 85.699219 C 90.335938 80.859375 93.160156 76.394531 96.578125 72.308594 C 101.320312 66.789062 105.175781 60.703125 108.136719 54.050781 Z M 35.273438 139.304688 C 35.011719 133.976562 35.417969 128.703125 36.488281 123.480469 C 37.929688 116.300781 38.320312 109.066406 37.65625 101.773438 C 44.394531 98.589844 50.515625 94.484375 56.011719 89.449219 C 59.980469 85.886719 64.339844 82.894531 69.09375 80.472656 C 72.539062 79.199219 76.085938 78.746094 79.742188 79.105469 C 79.113281 80.253906 78.605469 81.453125 78.222656 82.707031 C 77.710938 84.363281 77.382812 86.058594 77.238281 87.785156 C 77.09375 89.515625 77.132812 91.238281 77.359375 92.960938 C 77.589844 94.679688 77.996094 96.355469 78.585938 97.988281 C 79.175781 99.617188 79.933594 101.167969 80.855469 102.636719 C 72.898438 107.707031 64.886719 111.5625 60.574219 109.027344 C 59.96875 108.675781 59.316406 108.460938 58.621094 108.382812 C 57.921875 108.304688 57.238281 108.367188 56.570312 108.570312 C 55.890625 108.773438 55.285156 109.105469 54.746094 109.566406 C 54.210938 110.023438 53.785156 110.570312 53.476562 111.207031 C 53.335938 111.492188 53.222656 111.792969 53.136719 112.101562 C 53.050781 112.40625 52.996094 112.722656 52.96875 113.039062 C 52.945312 113.359375 52.949219 113.675781 52.984375 113.996094 C 53.015625 114.3125 53.082031 114.625 53.175781 114.929688 C 53.269531 115.238281 53.390625 115.53125 53.539062 115.8125 C 53.6875 116.097656 53.863281 116.363281 54.0625 116.613281 C 54.261719 116.863281 54.480469 117.09375 54.722656 117.300781 C 54.96875 117.507812 55.226562 117.691406 55.503906 117.851562 C 60.117188 120.488281 60.320312 130.984375 59.863281 141.28125 C 58.140625 141.304688 56.441406 141.5 54.757812 141.871094 C 53.074219 142.238281 51.445312 142.777344 49.871094 143.476562 C 48.296875 144.179688 46.8125 145.03125 45.410156 146.039062 C 44.011719 147.042969 42.726562 148.179688 41.558594 149.445312 C 41.15625 149.953125 40.75 150.5625 40.34375 151.121094 C 37.863281 147.519531 36.175781 143.582031 35.273438 139.304688 Z M 31.722656 190.019531 C 36.078125 184.089844 39.460938 177.648438 41.863281 170.695312 C 43.617188 165.6875 45.984375 160.988281 48.964844 156.597656 C 50.265625 155.128906 51.789062 153.957031 53.542969 153.082031 C 55.296875 152.203125 57.152344 151.683594 59.105469 151.523438 C 58.269531 159.15625 58.710938 166.710938 60.421875 174.195312 C 60.851562 175.582031 61.40625 176.914062 62.089844 178.195312 C 62.773438 179.476562 63.570312 180.679688 64.480469 181.8125 C 65.390625 182.941406 66.402344 183.972656 67.511719 184.910156 C 68.621094 185.847656 69.804688 186.667969 71.070312 187.378906 C 69.777344 188.089844 68.566406 188.914062 67.433594 189.859375 C 66.300781 190.800781 65.273438 191.84375 64.339844 192.988281 C 63.410156 194.132812 62.601562 195.351562 61.90625 196.652344 C 61.214844 197.953125 60.652344 199.308594 60.21875 200.71875 C 58.519531 209.125 58.25 217.578125 59.410156 226.074219 C 59.410156 226.53125 59.410156 226.988281 59.410156 227.394531 C 57.433594 227.425781 55.539062 227.058594 53.722656 226.289062 C 51.902344 225.519531 50.316406 224.417969 48.964844 222.980469 C 45.960938 218.542969 43.578125 213.792969 41.8125 208.730469 C 39.367188 201.921875 36.003906 195.597656 31.722656 189.765625 Z M 68.890625 293.984375 C 64.089844 291.523438 59.660156 288.515625 55.605469 284.957031 C 50.105469 280.117188 44.039062 276.144531 37.402344 273.039062 C 38.097656 265.625 37.691406 258.269531 36.1875 250.976562 C 35.050781 245.726562 34.625 240.417969 34.917969 235.050781 C 35.511719 231.703125 36.746094 228.609375 38.621094 225.773438 C 39.476562 227.304688 40.488281 228.726562 41.660156 230.03125 C 42.8125 231.261719 44.078125 232.355469 45.460938 233.320312 C 46.839844 234.285156 48.304688 235.097656 49.855469 235.757812 C 51.40625 236.417969 53.007812 236.910156 54.660156 237.234375 C 56.308594 237.558594 57.980469 237.710938 59.664062 237.691406 L 60.015625 237.691406 C 60.015625 246.464844 59.511719 254.578125 55.351562 256.960938 C 55.070312 257.121094 54.808594 257.304688 54.5625 257.511719 C 54.316406 257.722656 54.09375 257.953125 53.894531 258.207031 C 53.691406 258.457031 53.515625 258.726562 53.367188 259.011719 C 53.214844 259.296875 53.09375 259.59375 53 259.902344 C 52.90625 260.210938 52.84375 260.527344 52.808594 260.847656 C 52.777344 261.167969 52.773438 261.488281 52.800781 261.808594 C 52.828125 262.132812 52.886719 262.449219 52.972656 262.757812 C 53.0625 263.066406 53.179688 263.367188 53.324219 263.65625 C 53.476562 263.96875 53.664062 264.257812 53.878906 264.53125 C 54.089844 264.804688 54.332031 265.054688 54.597656 265.28125 C 54.863281 265.503906 55.148438 265.699219 55.453125 265.863281 C 55.757812 266.03125 56.078125 266.164062 56.410156 266.261719 C 56.742188 266.363281 57.082031 266.425781 57.429688 266.457031 C 57.777344 266.488281 58.121094 266.480469 58.464844 266.441406 C 58.8125 266.398438 59.148438 266.324219 59.476562 266.214844 C 59.808594 266.101562 60.121094 265.960938 60.421875 265.785156 C 65.1875 263.046875 74.773438 268.472656 83.746094 274.253906 C 82.773438 275.796875 81.980469 277.425781 81.363281 279.144531 C 80.746094 280.859375 80.320312 282.621094 80.089844 284.429688 C 79.859375 286.238281 79.824219 288.050781 79.988281 289.867188 C 80.152344 291.683594 80.507812 293.460938 81.058594 295.199219 C 76.90625 295.511719 72.851562 295.023438 68.890625 293.730469 Z M 110.976562 324.058594 C 108.078125 317.273438 104.226562 311.085938 99.414062 305.496094 C 95.9375 301.496094 93.066406 297.097656 90.796875 292.308594 C 90.453125 291.289062 90.222656 290.242188 90.113281 289.171875 C 90 288.101562 90.003906 287.03125 90.125 285.964844 C 90.25 284.894531 90.484375 283.851562 90.839844 282.835938 C 91.191406 281.816406 91.648438 280.851562 92.214844 279.933594 C 98.09375 284.386719 104.53125 287.769531 111.535156 290.078125 C 113.207031 290.421875 114.898438 290.609375 116.605469 290.636719 C 120.707031 290.621094 124.527344 289.574219 128.066406 287.492188 C 128.050781 288.960938 128.175781 290.421875 128.441406 291.867188 C 128.703125 293.3125 129.097656 294.722656 129.628906 296.09375 C 130.160156 297.464844 130.8125 298.777344 131.589844 300.023438 C 132.367188 301.273438 133.253906 302.4375 134.25 303.515625 C 140.824219 308.96875 148.109375 313.195312 156.105469 316.195312 L 158.132812 317.210938 C 157.675781 318.195312 157.117188 319.117188 156.453125 319.976562 C 155.789062 320.832031 155.039062 321.605469 154.199219 322.296875 C 153.359375 322.984375 152.457031 323.574219 151.484375 324.058594 C 150.515625 324.542969 149.503906 324.914062 148.449219 325.171875 C 143.101562 325.582031 137.796875 325.292969 132.527344 324.308594 C 125.367188 323.121094 118.183594 322.953125 110.976562 323.804688 Z M 219.4375 342.109375 C 214.890625 345.03125 210.058594 347.347656 204.933594 349.058594 C 198 351.425781 191.527344 354.707031 185.515625 358.898438 C 179.457031 354.507812 172.882812 351.125 165.789062 348.753906 C 160.738281 347.066406 155.972656 344.785156 151.492188 341.910156 C 149.46875 340.15625 147.777344 338.125 146.421875 335.824219 C 147.902344 335.769531 149.375 335.597656 150.832031 335.316406 C 152.605469 334.890625 154.3125 334.277344 155.953125 333.476562 C 157.589844 332.671875 159.121094 331.699219 160.539062 330.554688 C 161.960938 329.40625 163.238281 328.121094 164.371094 326.691406 C 165.507812 325.261719 166.46875 323.722656 167.261719 322.078125 C 174.613281 326.1875 180.796875 330.75 180.796875 335.367188 C 180.796875 335.699219 180.832031 336.027344 180.894531 336.355469 C 180.960938 336.683594 181.058594 337 181.183594 337.308594 C 181.3125 337.613281 181.46875 337.90625 181.652344 338.183594 C 181.839844 338.460938 182.046875 338.714844 182.285156 338.953125 C 182.519531 339.1875 182.773438 339.398438 183.050781 339.582031 C 183.328125 339.769531 183.621094 339.925781 183.929688 340.050781 C 184.234375 340.179688 184.554688 340.273438 184.878906 340.339844 C 185.207031 340.40625 185.535156 340.4375 185.867188 340.4375 C 186.203125 340.4375 186.53125 340.40625 186.859375 340.339844 C 187.183594 340.273438 187.5 340.179688 187.808594 340.050781 C 188.117188 339.925781 188.410156 339.769531 188.6875 339.582031 C 188.964844 339.398438 189.21875 339.1875 189.453125 338.953125 C 189.691406 338.714844 189.898438 338.460938 190.085938 338.183594 C 190.269531 337.90625 190.425781 337.613281 190.554688 337.308594 C 190.679688 337 190.777344 336.683594 190.84375 336.355469 C 190.90625 336.027344 190.941406 335.699219 190.941406 335.367188 C 190.941406 329.992188 200.167969 324.410156 209.546875 319.59375 C 210.320312 321.304688 211.273438 322.90625 212.40625 324.402344 C 213.542969 325.898438 214.828125 327.246094 216.269531 328.449219 C 217.710938 329.65625 219.265625 330.679688 220.941406 331.53125 C 222.613281 332.382812 224.359375 333.035156 226.179688 333.488281 C 224.390625 336.648438 222.144531 339.4375 219.4375 341.859375 Z M 266.695312 322.382812 C 259.371094 321.515625 252.085938 321.769531 244.839844 323.144531 C 239.640625 324.136719 234.402344 324.441406 229.121094 324.058594 C 228.019531 323.824219 226.960938 323.472656 225.945312 322.992188 C 224.925781 322.515625 223.976562 321.925781 223.097656 321.226562 C 222.214844 320.523438 221.429688 319.734375 220.734375 318.847656 C 220.039062 317.964844 219.453125 317.011719 218.980469 315.992188 C 218.855469 315.765625 218.722656 315.546875 218.574219 315.332031 C 225.464844 312.347656 231.6875 308.328125 237.234375 303.261719 C 239.214844 301.125 240.738281 298.699219 241.808594 295.984375 C 242.875 293.273438 243.414062 290.457031 243.421875 287.542969 C 247.027344 289.632812 250.914062 290.699219 255.082031 290.738281 C 256.789062 290.710938 258.480469 290.527344 260.152344 290.179688 C 268.316406 287.414062 275.804688 283.390625 282.617188 278.109375 L 283.882812 277.246094 C 284.632812 278.160156 285.261719 279.152344 285.769531 280.21875 C 286.277344 281.285156 286.648438 282.394531 286.886719 283.554688 C 287.125 284.710938 287.222656 285.878906 287.179688 287.058594 C 287.132812 288.242188 286.949219 289.398438 286.621094 290.535156 C 284.332031 295.386719 281.441406 299.847656 277.949219 303.921875 C 273.320312 309.449219 269.566406 315.515625 266.695312 322.128906 Z M 335.148438 251.789062 C 333.691406 258.980469 333.285156 266.234375 333.929688 273.542969 C 327.152344 276.632812 320.980469 280.65625 315.421875 285.613281 C 311.441406 289.171875 307.078125 292.183594 302.339844 294.640625 C 300.117188 295.402344 297.835938 295.878906 295.496094 296.0625 C 295.871094 295.308594 296.195312 294.53125 296.457031 293.730469 C 297.011719 291.867188 297.339844 289.964844 297.441406 288.023438 C 297.546875 286.085938 297.425781 284.160156 297.078125 282.246094 C 296.730469 280.335938 296.164062 278.488281 295.382812 276.710938 C 294.601562 274.933594 293.625 273.269531 292.453125 271.71875 C 299.90625 267.207031 307.207031 263.859375 311.316406 266.242188 C 311.921875 266.589844 312.574219 266.804688 313.269531 266.886719 C 313.96875 266.964844 314.652344 266.902344 315.320312 266.699219 C 315.984375 266.492188 316.578125 266.167969 317.109375 265.71875 C 317.636719 265.269531 318.054688 264.734375 318.363281 264.113281 C 318.503906 263.828125 318.621094 263.53125 318.707031 263.222656 C 318.792969 262.917969 318.851562 262.605469 318.878906 262.285156 C 318.90625 261.96875 318.902344 261.652344 318.871094 261.332031 C 318.839844 261.015625 318.777344 260.707031 318.6875 260.398438 C 318.59375 260.09375 318.476562 259.800781 318.332031 259.515625 C 318.183594 259.234375 318.011719 258.964844 317.816406 258.714844 C 317.617188 258.464844 317.398438 258.234375 317.160156 258.023438 C 316.917969 257.816406 316.660156 257.628906 316.386719 257.46875 C 311.921875 254.882812 311.316406 244.992188 311.972656 234.949219 C 312.851562 235.0625 313.730469 235.09375 314.609375 235.050781 C 316.34375 235.042969 318.058594 234.859375 319.753906 234.496094 C 321.453125 234.136719 323.09375 233.605469 324.679688 232.910156 C 326.269531 232.210938 327.769531 231.359375 329.179688 230.355469 C 330.59375 229.347656 331.890625 228.210938 333.066406 226.9375 C 334.570312 229.6875 335.632812 232.59375 336.261719 235.660156 C 336.566406 241 336.195312 246.289062 335.148438 251.535156 Z M 332.863281 206.144531 C 331.800781 208.628906 330.785156 211.214844 329.722656 213.449219 C 329.4375 213.570312 329.183594 213.738281 328.960938 213.957031 C 328.453125 214.464844 328.070312 215.054688 327.816406 215.726562 C 327.558594 216.398438 327.453125 217.09375 327.492188 217.808594 C 326.996094 218.664062 326.421875 219.457031 325.765625 220.191406 C 325.019531 221.054688 324.1875 221.820312 323.265625 222.488281 C 322.339844 223.15625 321.355469 223.710938 320.300781 224.152344 C 319.25 224.59375 318.164062 224.90625 317.039062 225.09375 C 315.914062 225.28125 314.785156 225.339844 313.648438 225.265625 C 313.277344 225.210938 312.902344 225.210938 312.53125 225.265625 C 313.519531 217.28125 313.179688 209.351562 311.519531 201.480469 C 311.089844 200.09375 310.535156 198.757812 309.851562 197.476562 C 309.167969 196.199219 308.371094 194.992188 307.460938 193.863281 C 306.546875 192.734375 305.539062 191.703125 304.429688 190.765625 C 303.320312 189.828125 302.136719 189.003906 300.871094 188.292969 C 302.15625 187.578125 303.363281 186.746094 304.492188 185.800781 C 305.621094 184.855469 306.648438 183.808594 307.578125 182.667969 C 308.507812 181.527344 309.320312 180.304688 310.015625 179.007812 C 310.714844 177.710938 311.28125 176.359375 311.722656 174.957031 C 313.394531 166.546875 313.648438 158.09375 312.480469 149.597656 C 312.617188 149.625 312.75 149.625 312.886719 149.597656 C 314.050781 149.410156 315.222656 149.363281 316.402344 149.457031 C 317.578125 149.550781 318.726562 149.785156 319.847656 150.152344 C 320.96875 150.523438 322.027344 151.023438 323.03125 151.648438 C 324.03125 152.277344 324.941406 153.011719 325.765625 153.859375 C 328.804688 158.273438 331.222656 163.007812 333.015625 168.058594 C 335.46875 174.894531 338.847656 181.230469 343.160156 187.078125 C 338.796875 192.785156 335.367188 199.003906 332.863281 205.738281 Z M 131.664062 157.964844 C 131.664062 157.964844 153.824219 138.542969 174.511719 152.894531 C 195.199219 167.246094 173.242188 187.785156 170.300781 190.777344 C 170.828125 191.203125 171.382812 191.578125 171.96875 191.90625 C 172.558594 192.234375 173.167969 192.511719 173.804688 192.734375 C 174.4375 192.957031 175.085938 193.128906 175.75 193.242188 C 176.414062 193.355469 177.082031 193.414062 177.757812 193.414062 C 178.429688 193.414062 179.097656 193.355469 179.761719 193.242188 C 180.425781 193.128906 181.074219 192.957031 181.707031 192.734375 C 182.34375 192.511719 182.953125 192.234375 183.542969 191.90625 C 184.128906 191.578125 184.6875 191.203125 185.210938 190.777344 C 192.207031 184.539062 191.648438 176.121094 201.4375 168.363281 C 202.648438 167.457031 203.929688 166.65625 205.28125 165.964844 C 206.628906 165.273438 208.023438 164.699219 209.46875 164.242188 C 210.914062 163.785156 212.386719 163.449219 213.890625 163.242188 C 215.390625 163.03125 216.898438 162.949219 218.414062 162.992188 C 219.925781 163.035156 221.429688 163.203125 222.914062 163.5 C 224.402344 163.792969 225.851562 164.210938 227.269531 164.75 C 228.683594 165.289062 230.046875 165.945312 231.351562 166.710938 C 232.660156 167.480469 233.894531 168.351562 235.054688 169.324219 C 243.015625 177.339844 251.734375 213.703125 235.054688 231.65625 C 218.371094 249.609375 190.6875 235.355469 197.175781 208.933594 C 197.175781 208.933594 207.875 222.171875 219.589844 219.433594 C 231.300781 216.695312 236.777344 201.226562 234.039062 188.292969 C 231.300781 175.359375 224.558594 168.261719 210.867188 186.976562 C 197.175781 205.6875 185.515625 202.1875 185.515625 202.1875 C 185.515625 202.1875 199.710938 246.261719 163.609375 248.796875 C 127.507812 251.332031 117.972656 212.128906 118.734375 193.464844 C 118.734375 193.464844 132.476562 236.21875 160.109375 231.855469 C 187.746094 227.496094 174.5625 196.710938 153.367188 202.441406 L 148.296875 184.234375 C 148.296875 184.234375 175.980469 185.25 172.230469 172.519531 C 168.476562 159.792969 144.085938 168.058594 140.082031 174.296875 Z M 173.800781 134.789062 C 174.621094 135.945312 175.507812 137.046875 176.464844 138.09375 C 177.421875 139.136719 178.441406 140.117188 179.519531 141.035156 C 180.597656 141.953125 181.730469 142.800781 182.917969 143.578125 C 184.101562 144.351562 185.332031 145.050781 186.605469 145.675781 C 187.878906 146.296875 189.183594 146.835938 190.523438 147.296875 C 191.867188 147.753906 193.230469 148.128906 194.617188 148.417969 C 196.003906 148.703125 197.402344 148.90625 198.816406 149.019531 C 200.230469 149.128906 201.644531 149.15625 203.058594 149.089844 C 223.898438 149.089844 230.792969 134.789062 230.792969 134.789062 C 230.792969 134.789062 230.441406 161.71875 203.058594 161.71875 C 175.675781 161.71875 173.800781 134.789062 173.800781 134.789062 Z M 212.84375 133.21875 C 212.84375 133.839844 212.785156 134.457031 212.664062 135.066406 C 212.539062 135.679688 212.359375 136.269531 212.121094 136.847656 C 211.882812 137.421875 211.59375 137.96875 211.246094 138.484375 C 210.902344 139.003906 210.507812 139.484375 210.066406 139.921875 C 209.628906 140.363281 209.148438 140.757812 208.628906 141.101562 C 208.113281 141.449219 207.566406 141.742188 206.992188 141.980469 C 206.414062 142.21875 205.824219 142.398438 205.210938 142.519531 C 204.601562 142.640625 203.984375 142.699219 203.363281 142.699219 C 202.738281 142.699219 202.125 142.640625 201.511719 142.519531 C 200.902344 142.398438 200.308594 142.21875 199.734375 141.980469 C 199.160156 141.742188 198.613281 141.449219 198.09375 141.101562 C 197.578125 140.757812 197.097656 140.363281 196.65625 139.921875 C 196.21875 139.484375 195.824219 139.003906 195.480469 138.484375 C 195.132812 137.96875 194.839844 137.421875 194.601562 136.847656 C 194.363281 136.269531 194.183594 135.679688 194.0625 135.066406 C 193.941406 134.457031 193.878906 133.839844 193.878906 133.21875 C 193.878906 132.59375 193.941406 131.976562 194.0625 131.367188 C 194.183594 130.757812 194.363281 130.164062 194.601562 129.589844 C 194.839844 129.011719 195.132812 128.464844 195.480469 127.949219 C 195.824219 127.429688 196.21875 126.953125 196.65625 126.511719 C 197.097656 126.070312 197.578125 125.679688 198.09375 125.332031 C 198.613281 124.984375 199.160156 124.695312 199.734375 124.457031 C 200.308594 124.21875 200.902344 124.039062 201.511719 123.914062 C 202.125 123.792969 202.738281 123.734375 203.363281 123.734375 C 203.984375 123.734375 204.601562 123.792969 205.210938 123.914062 C 205.824219 124.039062 206.414062 124.21875 206.992188 124.457031 C 207.566406 124.695312 208.113281 124.984375 208.628906 125.332031 C 209.148438 125.679688 209.628906 126.070312 210.066406 126.511719 C 210.507812 126.953125 210.902344 127.429688 211.246094 127.949219 C 211.59375 128.464844 211.882812 129.011719 212.121094 129.589844 C 212.359375 130.164062 212.539062 130.757812 212.664062 131.367188 C 212.785156 131.976562 212.84375 132.59375 212.84375 133.21875 Z M 212.84375 133.21875 " fill-opacity="1" fill-rule="nonzero"/></g></svg>