<svg xmlns="http://www.w3.org/2000/svg" xmlns:xlink="http://www.w3.org/1999/xlink" width="500" zoomAndPan="magnify" viewBox="0 0 375 374.999991" height="500" preserveAspectRatio="xMidYMid meet" version="1.0"><defs><clipPath id="3b1cf035be"><path d="M 0 21 L 375 21 L 375 354.890625 L 0 354.890625 Z M 0 21 " clip-rule="nonzero"/></clipPath></defs><g clip-path="url(#3b1cf035be)"><path fill="#c37729" d="M 240.960938 164.734375 L 232.453125 152.988281 L 136.5625 152.988281 L 144.601562 165.792969 L 217.839844 165.792969 C 216.445312 170.574219 215.9375 175.449219 216.316406 180.417969 C 214.070312 179.242188 211.769531 178.191406 209.410156 177.273438 C 207.054688 176.351562 204.652344 175.566406 202.203125 174.914062 C 199.757812 174.257812 197.285156 173.742188 194.78125 173.363281 C 192.277344 172.988281 189.757812 172.746094 187.230469 172.648438 C 184.699219 172.550781 182.171875 172.59375 179.648438 172.773438 C 177.121094 172.957031 174.613281 173.277344 172.125 173.738281 C 169.636719 174.199219 167.179688 174.796875 164.753906 175.527344 C 162.332031 176.261719 159.957031 177.128906 157.628906 178.125 C 125.9375 191.753906 132.21875 223.46875 161.445312 234.335938 C 163.621094 235.109375 165.835938 235.769531 168.085938 236.308594 C 170.332031 236.847656 172.605469 237.265625 174.898438 237.558594 C 177.191406 237.855469 179.492188 238.03125 181.804688 238.078125 C 184.117188 238.128906 186.425781 238.054688 188.730469 237.859375 C 191.035156 237.660156 193.320312 237.34375 195.589844 236.902344 C 197.859375 236.460938 200.101562 235.898438 202.3125 235.214844 C 204.519531 234.535156 206.6875 233.738281 208.8125 232.824219 C 210.9375 231.910156 213.007812 230.886719 215.023438 229.753906 C 215.023438 229.753906 216.550781 245.90625 219.542969 249.429688 C 222.535156 252.953125 233.625 249.429688 233.625 249.429688 C 230.683594 236.753906 229.253906 223.910156 229.34375 210.898438 C 228.773438 195.207031 230.457031 179.757812 234.390625 164.558594 Z M 190.082031 225.640625 C 181.691406 227.226562 151.703125 225.640625 151.703125 206.554688 C 151.703125 183.527344 183.332031 183.410156 190.316406 184.175781 C 197.300781 184.9375 214.4375 188.875 214.4375 205.144531 C 214.4375 221.414062 196.242188 224.410156 190.082031 225.640625 Z M 162.792969 116.804688 C 163.511719 117.820312 164.289062 118.789062 165.125 119.707031 C 165.964844 120.625 166.855469 121.488281 167.800781 122.296875 C 168.746094 123.101562 169.738281 123.847656 170.777344 124.527344 C 171.816406 125.210938 172.894531 125.824219 174.011719 126.371094 C 175.128906 126.917969 176.273438 127.394531 177.449219 127.796875 C 178.625 128.199219 179.820312 128.527344 181.035156 128.78125 C 182.253906 129.035156 183.480469 129.210938 184.71875 129.3125 C 185.957031 129.410156 187.199219 129.433594 188.4375 129.375 C 189.640625 129.464844 190.839844 129.472656 192.039062 129.398438 C 193.242188 129.320312 194.433594 129.164062 195.613281 128.921875 C 196.789062 128.683594 197.949219 128.363281 199.082031 127.964844 C 200.21875 127.5625 201.320312 127.085938 202.390625 126.535156 C 203.460938 125.984375 204.488281 125.359375 205.472656 124.667969 C 206.453125 123.972656 207.386719 123.214844 208.265625 122.390625 C 209.144531 121.570312 209.964844 120.691406 210.722656 119.753906 C 211.480469 118.820312 212.171875 117.835938 212.792969 116.804688 C 212.792969 116.804688 212.441406 140.300781 188.4375 140.300781 C 187.640625 140.3125 186.84375 140.285156 186.046875 140.222656 C 185.25 140.15625 184.460938 140.054688 183.671875 139.917969 C 182.886719 139.777344 182.109375 139.601562 181.339844 139.390625 C 180.566406 139.179688 179.808594 138.929688 179.0625 138.644531 C 178.316406 138.359375 177.585938 138.042969 176.867188 137.6875 C 176.152344 137.335938 175.453125 136.949219 174.773438 136.53125 C 174.09375 136.109375 173.4375 135.660156 172.796875 135.179688 C 172.160156 134.695312 171.546875 134.1875 170.957031 133.644531 C 170.371094 133.105469 169.808594 132.539062 169.269531 131.945312 C 168.734375 131.355469 168.230469 130.738281 167.75 130.097656 C 167.273438 129.457031 166.828125 128.792969 166.414062 128.109375 C 166 127.425781 165.617188 126.726562 165.269531 126.007812 C 164.917969 125.289062 164.605469 124.554688 164.324219 123.804688 C 164.046875 123.054688 163.804688 122.296875 163.59375 121.523438 C 163.386719 120.753906 163.21875 119.972656 163.082031 119.183594 C 162.949219 118.394531 162.851562 117.605469 162.792969 116.804688 Z M 197.066406 115.457031 C 197.066406 116.003906 197.011719 116.546875 196.90625 117.082031 C 196.800781 117.621094 196.640625 118.140625 196.429688 118.648438 C 196.222656 119.152344 195.964844 119.632812 195.660156 120.089844 C 195.355469 120.542969 195.011719 120.964844 194.625 121.351562 C 194.238281 121.742188 193.816406 122.085938 193.363281 122.390625 C 192.90625 122.695312 192.425781 122.953125 191.921875 123.160156 C 191.414062 123.371094 190.894531 123.527344 190.359375 123.636719 C 189.820312 123.742188 189.28125 123.796875 188.730469 123.796875 C 188.183594 123.796875 187.644531 123.742188 187.105469 123.636719 C 186.570312 123.527344 186.050781 123.371094 185.542969 123.160156 C 185.039062 122.953125 184.558594 122.695312 184.101562 122.390625 C 183.648438 122.085938 183.226562 121.742188 182.839844 121.351562 C 182.453125 120.964844 182.109375 120.542969 181.804688 120.089844 C 181.5 119.632812 181.242188 119.152344 181.035156 118.648438 C 180.824219 118.140625 180.664062 117.621094 180.558594 117.082031 C 180.453125 116.546875 180.398438 116.003906 180.398438 115.457031 C 180.398438 114.90625 180.453125 114.367188 180.558594 113.828125 C 180.664062 113.292969 180.824219 112.769531 181.035156 112.265625 C 181.242188 111.757812 181.5 111.277344 181.804688 110.820312 C 182.109375 110.367188 182.453125 109.945312 182.839844 109.558594 C 183.226562 109.171875 183.648438 108.824219 184.101562 108.519531 C 184.558594 108.214844 185.039062 107.960938 185.542969 107.75 C 186.050781 107.539062 186.570312 107.382812 187.105469 107.277344 C 187.644531 107.167969 188.183594 107.113281 188.730469 107.113281 C 189.277344 107.117188 189.820312 107.175781 190.355469 107.285156 C 190.890625 107.394531 191.410156 107.554688 191.914062 107.765625 C 192.417969 107.976562 192.894531 108.234375 193.347656 108.539062 C 193.800781 108.84375 194.222656 109.1875 194.609375 109.574219 C 194.992188 109.960938 195.339844 110.382812 195.644531 110.835938 C 195.949219 111.289062 196.207031 111.769531 196.414062 112.273438 C 196.625 112.777344 196.785156 113.296875 196.894531 113.832031 C 197.003906 114.367188 197.0625 114.910156 197.066406 115.457031 Z M 369.191406 180.710938 C 359.097656 180.710938 350 165.554688 342.019531 152.222656 C 337.214844 142.804688 330.957031 134.484375 323.238281 127.261719 C 321.613281 126.039062 319.894531 124.972656 318.078125 124.058594 C 316.261719 123.148438 314.382812 122.402344 312.433594 121.824219 C 310.484375 121.25 308.5 120.851562 306.480469 120.628906 C 304.460938 120.40625 302.4375 120.367188 300.410156 120.507812 C 301.589844 118.808594 302.605469 117.015625 303.457031 115.132812 C 304.3125 113.246094 304.988281 111.304688 305.488281 109.296875 C 305.992188 107.289062 306.308594 105.253906 306.441406 103.191406 C 306.574219 101.125 306.519531 99.066406 306.28125 97.011719 C 303.929688 86.769531 299.839844 77.273438 294.015625 68.527344 C 286.03125 54.253906 277.757812 39.570312 283.039062 30.40625 C 283.230469 30.074219 283.386719 29.726562 283.511719 29.363281 C 283.632812 29.003906 283.71875 28.628906 283.769531 28.25 C 283.820312 27.871094 283.832031 27.488281 283.808594 27.109375 C 283.785156 26.726562 283.722656 26.347656 283.625 25.980469 C 283.527344 25.609375 283.394531 25.25 283.226562 24.90625 C 283.058594 24.5625 282.859375 24.238281 282.628906 23.933594 C 282.394531 23.628906 282.136719 23.347656 281.851562 23.09375 C 281.566406 22.839844 281.257812 22.613281 280.925781 22.417969 C 280.257812 22.019531 279.535156 21.761719 278.761719 21.652344 C 277.988281 21.539062 277.222656 21.578125 276.46875 21.773438 C 275.699219 21.96875 275 22.304688 274.367188 22.785156 C 273.738281 23.265625 273.222656 23.847656 272.828125 24.535156 C 267.78125 33.285156 250.175781 33.578125 234.625 33.871094 C 224.054688 33.289062 213.707031 34.542969 203.578125 37.632812 C 201.769531 38.414062 200.042969 39.34375 198.394531 40.425781 C 196.746094 41.503906 195.199219 42.71875 193.761719 44.0625 C 192.320312 45.410156 191.003906 46.871094 189.816406 48.441406 C 188.628906 50.015625 187.582031 51.679688 186.679688 53.429688 C 184.84375 50.578125 182.628906 48.054688 180.039062 45.863281 C 177.449219 43.671875 174.597656 41.90625 171.480469 40.570312 C 161.449219 37.492188 151.199219 36.28125 140.726562 36.925781 C 124.355469 36.925781 107.511719 36.632812 102.230469 27.472656 C 101.835938 26.785156 101.320312 26.199219 100.691406 25.722656 C 100.058594 25.242188 99.359375 24.90625 98.589844 24.710938 C 97.824219 24.507812 97.050781 24.464844 96.265625 24.574219 C 95.484375 24.6875 94.75 24.949219 94.074219 25.355469 C 93.746094 25.554688 93.441406 25.78125 93.15625 26.035156 C 92.875 26.292969 92.617188 26.574219 92.390625 26.878906 C 92.160156 27.1875 91.964844 27.511719 91.800781 27.855469 C 91.632812 28.199219 91.503906 28.558594 91.410156 28.929688 C 91.3125 29.300781 91.253906 29.675781 91.234375 30.054688 C 91.210938 30.4375 91.226562 30.816406 91.277344 31.195312 C 91.332031 31.574219 91.417969 31.945312 91.542969 32.304688 C 91.667969 32.667969 91.828125 33.015625 92.019531 33.34375 C 97.066406 42.097656 88.554688 57.542969 80.984375 71.109375 C 75.226562 79.984375 71.15625 89.578125 68.78125 99.890625 C 68.539062 101.945312 68.484375 104.003906 68.617188 106.070312 C 68.746094 108.132812 69.0625 110.167969 69.566406 112.175781 C 70.066406 114.183594 70.746094 116.128906 71.597656 118.011719 C 72.453125 119.894531 73.46875 121.6875 74.648438 123.382812 C 72.632812 123.246094 70.621094 123.285156 68.613281 123.507812 C 66.601562 123.726562 64.628906 124.121094 62.691406 124.691406 C 60.753906 125.265625 58.882812 126.003906 57.074219 126.90625 C 55.269531 127.8125 53.554688 128.871094 51.9375 130.082031 C 44.242188 137.253906 38.058594 145.554688 33.390625 154.984375 C 25.058594 169.023438 16.492188 183.527344 5.925781 183.527344 C 5.542969 183.527344 5.160156 183.566406 4.78125 183.640625 C 4.40625 183.71875 4.039062 183.828125 3.679688 183.976562 C 3.324219 184.125 2.988281 184.304688 2.667969 184.519531 C 2.347656 184.734375 2.050781 184.976562 1.777344 185.25 C 1.503906 185.523438 1.261719 185.820312 1.046875 186.140625 C 0.832031 186.460938 0.652344 186.796875 0.503906 187.15625 C 0.359375 187.511719 0.246094 187.878906 0.171875 188.257812 C 0.0976562 188.636719 0.0585938 189.015625 0.0585938 189.402344 C 0.0585938 189.789062 0.0976562 190.171875 0.171875 190.546875 C 0.246094 190.925781 0.359375 191.292969 0.503906 191.648438 C 0.652344 192.007812 0.832031 192.34375 1.046875 192.664062 C 1.261719 192.988281 1.503906 193.28125 1.777344 193.554688 C 2.050781 193.828125 2.347656 194.070312 2.667969 194.285156 C 2.988281 194.5 3.324219 194.679688 3.679688 194.828125 C 4.039062 194.976562 4.40625 195.089844 4.78125 195.164062 C 5.160156 195.238281 5.542969 195.277344 5.925781 195.277344 C 16.019531 195.277344 25.117188 210.371094 33.097656 223.761719 C 37.902344 233.199219 44.179688 241.519531 51.9375 248.726562 C 54.921875 250.988281 58.195312 252.699219 61.753906 253.867188 C 65.3125 255.035156 68.964844 255.59375 72.710938 255.539062 L 74.707031 255.539062 C 73.535156 257.238281 72.523438 259.03125 71.671875 260.917969 C 70.820312 262.800781 70.144531 264.746094 69.644531 266.753906 C 69.140625 268.757812 68.824219 270.792969 68.6875 272.855469 C 68.554688 274.917969 68.601562 276.976562 68.839844 279.03125 C 71.1875 289.277344 75.277344 298.773438 81.101562 307.519531 C 89.085938 321.730469 97.359375 336.476562 92.078125 345.636719 C 91.886719 345.96875 91.730469 346.316406 91.605469 346.679688 C 91.484375 347.042969 91.398438 347.414062 91.347656 347.792969 C 91.296875 348.171875 91.285156 348.554688 91.308594 348.9375 C 91.332031 349.320312 91.394531 349.695312 91.492188 350.066406 C 91.589844 350.4375 91.722656 350.792969 91.890625 351.136719 C 92.058594 351.480469 92.257812 351.808594 92.492188 352.113281 C 92.722656 352.417969 92.980469 352.699219 93.265625 352.953125 C 93.550781 353.207031 93.859375 353.429688 94.191406 353.625 C 95.113281 354.171875 96.109375 354.445312 97.183594 354.449219 C 97.691406 354.503906 98.199219 354.503906 98.707031 354.449219 C 99.464844 354.246094 100.15625 353.90625 100.773438 353.425781 C 101.394531 352.949219 101.898438 352.367188 102.289062 351.6875 C 107.335938 342.933594 124.941406 342.640625 140.492188 342.347656 C 151.085938 342.867188 161.433594 341.519531 171.539062 338.296875 C 173.351562 337.523438 175.085938 336.597656 176.738281 335.523438 C 178.390625 334.445312 179.9375 333.234375 181.378906 331.886719 C 182.820312 330.539062 184.136719 329.078125 185.320312 327.5 C 186.503906 325.921875 187.546875 324.253906 188.4375 322.496094 C 190.265625 325.367188 192.472656 327.902344 195.0625 330.105469 C 197.652344 332.308594 200.511719 334.078125 203.636719 335.417969 C 213.6875 338.496094 223.957031 339.710938 234.449219 339.058594 C 250.761719 339.058594 267.605469 339.351562 272.886719 348.515625 C 273.28125 349.203125 273.796875 349.785156 274.425781 350.265625 C 275.058594 350.742188 275.757812 351.082031 276.527344 351.277344 C 277.015625 351.335938 277.503906 351.335938 277.992188 351.277344 C 279.082031 351.265625 280.097656 350.992188 281.042969 350.453125 C 281.371094 350.257812 281.675781 350.03125 281.960938 349.773438 C 282.242188 349.519531 282.5 349.238281 282.726562 348.929688 C 282.957031 348.625 283.152344 348.296875 283.316406 347.953125 C 283.484375 347.609375 283.613281 347.25 283.707031 346.882812 C 283.804688 346.511719 283.863281 346.136719 283.882812 345.753906 C 283.90625 345.371094 283.890625 344.992188 283.839844 344.613281 C 283.785156 344.234375 283.699219 343.863281 283.574219 343.503906 C 283.449219 343.140625 283.289062 342.796875 283.097656 342.464844 C 278.050781 333.714844 286.5625 318.265625 294.132812 304.699219 C 299.890625 295.824219 303.960938 286.230469 306.339844 275.917969 C 306.578125 273.863281 306.632812 271.804688 306.503906 269.742188 C 306.371094 267.675781 306.054688 265.640625 305.550781 263.632812 C 305.050781 261.628906 304.375 259.683594 303.519531 257.800781 C 302.664062 255.914062 301.648438 254.125 300.46875 252.425781 L 302.40625 252.425781 C 306.15625 252.460938 309.816406 251.894531 313.382812 250.730469 C 316.949219 249.5625 320.234375 247.859375 323.238281 245.613281 C 330.882812 238.457031 337.046875 230.195312 341.726562 220.824219 C 350.058594 206.789062 358.625 192.222656 369.191406 192.222656 C 369.574219 192.222656 369.957031 192.183594 370.335938 192.109375 C 370.710938 192.035156 371.078125 191.921875 371.4375 191.773438 C 371.792969 191.628906 372.128906 191.445312 372.449219 191.230469 C 372.769531 191.019531 373.066406 190.773438 373.339844 190.5 C 373.613281 190.230469 373.855469 189.933594 374.070312 189.613281 C 374.285156 189.289062 374.464844 188.953125 374.613281 188.597656 C 374.757812 188.238281 374.871094 187.871094 374.945312 187.496094 C 375.019531 187.117188 375.058594 186.734375 375.058594 186.347656 C 375.058594 185.960938 375.019531 185.582031 374.945312 185.203125 C 374.871094 184.824219 374.757812 184.457031 374.613281 184.101562 C 374.464844 183.746094 374.285156 183.40625 374.070312 183.085938 C 373.855469 182.765625 373.613281 182.46875 373.339844 182.195312 C 373.066406 181.921875 372.769531 181.679688 372.449219 181.464844 C 372.128906 181.25 371.792969 181.070312 371.4375 180.921875 C 371.078125 180.773438 370.710938 180.664062 370.335938 180.585938 C 369.957031 180.511719 369.574219 180.476562 369.191406 180.476562 Z M 187.792969 289.664062 C 186.140625 289.664062 184.488281 289.621094 182.835938 289.542969 C 181.183594 289.460938 179.535156 289.339844 177.886719 289.175781 C 176.242188 289.015625 174.601562 288.8125 172.964844 288.566406 C 171.328125 288.324219 169.699219 288.042969 168.078125 287.71875 C 166.457031 287.398438 164.84375 287.035156 163.238281 286.632812 C 161.632812 286.230469 160.039062 285.789062 158.457031 285.308594 C 156.875 284.828125 155.304688 284.308594 153.75 283.75 C 152.191406 283.191406 150.648438 282.597656 149.121094 281.964844 C 147.59375 281.332031 146.082031 280.660156 144.585938 279.953125 C 143.089844 279.246094 141.613281 278.5 140.15625 277.71875 C 138.695312 276.941406 137.257812 276.125 135.839844 275.273438 C 134.421875 274.421875 133.023438 273.539062 131.648438 272.617188 C 130.273438 271.699219 128.921875 270.746094 127.59375 269.757812 C 126.265625 268.773438 124.960938 267.753906 123.683594 266.703125 C 122.40625 265.65625 121.152344 264.574219 119.929688 263.460938 C 118.703125 262.351562 117.503906 261.210938 116.335938 260.039062 C 115.167969 258.867188 114.027344 257.671875 112.914062 256.445312 C 111.804688 255.21875 110.726562 253.964844 109.675781 252.683594 C 108.625 251.40625 107.609375 250.101562 106.625 248.769531 C 105.640625 247.441406 104.6875 246.089844 103.769531 244.710938 C 102.847656 243.335938 101.964844 241.9375 101.113281 240.519531 C 100.265625 239.097656 99.449219 237.660156 98.667969 236.199219 C 97.890625 234.738281 97.148438 233.261719 96.441406 231.765625 C 95.734375 230.269531 95.0625 228.757812 94.429688 227.226562 C 93.796875 225.699219 93.203125 224.152344 92.644531 222.59375 C 92.085938 221.035156 91.570312 219.464844 91.089844 217.882812 C 90.609375 216.296875 90.167969 214.703125 89.765625 213.097656 C 89.363281 211.492188 89 209.875 88.679688 208.253906 C 88.355469 206.628906 88.074219 205 87.832031 203.363281 C 87.589844 201.726562 87.386719 200.082031 87.222656 198.433594 C 87.0625 196.789062 86.941406 195.136719 86.859375 193.484375 C 86.777344 191.832031 86.738281 190.175781 86.738281 188.523438 C 86.738281 186.867188 86.777344 185.210938 86.859375 183.558594 C 86.941406 181.90625 87.0625 180.253906 87.222656 178.609375 C 87.386719 176.960938 87.589844 175.320312 87.832031 173.679688 C 88.074219 172.042969 88.355469 170.414062 88.679688 168.789062 C 89 167.167969 89.363281 165.550781 89.765625 163.945312 C 90.167969 162.339844 90.609375 160.746094 91.089844 159.160156 C 91.570312 157.578125 92.085938 156.007812 92.644531 154.449219 C 93.203125 152.890625 93.796875 151.347656 94.429688 149.816406 C 95.0625 148.289062 95.734375 146.773438 96.441406 145.277344 C 97.148438 143.78125 97.890625 142.304688 98.667969 140.84375 C 99.449219 139.382812 100.265625 137.945312 101.113281 136.523438 C 101.964844 135.105469 102.847656 133.707031 103.769531 132.332031 C 104.6875 130.953125 105.640625 129.601562 106.625 128.273438 C 107.609375 126.941406 108.625 125.636719 109.675781 124.359375 C 110.726562 123.078125 111.804688 121.824219 112.914062 120.597656 C 114.027344 119.371094 115.167969 118.175781 116.335938 117.003906 C 117.503906 115.832031 118.703125 114.691406 119.929688 113.582031 C 121.152344 112.46875 122.40625 111.386719 123.683594 110.339844 C 124.960938 109.289062 126.265625 108.269531 127.59375 107.285156 C 128.921875 106.296875 130.273438 105.34375 131.648438 104.425781 C 133.023438 103.507812 134.421875 102.621094 135.839844 101.769531 C 137.257812 100.917969 138.695312 100.101562 140.15625 99.324219 C 141.613281 98.542969 143.089844 97.796875 144.585938 97.089844 C 146.082031 96.382812 147.59375 95.710938 149.121094 95.078125 C 150.648438 94.445312 152.191406 93.851562 153.75 93.292969 C 155.304688 92.734375 156.875 92.214844 158.457031 91.734375 C 160.039062 91.253906 161.632812 90.8125 163.238281 90.410156 C 164.84375 90.007812 166.457031 89.648438 168.078125 89.324219 C 169.699219 89 171.328125 88.71875 172.964844 88.476562 C 174.601562 88.230469 176.242188 88.03125 177.886719 87.867188 C 179.535156 87.703125 181.183594 87.582031 182.835938 87.503906 C 184.488281 87.421875 186.140625 87.378906 187.792969 87.378906 C 189.449219 87.378906 191.101562 87.421875 192.753906 87.503906 C 194.402344 87.582031 196.054688 87.703125 197.699219 87.867188 C 199.34375 88.03125 200.984375 88.230469 202.621094 88.476562 C 204.257812 88.71875 205.886719 89 207.507812 89.324219 C 209.128906 89.648438 210.742188 90.007812 212.347656 90.410156 C 213.953125 90.8125 215.546875 91.253906 217.128906 91.734375 C 218.710938 92.214844 220.28125 92.734375 221.839844 93.292969 C 223.394531 93.851562 224.9375 94.445312 226.464844 95.078125 C 227.992188 95.710938 229.503906 96.382812 231 97.089844 C 232.496094 97.796875 233.972656 98.542969 235.429688 99.324219 C 236.890625 100.101562 238.328125 100.917969 239.746094 101.769531 C 241.164062 102.621094 242.5625 103.507812 243.9375 104.425781 C 245.3125 105.34375 246.664062 106.296875 247.992188 107.285156 C 249.320312 108.269531 250.625 109.289062 251.902344 110.339844 C 253.179688 111.386719 254.433594 112.46875 255.660156 113.582031 C 256.882812 114.691406 258.082031 115.832031 259.25 117.003906 C 260.421875 118.175781 261.5625 119.371094 262.671875 120.597656 C 263.78125 121.824219 264.863281 123.078125 265.910156 124.359375 C 266.960938 125.636719 267.976562 126.941406 268.960938 128.273438 C 269.949219 129.601562 270.898438 130.953125 271.820312 132.332031 C 272.738281 133.707031 273.621094 135.105469 274.472656 136.523438 C 275.324219 137.945312 276.136719 139.382812 276.917969 140.84375 C 277.695312 142.304688 278.441406 143.78125 279.148438 145.277344 C 279.855469 146.773438 280.523438 148.289062 281.15625 149.816406 C 281.789062 151.347656 282.386719 152.890625 282.941406 154.449219 C 283.5 156.007812 284.019531 157.578125 284.5 159.160156 C 284.976562 160.746094 285.417969 162.339844 285.820312 163.945312 C 286.222656 165.550781 286.585938 167.167969 286.90625 168.789062 C 287.230469 170.414062 287.511719 172.042969 287.757812 173.679688 C 288 175.320312 288.199219 176.960938 288.363281 178.609375 C 288.523438 180.253906 288.648438 181.90625 288.726562 183.558594 C 288.808594 185.210938 288.851562 186.867188 288.851562 188.523438 C 288.847656 190.175781 288.808594 191.832031 288.726562 193.484375 C 288.644531 195.136719 288.519531 196.785156 288.359375 198.433594 C 288.195312 200.082031 287.992188 201.722656 287.75 203.359375 C 287.503906 204.996094 287.222656 206.625 286.898438 208.25 C 286.574219 209.871094 286.210938 211.488281 285.808594 213.089844 C 285.40625 214.695312 284.964844 216.292969 284.484375 217.875 C 284.003906 219.457031 283.484375 221.027344 282.929688 222.585938 C 282.371094 224.144531 281.773438 225.6875 281.140625 227.21875 C 280.507812 228.746094 279.839844 230.257812 279.128906 231.753906 C 278.421875 233.25 277.679688 234.726562 276.898438 236.1875 C 276.121094 237.648438 275.304688 239.085938 274.453125 240.507812 C 273.605469 241.925781 272.71875 243.324219 271.800781 244.699219 C 270.882812 246.074219 269.929688 247.425781 268.945312 248.757812 C 267.960938 250.085938 266.941406 251.390625 265.894531 252.667969 C 264.84375 253.949219 263.765625 255.203125 262.652344 256.425781 C 261.542969 257.652344 260.402344 258.851562 259.234375 260.023438 C 258.066406 261.191406 256.867188 262.332031 255.640625 263.445312 C 254.417969 264.554688 253.164062 265.636719 251.886719 266.6875 C 250.609375 267.738281 249.304688 268.753906 247.976562 269.742188 C 246.648438 270.726562 245.296875 271.679688 243.921875 272.597656 C 242.546875 273.519531 241.152344 274.40625 239.734375 275.253906 C 238.316406 276.105469 236.878906 276.921875 235.417969 277.703125 C 233.960938 278.484375 232.484375 279.226562 230.988281 279.9375 C 229.496094 280.644531 227.984375 281.316406 226.457031 281.949219 C 224.929688 282.582031 223.386719 283.179688 221.832031 283.734375 C 220.273438 284.292969 218.703125 284.8125 217.121094 285.292969 C 215.539062 285.777344 213.945312 286.21875 212.34375 286.621094 C 210.738281 287.023438 209.125 287.386719 207.503906 287.710938 C 205.882812 288.035156 204.253906 288.316406 202.617188 288.5625 C 200.984375 288.804688 199.34375 289.007812 197.695312 289.171875 C 196.050781 289.332031 194.402344 289.457031 192.75 289.539062 C 191.101562 289.621094 189.445312 289.660156 187.792969 289.664062 Z M 208.332031 48.378906 C 217.0625 46.011719 225.945312 45.050781 234.976562 45.503906 C 246.96875 46.015625 258.703125 44.527344 270.1875 41.039062 C 272.753906 52.851562 277.3125 63.832031 283.863281 73.988281 C 288.773438 81.472656 292.394531 89.539062 294.71875 98.1875 C 296.65625 113.695312 280.632812 123.914062 280.457031 123.972656 C 278.019531 120.457031 275.390625 117.089844 272.570312 113.875 C 269.75 110.660156 266.753906 107.617188 263.589844 104.742188 C 260.421875 101.867188 257.101562 99.183594 253.628906 96.6875 C 250.15625 94.191406 246.554688 91.902344 242.820312 89.816406 C 239.085938 87.730469 235.246094 85.863281 231.300781 84.21875 C 227.355469 82.570312 223.332031 81.152344 219.222656 79.964844 C 215.117188 78.773438 210.957031 77.824219 206.742188 77.109375 C 202.523438 76.394531 198.28125 75.921875 194.015625 75.691406 C 194.015625 74.988281 194.015625 73.050781 193.367188 70.289062 C 193.609375 67.984375 194.128906 65.746094 194.925781 63.570312 C 195.722656 61.394531 196.773438 59.351562 198.082031 57.441406 C 199.386719 55.527344 200.910156 53.804688 202.644531 52.269531 C 204.378906 50.738281 206.273438 49.441406 208.332031 48.378906 Z M 80.574219 101.242188 C 82.910156 92.488281 86.527344 84.304688 91.433594 76.691406 C 97.863281 66.605469 102.441406 55.742188 105.164062 44.09375 C 116.746094 47.753906 128.601562 49.242188 140.726562 48.554688 C 149.652344 48.0625 158.4375 48.960938 167.078125 51.257812 C 168.976562 52.210938 170.742188 53.371094 172.363281 54.742188 C 173.988281 56.117188 175.429688 57.660156 176.683594 59.375 C 177.9375 61.09375 178.976562 62.933594 179.792969 64.894531 C 180.609375 66.859375 181.183594 68.890625 181.515625 70.992188 C 181.515625 72.226562 181.515625 73.109375 181.515625 73.285156 C 181.527344 74.207031 181.722656 75.085938 182.101562 75.925781 C 177.71875 76.164062 173.363281 76.65625 169.039062 77.398438 C 164.714844 78.144531 160.449219 79.140625 156.238281 80.382812 C 152.027344 81.625 147.90625 83.109375 143.871094 84.835938 C 139.835938 86.558594 135.910156 88.515625 132.101562 90.695312 C 128.296875 92.878906 124.625 95.277344 121.097656 97.886719 C 117.566406 100.5 114.203125 103.304688 111 106.308594 C 107.800781 109.316406 104.78125 112.496094 101.953125 115.851562 C 99.121094 119.207031 96.496094 122.71875 94.074219 126.378906 C 90.199219 123.855469 78.816406 114.515625 80.457031 101.242188 Z M 59.039062 239.386719 C 52.628906 233.019531 47.363281 225.816406 43.25 217.773438 C 37.742188 207.132812 30.601562 197.734375 21.832031 189.578125 C 30.804688 181.339844 38.042969 171.789062 43.542969 160.917969 C 47.558594 152.9375 52.722656 145.792969 59.039062 139.476562 C 69.308594 131.667969 82.511719 136.246094 86.972656 138.128906 C 84.980469 142.085938 83.230469 146.148438 81.722656 150.316406 C 80.214844 154.480469 78.953125 158.722656 77.945312 163.039062 C 76.9375 167.351562 76.1875 171.710938 75.695312 176.117188 C 75.207031 180.519531 74.972656 184.9375 75.003906 189.371094 C 75.035156 193.800781 75.328125 198.214844 75.878906 202.613281 C 76.433594 207.011719 77.242188 211.359375 78.308594 215.660156 C 79.375 219.960938 80.691406 224.183594 82.257812 228.328125 C 83.828125 232.472656 85.632812 236.511719 87.675781 240.441406 C 84.214844 242.027344 70.070312 247.785156 59.039062 239.386719 Z M 167.253906 327.664062 C 158.523438 330.03125 149.644531 330.992188 140.609375 330.542969 C 128.621094 330.027344 116.882812 331.515625 105.398438 335.007812 C 102.78125 323.117188 98.144531 312.074219 91.492188 301.878906 C 86.578125 294.394531 82.960938 286.328125 80.632812 277.679688 C 78.816406 262.878906 93.191406 252.953125 94.71875 251.957031 C 97.140625 255.519531 99.761719 258.929688 102.578125 262.191406 C 105.390625 265.457031 108.382812 268.546875 111.550781 271.464844 C 114.71875 274.386719 118.042969 277.113281 121.523438 279.652344 C 125.003906 282.191406 128.617188 284.523438 132.367188 286.644531 C 136.113281 288.769531 139.96875 290.671875 143.933594 292.355469 C 147.902344 294.035156 151.949219 295.484375 156.078125 296.703125 C 160.210938 297.921875 164.398438 298.898438 168.640625 299.636719 C 172.882812 300.375 177.15625 300.867188 181.457031 301.117188 C 181.457031 302.113281 181.457031 303.640625 182.042969 305.460938 C 181.835938 307.785156 181.34375 310.042969 180.570312 312.242188 C 179.796875 314.441406 178.761719 316.507812 177.472656 318.449219 C 176.179688 320.386719 174.667969 322.136719 172.941406 323.695312 C 171.210938 325.257812 169.316406 326.578125 167.253906 327.664062 Z M 295.011719 274.804688 C 292.675781 283.554688 289.058594 291.738281 284.15625 299.355469 C 277.714844 309.429688 273.15625 320.292969 270.480469 331.953125 C 258.878906 328.289062 247.003906 326.800781 234.859375 327.488281 C 225.875 328.003906 217.03125 327.101562 208.332031 324.785156 C 206.433594 323.835938 204.667969 322.671875 203.046875 321.300781 C 201.421875 319.929688 199.980469 318.386719 198.726562 316.667969 C 197.472656 314.953125 196.433594 313.113281 195.617188 311.148438 C 194.800781 309.183594 194.226562 307.152344 193.898438 305.050781 C 193.898438 303.816406 193.898438 302.9375 193.898438 302.761719 C 193.984375 302.210938 193.984375 301.664062 193.898438 301.117188 C 198.300781 300.878906 202.679688 300.386719 207.027344 299.636719 C 211.375 298.886719 215.664062 297.882812 219.894531 296.628906 C 224.125 295.375 228.265625 293.875 232.320312 292.132812 C 236.375 290.390625 240.3125 288.417969 244.136719 286.214844 C 247.960938 284.011719 251.640625 281.589844 255.179688 278.953125 C 258.71875 276.316406 262.089844 273.484375 265.296875 270.449219 C 268.503906 267.417969 271.523438 264.207031 274.351562 260.820312 C 277.183594 257.429688 279.804688 253.890625 282.21875 250.191406 C 286.328125 253.304688 296.363281 262.292969 294.71875 274.804688 Z M 331.574219 214.953125 C 327.558594 222.929688 322.394531 230.078125 316.078125 236.390625 C 306.28125 243.792969 293.898438 240.03125 288.910156 238.035156 C 290.875 234.050781 292.601562 229.96875 294.082031 225.777344 C 295.566406 221.589844 296.796875 217.332031 297.773438 212.996094 C 298.75 208.664062 299.46875 204.285156 299.929688 199.867188 C 300.386719 195.449219 300.585938 191.019531 300.519531 186.574219 C 300.453125 182.132812 300.125 177.710938 299.535156 173.304688 C 298.945312 168.902344 298.09375 164.550781 296.988281 160.246094 C 295.882812 155.945312 294.527344 151.722656 292.917969 147.582031 C 291.3125 143.4375 289.46875 139.40625 287.382812 135.484375 C 290.726562 133.898438 304.988281 128.023438 316.078125 136.425781 C 322.472656 142.820312 327.738281 150.046875 331.867188 158.097656 C 337.375 168.734375 344.515625 178.132812 353.285156 186.289062 C 344.300781 194.515625 337.0625 204.070312 331.574219 214.953125 Z M 331.574219 214.953125 " fill-opacity="1" fill-rule="nonzero"/></g></svg>