<svg xmlns="http://www.w3.org/2000/svg" xmlns:xlink="http://www.w3.org/1999/xlink" width="500" zoomAndPan="magnify" viewBox="0 0 375 374.999991" height="500" preserveAspectRatio="xMidYMid meet" version="1.0"><defs><clipPath id="08ee043b7c"><path d="M 4 3.933594 L 371 3.933594 L 371 371 L 4 371 Z M 4 3.933594 " clip-rule="nonzero"/></clipPath></defs><g clip-path="url(#08ee043b7c)"><path fill="#369bce" d="M 364.660156 180.238281 C 360.566406 180.238281 356.074219 174.269531 352.050781 168.972656 C 348.980469 164.191406 345.136719 160.144531 340.515625 156.832031 L 339.84375 156.5 C 342.777344 151.675781 344.742188 146.492188 345.746094 140.941406 C 347.421875 134.234375 349.101562 127.527344 353.191406 125.582031 C 354.042969 125.226562 354.789062 124.714844 355.429688 124.050781 C 356.070312 123.386719 356.554688 122.625 356.878906 121.761719 C 357.113281 121.148438 357.253906 120.511719 357.304688 119.859375 C 357.351562 119.203125 357.304688 118.554688 357.164062 117.914062 C 357.023438 117.273438 356.792969 116.667969 356.472656 116.09375 C 356.152344 115.519531 355.757812 115.003906 355.285156 114.546875 C 354.8125 114.089844 354.285156 113.710938 353.703125 113.410156 C 353.121094 113.105469 352.507812 112.894531 351.863281 112.773438 C 351.21875 112.652344 350.566406 112.625 349.914062 112.691406 C 349.261719 112.761719 348.632812 112.921875 348.027344 113.175781 C 344.203125 114.785156 337.765625 110.964844 332.066406 107.542969 C 327.382812 104.367188 322.285156 102.128906 316.777344 100.835938 L 315.972656 100.835938 C 316.832031 95.257812 316.652344 89.714844 315.433594 84.207031 C 314.429688 77.5 313.355469 70.257812 316.441406 67.171875 C 316.632812 66.984375 316.808594 66.785156 316.976562 66.578125 C 317.140625 66.371094 317.296875 66.152344 317.4375 65.925781 C 317.578125 65.699219 317.703125 65.464844 317.816406 65.222656 C 317.929688 64.980469 318.027344 64.734375 318.109375 64.480469 C 318.191406 64.226562 318.261719 63.96875 318.3125 63.707031 C 318.363281 63.445312 318.402344 63.183594 318.421875 62.917969 C 318.445312 62.648438 318.449219 62.382812 318.4375 62.117188 C 318.425781 61.851562 318.398438 61.585938 318.355469 61.324219 C 318.316406 61.058594 318.257812 60.800781 318.183594 60.542969 C 318.109375 60.285156 318.019531 60.035156 317.917969 59.789062 C 317.8125 59.542969 317.695312 59.304688 317.566406 59.074219 C 317.433594 58.839844 317.289062 58.617188 317.128906 58.402344 C 316.96875 58.1875 316.800781 57.984375 316.617188 57.792969 C 316.433594 57.597656 316.238281 57.414062 316.035156 57.242188 C 315.828125 57.074219 315.617188 56.914062 315.390625 56.769531 C 315.167969 56.625 314.9375 56.492188 314.699219 56.375 C 314.066406 56.054688 313.398438 55.84375 312.699219 55.738281 C 312 55.628906 311.300781 55.632812 310.601562 55.746094 C 309.902344 55.863281 309.238281 56.082031 308.609375 56.40625 C 307.980469 56.730469 307.417969 57.144531 306.917969 57.648438 C 304.035156 60.597656 296.589844 59.527344 290.019531 58.585938 C 284.476562 57.410156 278.910156 57.277344 273.320312 58.183594 C 273.074219 58.15625 272.828125 58.15625 272.582031 58.183594 C 271.308594 52.6875 269.074219 47.613281 265.875 42.960938 C 262.320312 37.0625 258.632812 30.890625 260.308594 26.867188 C 260.460938 26.472656 260.570312 26.066406 260.644531 25.648438 C 260.714844 25.230469 260.75 24.8125 260.742188 24.390625 C 260.734375 23.964844 260.691406 23.546875 260.605469 23.132812 C 260.519531 22.71875 260.394531 22.316406 260.234375 21.925781 C 260.070312 21.535156 259.875 21.164062 259.640625 20.8125 C 259.410156 20.457031 259.144531 20.128906 258.851562 19.824219 C 258.554688 19.523438 258.234375 19.25 257.890625 19.003906 C 257.542969 18.761719 257.179688 18.554688 256.792969 18.378906 C 256.40625 18.207031 256.007812 18.070312 255.597656 17.972656 C 255.1875 17.875 254.769531 17.816406 254.347656 17.796875 C 253.921875 17.777344 253.503906 17.796875 253.085938 17.855469 C 252.664062 17.917969 252.257812 18.015625 251.855469 18.152344 C 251.457031 18.289062 251.074219 18.464844 250.707031 18.675781 C 250.339844 18.882812 249.996094 19.128906 249.671875 19.402344 C 249.351562 19.675781 249.058594 19.980469 248.796875 20.3125 C 248.53125 20.640625 248.300781 20.992188 248.105469 21.367188 C 246.496094 25.191406 239.253906 27.066406 232.816406 28.679688 C 227.242188 29.746094 222.03125 31.757812 217.1875 34.714844 L 216.519531 34.78125 C 213.1875 30.21875 209.140625 26.417969 204.378906 23.378906 C 198.8125 19.289062 193.046875 14.996094 193.046875 10.636719 C 193.046875 10.199219 193.003906 9.761719 192.917969 9.328125 C 192.832031 8.898438 192.703125 8.480469 192.535156 8.070312 C 192.367188 7.664062 192.160156 7.277344 191.917969 6.914062 C 191.671875 6.546875 191.394531 6.207031 191.082031 5.894531 C 190.769531 5.585938 190.433594 5.308594 190.066406 5.0625 C 189.699219 4.816406 189.3125 4.609375 188.90625 4.441406 C 188.5 4.273438 188.082031 4.148438 187.648438 4.0625 C 187.21875 3.976562 186.78125 3.933594 186.339844 3.933594 C 185.898438 3.933594 185.464844 3.976562 185.03125 4.0625 C 184.601562 4.148438 184.179688 4.273438 183.773438 4.441406 C 183.367188 4.609375 182.980469 4.816406 182.613281 5.0625 C 182.25 5.308594 181.910156 5.585938 181.597656 5.894531 C 181.289062 6.207031 181.007812 6.546875 180.765625 6.914062 C 180.519531 7.277344 180.3125 7.664062 180.144531 8.070312 C 179.976562 8.480469 179.847656 8.898438 179.761719 9.328125 C 179.675781 9.761719 179.632812 10.199219 179.632812 10.636719 C 179.632812 14.796875 173.597656 19.289062 168.300781 23.246094 C 163.550781 26.351562 159.503906 30.195312 156.164062 34.78125 L 156.164062 35.449219 C 151.347656 32.492188 146.164062 30.5 140.605469 29.484375 C 133.898438 27.875 127.191406 26.128906 125.246094 22.105469 C 124.988281 21.5 124.648438 20.945312 124.230469 20.441406 C 123.808594 19.9375 123.324219 19.503906 122.773438 19.140625 C 122.226562 18.777344 121.636719 18.5 121.007812 18.3125 C 120.378906 18.121094 119.734375 18.027344 119.078125 18.027344 C 118.421875 18.027344 117.777344 18.121094 117.148438 18.3125 C 116.515625 18.5 115.929688 18.777344 115.378906 19.140625 C 114.832031 19.503906 114.347656 19.9375 113.925781 20.441406 C 113.503906 20.945312 113.164062 21.5 112.90625 22.105469 C 112.542969 22.953125 112.363281 23.835938 112.363281 24.753906 C 112.363281 25.675781 112.542969 26.558594 112.90625 27.402344 C 114.449219 31.226562 110.628906 37.730469 107.273438 43.429688 C 104.089844 48.109375 101.851562 53.207031 100.566406 58.722656 L 100.566406 59.460938 C 94.996094 58.539062 89.449219 58.695312 83.9375 59.929688 C 77.230469 60.933594 70.054688 62.007812 66.902344 58.921875 C 66.59375 58.613281 66.253906 58.335938 65.886719 58.09375 C 65.523438 57.851562 65.136719 57.648438 64.734375 57.480469 C 64.328125 57.3125 63.910156 57.1875 63.480469 57.101562 C 63.046875 57.015625 62.613281 56.972656 62.175781 56.972656 C 61.738281 56.972656 61.300781 57.015625 60.871094 57.101562 C 60.441406 57.1875 60.023438 57.3125 59.617188 57.480469 C 59.210938 57.648438 58.828125 57.851562 58.460938 58.09375 C 58.097656 58.335938 57.757812 58.613281 57.449219 58.921875 C 57.132812 59.234375 56.851562 59.574219 56.605469 59.941406 C 56.359375 60.308594 56.148438 60.695312 55.980469 61.105469 C 55.808594 61.515625 55.679688 61.933594 55.59375 62.371094 C 55.507812 62.804688 55.464844 63.242188 55.464844 63.683594 C 55.464844 64.125 55.507812 64.566406 55.59375 65 C 55.679688 65.433594 55.808594 65.855469 55.980469 66.261719 C 56.148438 66.671875 56.359375 67.058594 56.605469 67.425781 C 56.851562 67.792969 57.132812 68.132812 57.449219 68.445312 C 60.332031 71.328125 59.257812 78.773438 58.320312 85.34375 C 57.144531 90.910156 57.007812 96.496094 57.917969 102.109375 C 57.90625 102.335938 57.90625 102.558594 57.917969 102.78125 C 52.4375 104.050781 47.386719 106.289062 42.761719 109.488281 C 36.792969 113.109375 30.691406 116.796875 26.597656 115.121094 C 25.996094 114.871094 25.371094 114.714844 24.722656 114.648438 C 24.074219 114.582031 23.429688 114.609375 22.789062 114.730469 C 22.152344 114.851562 21.542969 115.0625 20.960938 115.359375 C 20.382812 115.660156 19.859375 116.035156 19.390625 116.488281 C 18.921875 116.9375 18.523438 117.449219 18.203125 118.015625 C 17.882812 118.582031 17.648438 119.183594 17.503906 119.816406 C 17.359375 120.453125 17.304688 121.09375 17.347656 121.746094 C 17.386719 122.394531 17.519531 123.027344 17.746094 123.636719 C 18.070312 124.519531 18.5625 125.300781 19.214844 125.976562 C 19.867188 126.65625 20.632812 127.171875 21.503906 127.527344 C 25.324219 129.070312 27.136719 136.378906 28.8125 142.75 C 29.832031 148.363281 31.84375 153.59375 34.847656 158.441406 L 35.316406 158.980469 C 30.722656 162.253906 26.921875 166.277344 23.917969 171.050781 C 19.757812 176.617188 15.535156 182.382812 11.175781 182.382812 C 10.734375 182.382812 10.296875 182.425781 9.867188 182.511719 C 9.433594 182.597656 9.015625 182.726562 8.609375 182.894531 C 8.203125 183.0625 7.816406 183.269531 7.449219 183.515625 C 7.082031 183.757812 6.742188 184.035156 6.433594 184.347656 C 6.121094 184.660156 5.84375 185 5.597656 185.363281 C 5.355469 185.730469 5.148438 186.117188 4.980469 186.523438 C 4.808594 186.929688 4.683594 187.351562 4.597656 187.78125 C 4.511719 188.214844 4.46875 188.648438 4.46875 189.089844 C 4.46875 189.53125 4.511719 189.964844 4.597656 190.398438 C 4.683594 190.832031 4.808594 191.25 4.980469 191.65625 C 5.148438 192.0625 5.355469 192.449219 5.597656 192.816406 C 5.84375 193.183594 6.121094 193.519531 6.433594 193.832031 C 6.742188 194.144531 7.082031 194.421875 7.449219 194.667969 C 7.816406 194.910156 8.203125 195.117188 8.609375 195.285156 C 9.015625 195.453125 9.433594 195.582031 9.867188 195.667969 C 10.296875 195.753906 10.734375 195.796875 11.175781 195.796875 C 15.265625 195.796875 19.757812 201.765625 23.714844 207.0625 C 26.847656 211.8125 30.714844 215.859375 35.316406 219.199219 L 35.988281 219.199219 C 32.488281 224.054688 30.074219 229.394531 28.746094 235.230469 C 27.066406 241.933594 25.324219 248.640625 21.300781 250.585938 C 20.914062 250.75 20.546875 250.945312 20.195312 251.175781 C 19.847656 251.410156 19.523438 251.671875 19.222656 251.964844 C 18.921875 252.257812 18.652344 252.574219 18.410156 252.917969 C 18.171875 253.261719 17.964844 253.625 17.792969 254.007812 C 17.617188 254.390625 17.484375 254.785156 17.382812 255.191406 C 17.285156 255.597656 17.226562 256.011719 17.203125 256.429688 C 17.183594 256.851562 17.203125 257.265625 17.257812 257.683594 C 17.316406 258.097656 17.410156 258.503906 17.546875 258.902344 C 17.839844 259.777344 18.296875 260.558594 18.914062 261.246094 C 19.53125 261.933594 20.261719 262.472656 21.101562 262.859375 C 21.953125 263.230469 22.847656 263.417969 23.78125 263.417969 C 24.714844 263.417969 25.609375 263.230469 26.464844 262.859375 C 30.289062 261.25 36.726562 265.070312 42.425781 268.492188 C 47.109375 271.667969 52.207031 273.90625 57.714844 275.199219 L 58.453125 275.199219 C 57.59375 280.773438 57.769531 286.320312 58.988281 291.828125 C 59.996094 298.535156 61.070312 305.777344 57.984375 308.863281 C 57.355469 309.496094 56.875 310.226562 56.535156 311.050781 C 56.199219 311.875 56.035156 312.734375 56.039062 313.625 C 56.035156 314.515625 56.199219 315.375 56.535156 316.199219 C 56.875 317.023438 57.355469 317.753906 57.984375 318.386719 C 58.617188 319.011719 59.34375 319.496094 60.171875 319.832031 C 60.996094 320.167969 61.855469 320.335938 62.746094 320.332031 C 63.625 320.328125 64.472656 320.15625 65.285156 319.820312 C 66.097656 319.484375 66.816406 319.003906 67.441406 318.386719 C 70.390625 315.433594 77.835938 316.507812 84.40625 317.445312 C 89.949219 318.621094 95.511719 318.757812 101.105469 317.847656 L 101.84375 317.847656 C 103.117188 323.347656 105.351562 328.421875 108.546875 333.074219 C 112.101562 338.972656 115.792969 345.144531 114.113281 349.167969 C 113.742188 350.023438 113.554688 350.917969 113.554688 351.851562 C 113.554688 352.78125 113.742188 353.675781 114.113281 354.53125 C 114.5 355.371094 115.039062 356.101562 115.726562 356.71875 C 116.414062 357.335938 117.195312 357.792969 118.070312 358.085938 C 118.785156 358.21875 119.503906 358.21875 120.21875 358.085938 C 120.875 358.085938 121.519531 357.992188 122.148438 357.800781 C 122.78125 357.609375 123.371094 357.332031 123.917969 356.96875 C 124.464844 356.605469 124.949219 356.171875 125.371094 355.664062 C 125.792969 355.15625 126.128906 354.601562 126.386719 353.996094 C 127.996094 350.171875 135.238281 348.296875 141.675781 346.617188 C 147.257812 345.605469 152.46875 343.617188 157.304688 340.652344 L 157.839844 340.113281 C 161.171875 344.675781 165.21875 348.476562 169.976562 351.515625 C 175.410156 355.539062 181.042969 359.695312 181.3125 363.921875 L 181.3125 364.257812 C 181.3125 364.695312 181.355469 365.132812 181.441406 365.566406 C 181.527344 365.996094 181.652344 366.414062 181.820312 366.824219 C 181.988281 367.230469 182.195312 367.617188 182.441406 367.980469 C 182.6875 368.347656 182.964844 368.6875 183.273438 369 C 183.585938 369.308594 183.925781 369.585938 184.292969 369.832031 C 184.65625 370.078125 185.042969 370.285156 185.449219 370.453125 C 185.859375 370.621094 186.277344 370.746094 186.707031 370.832031 C 187.140625 370.917969 187.578125 370.960938 188.015625 370.960938 C 188.457031 370.960938 188.894531 370.917969 189.324219 370.832031 C 189.757812 370.746094 190.175781 370.621094 190.582031 370.453125 C 190.992188 370.285156 191.375 370.078125 191.742188 369.832031 C 192.109375 369.585938 192.449219 369.308594 192.757812 369 C 193.070312 368.6875 193.347656 368.347656 193.59375 367.980469 C 193.839844 367.617188 194.042969 367.230469 194.214844 366.824219 C 194.382812 366.414062 194.507812 365.996094 194.59375 365.566406 C 194.679688 365.132812 194.722656 364.695312 194.722656 364.257812 C 194.722656 360.097656 200.757812 355.605469 206.058594 351.648438 C 210.804688 348.542969 214.851562 344.699219 218.195312 340.113281 C 218.222656 339.867188 218.222656 339.621094 218.195312 339.375 C 222.996094 342.355469 228.183594 344.324219 233.753906 345.277344 C 240.460938 346.953125 247.164062 348.699219 249.109375 352.722656 C 249.289062 353.148438 249.503906 353.554688 249.765625 353.941406 C 250.027344 354.324219 250.324219 354.675781 250.65625 354.996094 C 250.992188 355.320312 251.355469 355.605469 251.746094 355.851562 C 252.140625 356.097656 252.554688 356.300781 252.988281 356.460938 C 253.421875 356.621094 253.871094 356.734375 254.328125 356.804688 C 254.785156 356.871094 255.246094 356.890625 255.710938 356.863281 C 256.171875 356.835938 256.628906 356.761719 257.074219 356.640625 C 257.523438 356.519531 257.953125 356.351562 258.367188 356.140625 C 258.742188 355.953125 259.09375 355.730469 259.429688 355.472656 C 259.761719 355.214844 260.066406 354.929688 260.347656 354.617188 C 260.625 354.300781 260.875 353.964844 261.089844 353.605469 C 261.304688 353.242188 261.488281 352.863281 261.632812 352.46875 C 261.777344 352.074219 261.882812 351.671875 261.953125 351.257812 C 262.019531 350.839844 262.050781 350.421875 262.039062 350.003906 C 262.03125 349.582031 261.980469 349.167969 261.894531 348.757812 C 261.804688 348.34375 261.679688 347.945312 261.515625 347.558594 C 259.976562 343.800781 263.796875 337.296875 267.152344 331.597656 C 270.335938 326.917969 272.570312 321.820312 273.855469 316.308594 L 273.855469 315.570312 C 279.742188 317.101562 285.6875 317.390625 291.695312 316.441406 C 298.402344 315.367188 305.578125 314.296875 308.730469 317.445312 C 309.351562 318.066406 310.070312 318.542969 310.882812 318.882812 C 311.699219 319.21875 312.542969 319.386719 313.421875 319.390625 L 314.496094 319.390625 C 315.105469 319.292969 315.6875 319.113281 316.246094 318.855469 C 316.800781 318.59375 317.316406 318.265625 317.78125 317.863281 C 318.25 317.460938 318.652344 317.007812 318.996094 316.496094 C 319.335938 315.980469 319.601562 315.433594 319.792969 314.847656 C 319.984375 314.261719 320.089844 313.664062 320.117188 313.046875 C 320.140625 312.433594 320.082031 311.828125 319.941406 311.226562 C 319.800781 310.628906 319.578125 310.058594 319.28125 309.523438 C 318.984375 308.984375 318.617188 308.496094 318.183594 308.058594 C 315.300781 305.109375 316.375 297.730469 317.3125 291.160156 C 318.453125 285.59375 318.585938 280.003906 317.714844 274.394531 C 317.726562 274.167969 317.726562 273.945312 317.714844 273.722656 C 323.195312 272.453125 328.246094 270.214844 332.871094 267.015625 C 338.839844 263.394531 344.941406 259.707031 348.964844 261.382812 C 349.820312 261.757812 350.714844 261.941406 351.648438 261.941406 C 352.582031 261.941406 353.476562 261.757812 354.332031 261.382812 C 355.191406 260.996094 355.933594 260.453125 356.566406 259.753906 C 357.195312 259.050781 357.660156 258.253906 357.953125 257.359375 C 358.085938 256.960938 358.179688 256.550781 358.234375 256.132812 C 358.289062 255.71875 358.304688 255.296875 358.28125 254.878906 C 358.257812 254.457031 358.195312 254.042969 358.097656 253.632812 C 357.996094 253.226562 357.855469 252.832031 357.679688 252.449219 C 357.503906 252.066406 357.292969 251.703125 357.050781 251.359375 C 356.804688 251.015625 356.53125 250.699219 356.226562 250.410156 C 355.925781 250.117188 355.597656 249.855469 355.242188 249.628906 C 354.890625 249.398438 354.519531 249.203125 354.128906 249.042969 C 350.308594 247.433594 348.429688 240.191406 346.820312 233.753906 C 345.800781 228.160156 343.789062 222.953125 340.785156 218.128906 L 340.316406 217.589844 C 344.875 214.285156 348.675781 210.261719 351.714844 205.519531 C 355.738281 200.019531 359.898438 194.457031 364.1875 194.1875 C 364.628906 194.1875 365.066406 194.144531 365.496094 194.058594 C 365.929688 193.972656 366.347656 193.84375 366.753906 193.675781 C 367.164062 193.507812 367.546875 193.300781 367.914062 193.058594 C 368.28125 192.8125 368.621094 192.535156 368.929688 192.222656 C 369.242188 191.910156 369.519531 191.574219 369.765625 191.207031 C 370.007812 190.839844 370.214844 190.453125 370.386719 190.046875 C 370.554688 189.640625 370.679688 189.222656 370.765625 188.789062 C 370.851562 188.355469 370.894531 187.921875 370.894531 187.480469 C 370.894531 187.039062 370.851562 186.605469 370.765625 186.171875 C 370.679688 185.742188 370.554688 185.320312 370.386719 184.914062 C 370.214844 184.507812 370.011719 184.121094 369.765625 183.753906 C 369.519531 183.390625 369.242188 183.050781 368.929688 182.738281 C 368.621094 182.425781 368.28125 182.148438 367.914062 181.90625 C 367.546875 181.660156 367.164062 181.453125 366.753906 181.285156 C 366.347656 181.117188 365.929688 180.988281 365.496094 180.902344 C 365.066406 180.816406 364.628906 180.773438 364.1875 180.773438 Z M 194.992188 306.449219 L 295.117188 126.921875 C 296.367188 129.160156 297.546875 131.433594 298.652344 133.746094 C 299.757812 136.058594 300.789062 138.402344 301.746094 140.78125 C 302.703125 143.15625 303.582031 145.5625 304.386719 147.996094 C 305.191406 150.429688 305.914062 152.886719 306.5625 155.367188 C 307.210938 157.847656 307.777344 160.34375 308.265625 162.859375 C 308.753906 165.375 309.160156 167.90625 309.488281 170.445312 C 309.816406 172.988281 310.0625 175.539062 310.226562 178.09375 C 310.390625 180.652344 310.472656 183.214844 310.476562 185.777344 C 310.476562 188.339844 310.398438 190.898438 310.234375 193.457031 C 310.074219 196.015625 309.832031 198.5625 309.507812 201.105469 C 309.183594 203.648438 308.777344 206.179688 308.292969 208.695312 C 307.808594 211.210938 307.246094 213.710938 306.601562 216.191406 C 305.957031 218.671875 305.234375 221.128906 304.433594 223.5625 C 303.632812 225.996094 302.753906 228.402344 301.800781 230.78125 C 300.847656 233.160156 299.820312 235.507812 298.714844 237.820312 C 297.613281 240.132812 296.4375 242.410156 295.1875 244.648438 C 293.941406 246.886719 292.621094 249.082031 291.234375 251.234375 C 289.84375 253.390625 288.390625 255.496094 286.867188 257.558594 C 285.34375 259.621094 283.757812 261.632812 282.109375 263.59375 C 280.457031 265.554688 278.746094 267.460938 276.972656 269.3125 C 275.203125 271.164062 273.375 272.957031 271.488281 274.691406 C 269.601562 276.425781 267.660156 278.097656 265.667969 279.710938 C 263.675781 281.320312 261.632812 282.867188 259.542969 284.351562 C 257.453125 285.832031 255.316406 287.246094 253.132812 288.589844 C 250.953125 289.9375 248.730469 291.210938 246.46875 292.414062 C 244.207031 293.617188 241.90625 294.75 239.574219 295.804688 C 237.238281 296.863281 234.875 297.847656 232.476562 298.753906 C 230.078125 299.660156 227.65625 300.488281 225.207031 301.242188 C 222.757812 301.992188 220.285156 302.667969 217.792969 303.261719 C 215.300781 303.859375 212.789062 304.375 210.265625 304.808594 C 207.738281 305.242188 205.203125 305.597656 202.65625 305.871094 C 200.105469 306.144531 197.550781 306.335938 194.992188 306.449219 Z M 68.980469 185.871094 C 68.980469 180.730469 69.304688 175.609375 69.960938 170.511719 C 70.613281 165.414062 71.59375 160.375 72.894531 155.402344 C 74.195312 150.429688 75.808594 145.558594 77.734375 140.792969 C 79.664062 136.027344 81.886719 131.40625 84.40625 126.921875 L 184.195312 306.449219 C 182.277344 306.363281 180.367188 306.226562 178.457031 306.050781 C 176.546875 305.871094 174.640625 305.648438 172.742188 305.378906 C 170.84375 305.109375 168.953125 304.792969 167.066406 304.433594 C 165.183594 304.074219 163.308594 303.671875 161.445312 303.222656 C 159.578125 302.773438 157.726562 302.28125 155.886719 301.742188 C 154.042969 301.207031 152.214844 300.625 150.402344 300 C 148.589844 299.375 146.792969 298.707031 145.007812 298 C 143.226562 297.289062 141.464844 296.535156 139.71875 295.742188 C 137.972656 294.949219 136.246094 294.113281 134.539062 293.238281 C 132.832031 292.359375 131.148438 291.445312 129.484375 290.488281 C 127.824219 289.53125 126.183594 288.535156 124.570312 287.5 C 122.953125 286.464844 121.367188 285.390625 119.800781 284.28125 C 118.238281 283.171875 116.699219 282.023438 115.191406 280.839844 C 113.683594 279.65625 112.203125 278.4375 110.75 277.183594 C 109.300781 275.929688 107.878906 274.640625 106.492188 273.316406 C 105.101562 271.996094 103.742188 270.640625 102.417969 269.253906 C 101.09375 267.867188 99.800781 266.449219 98.542969 265.003906 C 97.285156 263.554688 96.0625 262.078125 94.878906 260.570312 C 93.691406 259.0625 92.539062 257.527344 91.425781 255.96875 C 90.3125 254.40625 89.234375 252.820312 88.199219 251.207031 C 87.160156 249.59375 86.160156 247.957031 85.199219 246.296875 C 84.238281 244.636719 83.320312 242.953125 82.4375 241.25 C 81.558594 239.542969 80.71875 237.820312 79.921875 236.078125 C 79.125 234.332031 78.367188 232.570312 77.652344 230.789062 C 76.941406 229.007812 76.269531 227.210938 75.640625 225.402344 C 75.011719 223.589844 74.429688 221.761719 73.886719 219.921875 C 73.34375 218.082031 72.847656 216.230469 72.394531 214.367188 C 71.941406 212.5 71.535156 210.628906 71.171875 208.746094 C 70.808594 206.863281 70.488281 204.96875 70.214844 203.070312 C 69.941406 201.171875 69.714844 199.269531 69.53125 197.359375 C 69.347656 195.449219 69.210938 193.539062 69.121094 191.621094 C 69.027344 189.707031 68.980469 187.789062 68.980469 185.871094 Z M 189.695312 65.160156 C 192.167969 65.15625 194.640625 65.226562 197.109375 65.375 C 199.582031 65.519531 202.042969 65.746094 204.5 66.042969 C 206.957031 66.34375 209.402344 66.714844 211.835938 67.164062 C 214.265625 67.613281 216.683594 68.136719 219.085938 68.738281 C 221.488281 69.335938 223.867188 70.003906 226.226562 70.75 C 228.585938 71.492188 230.921875 72.308594 233.230469 73.199219 C 235.539062 74.085938 237.820312 75.042969 240.070312 76.070312 C 242.324219 77.101562 244.539062 78.195312 246.722656 79.359375 C 248.90625 80.523438 251.050781 81.753906 253.160156 83.050781 C 255.265625 84.347656 257.332031 85.707031 259.355469 87.132812 C 261.378906 88.554688 263.359375 90.039062 265.292969 91.585938 C 267.226562 93.128906 269.109375 94.730469 270.941406 96.394531 C 272.777344 98.054688 274.558594 99.769531 276.285156 101.539062 C 278.015625 103.3125 279.6875 105.132812 281.304688 107.003906 C 282.921875 108.878906 284.480469 110.800781 285.976562 112.769531 C 287.476562 114.738281 288.914062 116.75 290.285156 118.808594 L 89.101562 118.808594 C 90.472656 116.746094 91.90625 114.730469 93.402344 112.753906 C 94.898438 110.78125 96.453125 108.855469 98.066406 106.976562 C 99.683594 105.101562 101.355469 103.273438 103.082031 101.496094 C 104.808594 99.722656 106.585938 98.003906 108.421875 96.335938 C 110.253906 94.671875 112.136719 93.0625 114.066406 91.511719 C 116 89.964844 117.976562 88.472656 120 87.046875 C 122.023438 85.617188 124.089844 84.253906 126.195312 82.953125 C 128.304688 81.652344 130.449219 80.417969 132.632812 79.25 C 134.816406 78.078125 137.035156 76.980469 139.285156 75.945312 C 141.535156 74.914062 143.816406 73.953125 146.128906 73.058594 C 148.4375 72.167969 150.773438 71.347656 153.132812 70.597656 C 155.496094 69.851562 157.878906 69.175781 160.28125 68.574219 C 162.683594 67.972656 165.101562 67.445312 167.535156 66.992188 C 169.96875 66.539062 172.417969 66.164062 174.875 65.859375 C 177.332031 65.558594 179.796875 65.332031 182.269531 65.179688 C 184.742188 65.03125 187.21875 64.957031 189.695312 64.957031 Z M 189.695312 288.8125 L 102.511719 131.953125 L 276.875 131.953125 Z M 325.425781 118.875 C 329.074219 121.203125 332.898438 123.191406 336.894531 124.84375 C 335.1875 128.949219 333.867188 133.171875 332.9375 137.519531 C 332.269531 141.34375 331.019531 144.964844 329.183594 148.382812 C 327.972656 149.757812 326.5625 150.871094 324.945312 151.726562 C 323.328125 152.582031 321.609375 153.121094 319.792969 153.347656 C 316.566406 140.460938 311.539062 128.324219 304.707031 116.929688 C 306.152344 115.804688 307.757812 114.972656 309.515625 114.441406 C 311.273438 113.910156 313.066406 113.710938 314.898438 113.847656 C 318.660156 114.996094 322.167969 116.671875 325.425781 118.875 Z M 276.875 70.660156 C 280.800781 70.253906 284.691406 70.476562 288.542969 71.328125 C 292.808594 72.003906 297.101562 72.363281 301.417969 72.402344 C 301.394531 76.910156 301.796875 81.382812 302.625 85.816406 C 303.445312 89.578125 303.667969 93.378906 303.296875 97.214844 C 302.71875 98.925781 301.847656 100.476562 300.691406 101.863281 C 299.535156 103.25 298.167969 104.382812 296.589844 105.261719 C 288.554688 94.652344 279.167969 85.421875 268.425781 77.566406 C 269.34375 75.921875 270.535156 74.503906 271.992188 73.308594 C 273.453125 72.117188 275.078125 71.234375 276.875 70.660156 Z M 225.167969 45.308594 C 228.628906 43.503906 232.273438 42.230469 236.101562 41.488281 C 240.316406 40.515625 244.429688 39.21875 248.441406 37.597656 C 250.148438 41.691406 252.203125 45.605469 254.609375 49.332031 C 256.820312 52.515625 258.496094 55.957031 259.640625 59.660156 C 259.765625 61.445312 259.582031 63.195312 259.085938 64.914062 C 258.589844 66.632812 257.8125 68.210938 256.753906 69.652344 C 245.25 62.878906 233 57.960938 220.003906 54.898438 C 220.246094 53.042969 220.804688 51.292969 221.683594 49.640625 C 222.558594 47.988281 223.699219 46.546875 225.101562 45.308594 Z M 167.628906 41.488281 C 170.136719 38.546875 173.019531 36.042969 176.28125 33.976562 C 179.828125 31.488281 183.136719 28.714844 186.207031 25.660156 C 189.335938 28.820312 192.734375 31.65625 196.398438 34.175781 C 199.660156 36.167969 202.542969 38.605469 205.050781 41.488281 C 205.878906 43.175781 206.375 44.957031 206.535156 46.832031 C 206.699219 48.703125 206.515625 50.542969 205.988281 52.351562 C 200.574219 51.777344 195.140625 51.507812 189.695312 51.546875 C 182.078125 51.589844 174.523438 52.285156 167.027344 53.625 C 166.3125 51.644531 166.007812 49.601562 166.113281 47.496094 C 166.214844 45.390625 166.722656 43.386719 167.628906 41.488281 Z M 113.175781 60.128906 C 114.351562 56.367188 116.050781 52.859375 118.273438 49.601562 C 120.570312 45.9375 122.558594 42.117188 124.242188 38.132812 C 128.339844 39.871094 132.566406 41.214844 136.914062 42.15625 C 140.71875 42.792969 144.316406 44.023438 147.714844 45.847656 C 149.234375 47.222656 150.449219 48.832031 151.351562 50.675781 C 152.257812 52.515625 152.785156 54.460938 152.945312 56.507812 C 140.460938 60.046875 128.746094 65.300781 117.804688 72.269531 C 116.28125 70.671875 115.121094 68.84375 114.316406 66.789062 C 113.515625 64.734375 113.136719 62.605469 113.175781 60.398438 Z M 70.660156 86.550781 C 71.421875 82.292969 71.804688 78.003906 71.796875 73.675781 C 76.300781 73.6875 80.773438 73.304688 85.210938 72.535156 C 88.996094 71.703125 92.816406 71.457031 96.679688 71.796875 C 98.777344 72.609375 100.644531 73.789062 102.28125 75.332031 C 103.917969 76.875 105.199219 78.671875 106.132812 80.71875 C 96.105469 88.761719 87.386719 98.039062 79.980469 108.546875 C 78.871094 108.105469 77.816406 107.554688 76.820312 106.898438 C 75.820312 106.238281 74.902344 105.484375 74.058594 104.636719 C 73.21875 103.789062 72.472656 102.863281 71.820312 101.863281 C 71.167969 100.859375 70.625 99.804688 70.1875 98.691406 C 69.769531 94.710938 69.925781 90.753906 70.660156 86.820312 Z M 48.730469 120.082031 C 51.890625 117.878906 55.308594 116.199219 58.988281 115.054688 C 60.179688 115.03125 61.359375 115.125 62.527344 115.34375 C 63.699219 115.5625 64.832031 115.894531 65.933594 116.34375 C 67.035156 116.792969 68.082031 117.351562 69.070312 118.015625 C 70.054688 118.679688 70.964844 119.433594 71.796875 120.285156 C 65.703125 131.238281 61.234375 142.816406 58.386719 155.023438 C 57.960938 154.984375 57.535156 154.984375 57.113281 155.023438 C 55.921875 155.039062 54.742188 154.933594 53.574219 154.707031 C 52.410156 154.480469 51.277344 154.136719 50.179688 153.675781 C 49.082031 153.210938 48.046875 152.644531 47.066406 151.964844 C 46.089844 151.289062 45.191406 150.519531 44.371094 149.65625 C 42.5 146.199219 41.226562 142.53125 40.546875 138.660156 C 39.585938 134.433594 38.265625 130.320312 36.589844 126.320312 C 40.863281 124.839844 44.953125 122.960938 48.863281 120.6875 Z M 33.371094 198.949219 C 30.847656 195.414062 28.050781 192.105469 24.988281 189.023438 C 28.171875 185.898438 31.035156 182.5 33.574219 178.828125 C 35.632812 175.578125 38.136719 172.71875 41.085938 170.246094 C 42.175781 169.757812 43.308594 169.390625 44.476562 169.140625 C 45.648438 168.890625 46.828125 168.765625 48.023438 168.765625 C 49.222656 168.765625 50.402344 168.890625 51.574219 169.140625 C 52.742188 169.390625 53.875 169.757812 54.964844 170.246094 L 56.242188 170.246094 C 55.734375 175.441406 55.511719 180.652344 55.570312 185.871094 C 55.613281 193.054688 56.242188 200.183594 57.449219 207.265625 C 56.683594 207.292969 55.945312 207.449219 55.234375 207.734375 C 54.136719 208.199219 53.003906 208.554688 51.835938 208.792969 C 50.667969 209.03125 49.484375 209.152344 48.292969 209.152344 C 47.101562 209.152344 45.921875 209.03125 44.75 208.792969 C 43.582031 208.554688 42.449219 208.199219 41.351562 207.734375 C 38.214844 205.238281 35.554688 202.308594 33.371094 198.949219 Z M 49.265625 257.089844 C 45.617188 254.765625 41.796875 252.777344 37.796875 251.121094 C 39.496094 247.015625 40.816406 242.792969 41.753906 238.449219 C 42.4375 234.640625 43.664062 231.019531 45.441406 227.582031 C 46.265625 226.722656 47.164062 225.957031 48.144531 225.28125 C 49.125 224.609375 50.160156 224.039062 51.257812 223.578125 C 52.351562 223.117188 53.484375 222.773438 54.652344 222.542969 C 55.816406 222.3125 56.996094 222.207031 58.183594 222.21875 C 58.90625 222.191406 59.601562 222.035156 60.265625 221.75 C 63.597656 233.597656 68.472656 244.773438 74.882812 255.28125 C 73.992188 255.628906 73.207031 256.140625 72.535156 256.824219 C 70.835938 258.511719 68.871094 259.808594 66.652344 260.714844 C 64.433594 261.621094 62.125 262.066406 59.726562 262.054688 C 55.988281 260.933594 52.5 259.277344 49.265625 257.089844 Z M 97.886719 305.308594 C 93.960938 305.714844 90.070312 305.492188 86.21875 304.636719 C 81.957031 303.894531 77.664062 303.539062 73.339844 303.566406 C 73.367188 299.054688 72.964844 294.585938 72.132812 290.152344 C 71.28125 286.390625 71.058594 282.589844 71.464844 278.753906 C 71.886719 277.636719 72.421875 276.578125 73.066406 275.578125 C 73.710938 274.574219 74.449219 273.648438 75.289062 272.800781 C 76.125 271.949219 77.039062 271.199219 78.035156 270.539062 C 79.027344 269.882812 80.078125 269.332031 81.1875 268.894531 C 81.996094 268.5625 82.710938 268.09375 83.332031 267.484375 C 90.78125 277.253906 99.410156 285.839844 109.21875 293.238281 C 108.527344 293.914062 107.992188 294.695312 107.609375 295.585938 C 107.609375 295.585938 104.191406 303.765625 97.886719 305.308594 Z M 149.457031 330.589844 C 145.992188 332.457031 142.324219 333.753906 138.457031 334.480469 C 134.234375 335.421875 130.121094 336.714844 126.117188 338.371094 C 124.398438 334.261719 122.339844 330.328125 119.949219 326.566406 C 117.789062 323.445312 116.15625 320.070312 115.054688 316.441406 C 115.023438 315.25 115.113281 314.070312 115.324219 312.898438 C 115.539062 311.726562 115.871094 310.589844 116.320312 309.484375 C 116.773438 308.382812 117.332031 307.339844 118 306.351562 C 118.667969 305.367188 119.429688 304.460938 120.285156 303.632812 C 120.851562 303.03125 121.324219 302.359375 121.691406 301.621094 C 132.21875 307.871094 143.394531 312.5625 155.222656 315.703125 C 154.984375 316.445312 154.851562 317.207031 154.820312 317.984375 C 154.824219 319.160156 154.710938 320.328125 154.476562 321.480469 C 154.242188 322.636719 153.894531 323.753906 153.433594 324.839844 C 152.972656 325.921875 152.40625 326.949219 151.738281 327.917969 C 151.066406 328.886719 150.308594 329.777344 149.457031 330.589844 Z M 206.929688 334.210938 C 204.402344 337.230469 201.496094 339.824219 198.210938 341.992188 C 194.664062 344.480469 191.355469 347.253906 188.285156 350.308594 C 185.140625 347.164062 181.742188 344.324219 178.09375 341.789062 C 174.863281 339.703125 172.023438 337.179688 169.574219 334.210938 C 169.105469 333.121094 168.75 331.996094 168.507812 330.832031 C 168.269531 329.667969 168.148438 328.492188 168.148438 327.304688 C 168.148438 326.117188 168.269531 324.941406 168.507812 323.777344 C 168.75 322.613281 169.105469 321.488281 169.574219 320.398438 C 169.8125 319.792969 169.945312 319.167969 169.976562 318.519531 C 176.484375 319.566406 183.035156 320.105469 189.625 320.128906 C 195.375 320.101562 201.097656 319.699219 206.792969 318.921875 C 206.84375 319.429688 206.953125 319.921875 207.128906 320.398438 C 208.027344 322.613281 208.472656 324.917969 208.460938 327.3125 C 208.449219 329.703125 207.984375 332.003906 207.0625 334.210938 Z M 261.382812 315.570312 C 260.363281 319.289062 258.820312 322.773438 256.753906 326.03125 C 254.457031 329.714844 252.46875 333.5625 250.789062 337.566406 C 246.6875 335.828125 242.464844 334.484375 238.113281 333.542969 C 234.203125 332.90625 230.492188 331.679688 226.980469 329.851562 C 226.121094 329.03125 225.355469 328.128906 224.683594 327.148438 C 224.007812 326.171875 223.441406 325.132812 222.980469 324.035156 C 222.519531 322.941406 222.175781 321.808594 221.945312 320.644531 C 221.714844 319.476562 221.605469 318.300781 221.617188 317.113281 C 221.648438 316.796875 221.648438 316.484375 221.617188 316.171875 C 233.8125 313.207031 245.371094 308.625 256.285156 302.425781 C 257.152344 303.28125 257.921875 304.214844 258.59375 305.230469 C 259.265625 306.246094 259.828125 307.320312 260.277344 308.449219 C 260.726562 309.582031 261.058594 310.746094 261.265625 311.945312 C 261.476562 313.144531 261.558594 314.351562 261.515625 315.570312 Z M 303.902344 289.078125 C 303.140625 293.339844 302.757812 297.628906 302.761719 301.957031 C 298.257812 302 293.785156 302.402344 289.347656 303.164062 C 285.5625 303.996094 281.742188 304.242188 277.878906 303.902344 C 276.785156 303.476562 275.742188 302.949219 274.753906 302.3125 C 273.769531 301.675781 272.855469 300.945312 272.019531 300.117188 C 271.183594 299.292969 270.4375 298.390625 269.789062 297.414062 C 269.136719 296.433594 268.59375 295.402344 268.15625 294.3125 C 278.351562 286.800781 287.292969 278.015625 294.980469 267.957031 C 297.066406 268.875 298.894531 270.15625 300.464844 271.808594 C 302.03125 273.460938 303.222656 275.347656 304.035156 277.476562 C 304.59375 281.34375 304.59375 285.210938 304.035156 289.078125 Z M 325.828125 255.214844 C 322.652344 257.453125 319.210938 259.152344 315.503906 260.308594 C 313.335938 260.40625 311.230469 260.089844 309.1875 259.355469 C 307.140625 258.625 305.3125 257.535156 303.699219 256.085938 C 310.507812 244.996094 315.605469 233.171875 318.988281 220.609375 C 321.039062 220.757812 322.992188 221.28125 324.84375 222.171875 C 326.699219 223.0625 328.324219 224.265625 329.71875 225.773438 C 331.546875 229.269531 332.820312 232.960938 333.542969 236.839844 C 334.589844 241.132812 335.976562 245.3125 337.699219 249.378906 C 333.617188 250.976562 329.703125 252.921875 325.964844 255.214844 Z M 340.984375 197.070312 C 338.925781 200.34375 336.398438 203.203125 333.40625 205.65625 C 331.632812 206.519531 329.761719 207.03125 327.789062 207.179688 C 325.820312 207.332031 323.894531 207.113281 322.007812 206.527344 C 323.15625 199.6875 323.757812 192.804688 323.816406 185.871094 C 323.769531 179.667969 323.277344 173.496094 322.34375 167.363281 C 324.179688 166.804688 326.054688 166.609375 327.964844 166.773438 C 329.875 166.933594 331.691406 167.445312 333.40625 168.300781 C 336.484375 170.777344 339.078125 173.683594 341.1875 177.019531 C 343.714844 180.511719 346.484375 183.796875 349.503906 186.878906 C 346.40625 190.027344 343.613281 193.425781 341.121094 197.070312 Z M 177.890625 141.273438 C 178.691406 142.371094 179.609375 143.351562 180.652344 144.21875 C 181.695312 145.085938 182.828125 145.8125 184.050781 146.398438 C 185.273438 146.984375 186.550781 147.410156 187.882812 147.675781 C 189.210938 147.945312 190.550781 148.046875 191.90625 147.980469 C 193.226562 148.101562 194.535156 148.042969 195.839844 147.796875 C 197.140625 147.550781 198.382812 147.132812 199.570312 146.539062 C 200.753906 145.949219 201.835938 145.203125 202.8125 144.308594 C 203.789062 143.414062 204.625 142.402344 205.320312 141.273438 C 205.320312 142.144531 205.234375 143.003906 205.0625 143.855469 C 204.886719 144.707031 204.628906 145.53125 204.289062 146.328125 C 203.949219 147.128906 203.535156 147.886719 203.039062 148.601562 C 202.546875 149.316406 201.988281 149.972656 201.359375 150.574219 C 200.734375 151.175781 200.054688 151.707031 199.320312 152.171875 C 198.585938 152.636719 197.8125 153.023438 197 153.328125 C 196.1875 153.636719 195.351562 153.859375 194.496094 153.996094 C 193.636719 154.136719 192.773438 154.1875 191.90625 154.152344 C 191.03125 154.164062 190.160156 154.097656 189.292969 153.945312 C 188.429688 153.796875 187.585938 153.5625 186.765625 153.253906 C 185.945312 152.941406 185.164062 152.554688 184.417969 152.09375 C 183.671875 151.632812 182.972656 151.105469 182.328125 150.511719 C 181.683594 149.917969 181.097656 149.269531 180.574219 148.5625 C 180.050781 147.859375 179.601562 147.109375 179.222656 146.320312 C 178.839844 145.527344 178.539062 144.710938 178.316406 143.859375 C 178.09375 143.011719 177.949219 142.152344 177.890625 141.273438 Z M 196.398438 140.539062 C 196.398438 140.832031 196.371094 141.125 196.3125 141.414062 C 196.257812 141.703125 196.171875 141.984375 196.058594 142.257812 C 195.945312 142.53125 195.808594 142.789062 195.644531 143.035156 C 195.480469 143.277344 195.292969 143.503906 195.085938 143.714844 C 194.875 143.921875 194.648438 144.109375 194.402344 144.273438 C 194.15625 144.4375 193.898438 144.574219 193.625 144.6875 C 193.355469 144.800781 193.074219 144.886719 192.785156 144.945312 C 192.492188 145 192.203125 145.03125 191.90625 145.03125 C 191.605469 145.035156 191.308594 145.007812 191.011719 144.953125 C 190.714844 144.898438 190.425781 144.816406 190.148438 144.703125 C 189.867188 144.59375 189.601562 144.453125 189.347656 144.289062 C 189.097656 144.125 188.863281 143.9375 188.648438 143.726562 C 188.433594 143.515625 188.238281 143.285156 188.070312 143.035156 C 187.902344 142.789062 187.757812 142.523438 187.640625 142.246094 C 187.523438 141.96875 187.433594 141.683594 187.375 141.386719 C 187.3125 141.09375 187.28125 140.792969 187.28125 140.492188 C 187.277344 140.191406 187.308594 139.894531 187.363281 139.597656 C 187.421875 139.300781 187.507812 139.015625 187.621094 138.734375 C 187.738281 138.457031 187.878906 138.191406 188.046875 137.941406 C 188.210938 137.691406 188.402344 137.460938 188.617188 137.246094 C 188.828125 137.03125 189.0625 136.84375 189.3125 136.675781 C 189.5625 136.507812 189.828125 136.367188 190.105469 136.253906 C 190.382812 136.140625 190.671875 136.050781 190.96875 135.996094 C 191.261719 135.9375 191.5625 135.910156 191.863281 135.910156 C 192.164062 135.910156 192.460938 135.941406 192.757812 136.003906 C 193.050781 136.0625 193.339844 136.152344 193.617188 136.269531 C 193.894531 136.386719 194.15625 136.53125 194.40625 136.699219 C 194.65625 136.871094 194.886719 137.0625 195.097656 137.277344 C 195.308594 137.492188 195.496094 137.726562 195.660156 137.980469 C 195.824219 138.230469 195.960938 138.496094 196.074219 138.777344 C 196.1875 139.058594 196.269531 139.34375 196.324219 139.640625 C 196.378906 139.9375 196.40625 140.234375 196.398438 140.539062 Z M 166.421875 159.246094 L 214.707031 159.246094 L 217.792969 167.5625 L 211.085938 167.5625 C 211.085938 167.5625 216.25 180.976562 208.136719 184.933594 C 200.019531 188.890625 188.621094 178.226562 180.640625 183.726562 C 180.113281 184.121094 179.636719 184.570312 179.207031 185.070312 C 178.777344 185.570312 178.40625 186.109375 178.089844 186.6875 C 177.777344 187.265625 177.527344 187.871094 177.339844 188.503906 C 177.15625 189.136719 177.039062 189.78125 176.992188 190.4375 C 176.945312 191.09375 176.964844 191.75 177.058594 192.402344 C 177.152344 193.054688 177.3125 193.691406 177.539062 194.308594 C 177.765625 194.925781 178.058594 195.511719 178.410156 196.070312 C 178.765625 196.625 179.171875 197.136719 179.632812 197.605469 C 182.058594 196.605469 184.5625 195.894531 187.152344 195.46875 C 189.738281 195.046875 192.339844 194.921875 194.957031 195.097656 C 197.574219 195.269531 200.136719 195.738281 202.644531 196.503906 C 205.152344 197.265625 207.542969 198.304688 209.8125 199.617188 C 211.066406 200.46875 212.191406 201.460938 213.1875 202.601562 C 214.183594 203.742188 215.019531 204.992188 215.6875 206.351562 C 216.359375 207.710938 216.84375 209.132812 217.144531 210.617188 C 217.445312 212.101562 217.546875 213.597656 217.457031 215.109375 L 210.75 220.476562 C 210.75 220.476562 212.292969 205.585938 192.644531 206.527344 C 172.996094 207.464844 167.429688 233.351562 196.199219 250.519531 L 196.199219 267.417969 C 190.746094 263.546875 185.71875 259.183594 181.113281 254.332031 C 176.511719 249.480469 172.417969 244.230469 168.835938 238.582031 C 168.046875 237.171875 167.367188 235.707031 166.804688 234.195312 C 166.238281 232.679688 165.792969 231.128906 165.464844 229.546875 C 165.136719 227.960938 164.933594 226.363281 164.851562 224.75 C 164.769531 223.132812 164.8125 221.519531 164.980469 219.914062 C 165.148438 218.304688 165.4375 216.71875 165.847656 215.15625 C 166.261719 213.589844 166.789062 212.066406 167.433594 210.585938 C 168.078125 209.101562 168.835938 207.679688 169.699219 206.3125 C 170.566406 204.945312 171.527344 203.652344 172.59375 202.4375 C 172.59375 202.4375 160.121094 183.859375 174.738281 174.804688 C 184.195312 168.972656 199.617188 180.238281 204.917969 176.75 C 206.996094 175.34375 203.507812 167.226562 203.507812 167.226562 L 172.125 167.226562 Z M 166.421875 159.246094 " fill-opacity="1" fill-rule="nonzero"/></g></svg>